<svg width="176" height="54" viewBox="0 0 176 54" fill="none" xmlns="http://www.w3.org/2000/svg">
<path d="M59.1131 31.144C58.4891 31.144 57.9411 30.968 57.4691 30.616C56.9971 30.256 56.6291 29.752 56.3651 29.104C56.1011 28.456 55.9691 27.688 55.9691 26.8C55.9691 25.928 56.1011 25.168 56.3651 24.52C56.6291 23.872 57.0051 23.368 57.4931 23.008C57.9891 22.64 58.5811 22.456 59.2691 22.456C60.1011 22.456 60.7691 22.684 61.2731 23.14C61.7851 23.596 62.0971 24.24 62.2091 25.072H60.8291C60.7491 24.64 60.5731 24.296 60.3011 24.04C60.0371 23.784 59.6931 23.656 59.2691 23.656C58.6211 23.656 58.1251 23.936 57.7811 24.496C57.4371 25.056 57.2651 25.824 57.2651 26.8C57.2651 27.816 57.4451 28.596 57.8051 29.14C58.1731 29.676 58.6491 29.944 59.2331 29.944C59.6251 29.944 59.9491 29.828 60.2051 29.596C60.4611 29.364 60.6571 29.068 60.7931 28.708C60.9291 28.34 61.0131 27.952 61.0451 27.544H59.2811V26.488H62.3291V31H61.1531L61.0691 29.872H60.9971C60.8371 30.24 60.6131 30.544 60.3251 30.784C60.0371 31.024 59.6331 31.144 59.1131 31.144ZM63.7764 31V22.6H69.1404V23.74H65.0484V26.188H68.7804V27.316H65.0484V29.86H69.1404V31H63.7764ZM72.9757 31V23.74H70.7197V22.6H76.5037V23.74H74.2477V31H72.9757ZM85.5423 31V29.872H87.3663V23.728H85.5663V22.6H90.4383V23.728H88.6383V29.872H90.4623V31H85.5423ZM92.2096 31V22.6H93.4576L96.9736 28.756V22.6H98.1856V31H96.9376L93.4216 24.844V31H92.2096ZM108.952 31V23.74H106.696V22.6H112.48V23.74H110.224V31H108.952ZM116.784 31.144C116.104 31.144 115.516 30.968 115.02 30.616C114.524 30.264 114.144 29.764 113.88 29.116C113.616 28.468 113.484 27.696 113.484 26.8C113.484 25.904 113.616 25.132 113.88 24.484C114.144 23.836 114.524 23.336 115.02 22.984C115.516 22.632 116.104 22.456 116.784 22.456C117.472 22.456 118.06 22.632 118.548 22.984C119.044 23.336 119.424 23.836 119.688 24.484C119.952 25.132 120.084 25.904 120.084 26.8C120.084 27.696 119.952 28.468 119.688 29.116C119.424 29.764 119.044 30.264 118.548 30.616C118.06 30.968 117.472 31.144 116.784 31.144ZM116.784 29.944C117.384 29.944 117.868 29.676 118.236 29.14C118.604 28.596 118.788 27.816 118.788 26.8C118.788 25.784 118.604 25.008 118.236 24.472C117.868 23.928 117.384 23.656 116.784 23.656C116.176 23.656 115.688 23.928 115.32 24.472C114.96 25.008 114.78 25.784 114.78 26.8C114.78 27.816 114.96 28.596 115.32 29.14C115.688 29.676 116.176 29.944 116.784 29.944ZM123.955 31.144C123.387 31.144 122.879 31.028 122.431 30.796C121.991 30.564 121.643 30.212 121.387 29.74C121.131 29.26 121.003 28.656 121.003 27.928V22.6H122.275V28C122.275 28.64 122.427 29.136 122.731 29.488C123.035 29.832 123.451 30.004 123.979 30.004C124.507 30.004 124.923 29.832 125.227 29.488C125.531 29.136 125.683 28.64 125.683 28V22.6H126.955V27.928C126.955 28.656 126.823 29.26 126.559 29.74C126.295 30.212 125.935 30.564 125.479 30.796C125.031 31.028 124.523 31.144 123.955 31.144ZM131.198 31.144C130.494 31.144 129.894 30.964 129.398 30.604C128.91 30.244 128.534 29.74 128.27 29.092C128.014 28.436 127.886 27.676 127.886 26.812C127.886 25.94 128.014 25.18 128.27 24.532C128.534 23.876 128.914 23.368 129.41 23.008C129.906 22.64 130.502 22.456 131.198 22.456C132.102 22.456 132.822 22.704 133.358 23.2C133.894 23.688 134.206 24.352 134.294 25.192H132.89C132.818 24.752 132.638 24.388 132.35 24.1C132.07 23.804 131.682 23.656 131.186 23.656C130.554 23.656 130.062 23.936 129.71 24.496C129.358 25.056 129.182 25.828 129.182 26.812C129.182 27.788 129.358 28.556 129.71 29.116C130.062 29.668 130.554 29.944 131.186 29.944C131.698 29.944 132.09 29.812 132.362 29.548C132.634 29.276 132.81 28.92 132.89 28.48H134.294C134.166 29.304 133.842 29.956 133.322 30.436C132.802 30.908 132.094 31.144 131.198 31.144ZM135.262 31V22.6H136.534V26.08H140.206V22.6H141.478V31H140.206V27.244H136.534V31H135.262Z" fill="#F9F6EC"/>
<path fill-rule="evenodd" clip-rule="evenodd" d="M17 23.6315H18.6471V36.3095H36.3529V23.6315H38V37.9999H17V23.6315Z" fill="#F9F6EC"/>
<path d="M28.1514 33.5028C27.8231 33.6235 27.5258 33.5689 27.2019 33.5506C27.1909 33.4368 27.1711 33.3503 27.1755 33.2637C27.2019 32.5738 27.0037 31.9476 26.6644 31.3624C26.5433 31.1551 26.4177 30.9479 26.3076 30.7361C25.9287 30.012 25.8119 29.2515 26.0146 28.4477C26.1379 27.9672 26.1093 27.4822 26.0168 27.004C25.9551 26.692 25.8604 26.3869 25.7767 26.0817C25.6753 25.722 25.4286 25.5261 25.0828 25.4647C24.8515 25.4214 24.618 25.4055 24.3845 25.3781C23.4284 25.2734 22.5583 24.9409 21.7873 24.3443C21.5736 24.1804 21.3775 23.9982 21.2388 23.7591C21.2035 23.6976 21.1859 23.627 21.1418 23.52C21.3159 23.5314 21.3577 23.6635 21.4436 23.7249C21.5295 23.7864 21.6551 23.7614 21.6926 23.6498C21.7216 23.5715 21.7348 23.4878 21.7314 23.404C21.728 23.3202 21.708 23.238 21.6727 23.1625C21.5918 22.9844 21.4975 22.8131 21.3908 22.6502C21.1044 22.2266 20.8129 21.8076 20.5162 21.3932C20.3488 21.1587 20.2827 20.9059 20.3312 20.6235C20.3378 20.5757 20.3929 20.5256 20.4369 20.5028C20.481 20.4801 20.5294 20.5165 20.5515 20.5461C20.6484 20.6782 20.7343 20.8194 20.829 20.9537C20.9238 21.0881 20.9854 21.1814 21.1727 21.145C21.2564 20.6008 20.8973 20.2205 20.6925 19.7947C20.7101 19.6284 20.8092 19.5442 20.9348 19.485C21.0428 19.4346 21.1646 19.4257 21.2784 19.4599C21.6353 19.5556 21.9261 19.7628 22.1221 20.0747C22.3302 20.4052 22.5136 20.7515 22.6706 21.1108C22.7587 21.3112 22.8491 21.4729 23.0429 21.5867C23.3799 21.7849 23.6267 22.09 23.8624 22.4019C24.0694 22.6775 24.2677 22.9598 24.4814 23.2308C24.563 23.3376 24.6595 23.4312 24.7678 23.5086C24.9131 23.6156 25.0718 23.5929 25.2149 23.4745C25.3185 23.3879 25.3361 23.2718 25.2634 23.1511C25.249 23.1245 25.2312 23.1 25.2105 23.0782C24.8889 22.764 24.7281 22.3587 24.6136 21.9306C24.4417 21.2884 24.0628 20.7943 23.5848 20.3799C23.2003 20.0483 22.8784 19.6461 22.6354 19.1935C22.4592 18.8611 22.3094 18.5149 22.1441 18.1756C21.9789 17.8364 21.9745 17.4743 22.0032 17.1077C22.012 16.987 22.0384 16.864 22.1728 16.8185C22.2565 16.7889 22.3336 16.8754 22.3843 17.0576C22.4349 17.2398 22.4834 17.4379 22.6134 17.5927C22.675 17.6656 22.7962 17.6587 22.838 17.5745C22.8799 17.4902 22.9107 17.3764 22.9504 17.2807C23.0033 17.1487 23.1068 17.1168 23.2368 17.1737C23.3667 17.2306 23.4526 17.3286 23.4615 17.4789C23.4703 17.6291 23.4725 17.8432 23.4813 18.0254C23.4901 18.2075 23.4879 18.4216 23.5187 18.6151C23.5936 19.0614 23.9571 19.3165 24.3867 19.2459C24.5475 19.2186 24.629 19.1115 24.5805 18.9567C24.3845 18.3373 24.195 17.7157 23.9747 17.1054C23.8843 16.8649 23.758 16.6405 23.6002 16.4405C23.3469 16.1103 23.1883 15.7437 23.0936 15.3407C23.076 15.2678 23.0561 15.1949 23.0407 15.1198C22.8777 14.382 22.8777 14.382 22.5164 13.8833L22.8755 13.6875C22.8072 13.5463 22.7455 13.4302 22.6927 13.3072C22.6559 13.2263 22.6279 13.1416 22.6089 13.0544C22.6023 13.0226 22.6376 12.9634 22.6662 12.9474C22.6949 12.9315 22.7676 12.936 22.7852 12.9611C22.8602 13.0531 22.9265 13.1522 22.9834 13.2571C23.0495 13.3778 23.1288 13.4825 23.261 13.5349C23.4372 13.6009 23.5936 13.5258 23.6377 13.3414C23.6641 13.2229 23.6663 13.1 23.6972 12.9838C23.7104 12.9338 23.7721 12.8632 23.8095 12.8654C23.8789 12.8705 23.9436 12.9032 23.9901 12.9565C24.0342 13.0089 24.054 13.0931 24.0584 13.166C24.0665 13.2866 24.0658 13.4076 24.0562 13.5281C24.0364 13.922 24.1223 14.2932 24.3404 14.6074C24.6488 15.0537 24.7413 15.5433 24.6995 16.0739C24.6907 16.2105 24.6907 16.3471 24.6863 16.4838C24.678 16.7739 24.7515 17.0603 24.8977 17.3081C24.966 17.4242 25.0343 17.5403 25.1048 17.6565C25.3075 17.998 25.4506 18.3601 25.4573 18.7677C25.4595 18.811 25.4793 18.8519 25.4969 18.9157C25.5762 18.9316 25.6599 18.959 25.7436 18.9567C25.9903 18.9567 26.0961 18.8679 26.1181 18.6106C26.1335 18.4011 26.1159 18.187 26.1071 17.9753C26.1027 17.9001 26.0741 17.8272 26.0675 17.7521C26.0322 17.4379 26.1357 17.2603 26.4155 17.1487C26.7614 17.0052 26.7592 17.0052 26.7614 16.6363C26.7627 15.9057 26.6266 15.1818 26.3604 14.505C26.1379 13.9402 26.1952 13.3755 26.2459 12.8017C26.2543 12.7571 26.2691 12.7141 26.2899 12.6742C26.3014 12.6506 26.318 12.63 26.3384 12.614C26.3587 12.598 26.3824 12.5871 26.4075 12.5821C26.4326 12.577 26.4585 12.578 26.4831 12.5848C26.5078 12.5917 26.5307 12.6044 26.5499 12.6218C26.5837 12.6507 26.6134 12.6844 26.638 12.722C26.6691 12.7737 26.6963 12.8277 26.7195 12.8837C26.8495 13.2002 27.0609 13.3664 27.4112 13.2913C27.4663 13.2776 27.5257 13.289 27.583 13.289C27.6403 13.289 27.6711 13.3391 27.691 13.3732C27.8253 13.6169 28.0126 13.7398 28.2968 13.7444C28.5259 13.7467 28.6228 13.9106 28.5214 14.1178C28.2483 14.6803 28.2307 15.2837 28.2108 15.8917C28.202 16.1786 28.1646 16.4655 28.1271 16.7479C28.0941 16.9893 28.1271 17.201 28.31 17.3718C28.4928 17.5426 28.7241 17.5836 28.951 17.4219C29.3167 17.1601 29.6295 16.8413 29.8255 16.42C29.9203 16.2151 30.004 16.0033 30.0855 15.7915C30.2595 15.3429 30.4291 14.8898 30.5988 14.4366C30.6516 14.2932 30.7221 14.1588 30.8521 14.0769C30.8983 14.0473 30.9666 14.0268 31.0151 14.0404C31.0636 14.0541 31.1274 14.1156 31.1803 14.1543C31.0768 14.3478 30.9754 14.5141 30.8983 14.6894C30.8741 14.7418 30.8983 14.8374 30.9336 14.8898C30.9688 14.9422 31.0503 14.9308 31.0944 14.908C31.2134 14.8522 31.3264 14.7835 31.4314 14.7031C31.5262 14.6302 31.5989 14.5323 31.6914 14.4594C31.8676 14.3228 32.0504 14.4025 32.0725 14.6234C32.0857 14.76 32.0769 14.8966 32.0879 15.0332C32.1099 15.2655 32.2046 15.3429 32.4403 15.3338C32.4976 15.3315 32.5549 15.3133 32.6144 15.3133C32.7443 15.311 32.8192 15.4454 32.7642 15.5706C32.7005 15.7086 32.5975 15.823 32.469 15.8985C32.2333 16.0511 32.3038 16.3562 32.5395 16.4838C32.7047 16.5748 32.8787 16.568 33.055 16.5498C33.3193 16.5225 33.5814 16.4997 33.8458 16.4792C33.9185 16.4769 33.9914 16.4792 34.0639 16.486C34.163 16.4883 34.2357 16.5361 34.2665 16.6295C34.2974 16.7229 34.3018 16.8526 34.2093 16.9232C33.9846 17.094 33.7533 17.2511 33.5198 17.4083C33.4493 17.4584 33.3545 17.4811 33.2973 17.5426C33.24 17.6041 33.2422 17.6815 33.2532 17.7476C33.2642 17.8136 33.3303 17.8455 33.3788 17.8523C33.5087 17.8705 33.6409 17.8591 33.7731 17.8751C33.8215 17.8819 33.8987 17.9229 33.9075 17.9639C33.9256 18.0338 33.9161 18.1084 33.881 18.1711C33.8017 18.2918 33.6673 18.3373 33.533 18.3328C33.1387 18.3214 32.8325 18.5172 32.5395 18.7586C32.3324 18.9248 32.1187 19.0865 31.8962 19.2345C31.5944 19.4394 31.4733 19.7127 31.5085 20.0861C31.5328 20.3548 31.546 20.6326 31.5107 20.8991C31.4557 21.2976 31.2596 21.6414 30.9931 21.9351C30.8939 22.0467 30.786 22.1492 30.6759 22.2517C30.2595 22.6342 29.9731 23.101 29.8322 23.6612C29.7903 23.8229 29.7352 23.98 29.7088 24.1439C29.6757 24.3443 29.7551 24.4582 29.9401 24.5242C30.2771 24.6403 30.5767 24.5675 30.8389 24.3238C30.8918 24.2709 30.9397 24.213 30.9821 24.1508C31.405 23.5678 31.9645 23.1557 32.5703 22.8073C32.6075 22.7821 32.6497 22.7658 32.6937 22.7595C32.7333 22.7595 32.7862 22.7731 32.8082 22.8004C32.8303 22.8278 32.8413 22.8938 32.8236 22.9211C32.7421 23.0464 32.6518 23.1648 32.5615 23.2832C32.5086 23.3561 32.4448 23.4221 32.3963 23.495C32.3478 23.5678 32.3588 23.6931 32.4293 23.7409C32.4998 23.7887 32.6034 23.8069 32.6739 23.7432C32.7443 23.6794 32.8545 23.5451 32.947 23.4494C33.0395 23.3538 33.077 23.3356 33.1453 23.2764C33.1783 23.3151 33.2069 23.3333 33.2114 23.3583C33.2378 23.4562 33.2246 23.5815 33.3634 23.602C33.5021 23.6225 33.5616 23.5564 33.6321 23.4745C33.7026 23.3925 33.7995 23.2627 33.8876 23.1602C33.9449 23.0942 34.0044 23.0213 34.0749 22.9758C34.1454 22.9302 34.2004 22.9553 34.2335 22.9849C34.2665 23.0145 34.293 23.1056 34.2731 23.1443C34.2308 23.2395 34.1701 23.3247 34.0947 23.3948C34.0308 23.4517 33.9383 23.4722 33.8612 23.5155C33.8232 23.5379 33.791 23.5693 33.7671 23.6072C33.7432 23.645 33.7284 23.6882 33.7239 23.7332C33.7194 23.7781 33.7253 23.8235 33.7411 23.8657C33.7569 23.9078 33.7823 23.9454 33.8149 23.9754C33.844 23.9958 33.8768 24.0097 33.9113 24.0164C33.9458 24.023 33.9812 24.0223 34.0154 24.0141C34.1123 23.9823 34.1916 23.9071 34.2864 23.8638C34.3645 23.8248 34.4488 23.8009 34.5353 23.7933C34.5815 23.791 34.6498 23.8365 34.6719 23.8798C34.6939 23.9231 34.6851 24.0096 34.6542 24.0392C34.5832 24.1135 34.4995 24.1736 34.4075 24.2168C34.1388 24.3398 33.8678 24.4559 33.5925 24.5606C32.8435 24.8498 32.154 25.2392 31.524 25.7538C30.9468 26.2252 30.2749 26.4802 29.5458 26.5645C29.2242 26.6009 28.9025 26.6237 28.5809 26.6351C28.3276 26.6442 28.1293 26.7376 27.9751 26.9448C27.724 27.2818 27.4707 27.6165 27.2085 27.9444C26.8032 28.4522 26.7085 29.0215 26.8517 29.6522C26.9477 30.0813 27.0942 30.4965 27.2878 30.8887L27.7064 31.7404C27.8319 32.0045 27.9046 32.2869 27.8694 32.5783C27.8342 32.8698 27.909 33.1453 28.1095 33.373C28.1271 33.3935 28.1293 33.43 28.1514 33.5028ZM28.8607 22.2357C29.0303 22.6547 28.9863 22.7822 28.6382 22.9189C28.5545 22.9507 28.4708 22.9735 28.3893 23.0054C27.8694 23.2058 27.4288 23.5268 27.0918 23.9823C26.6798 24.5447 26.4728 25.1777 26.519 25.8905C26.5345 26.1182 26.5807 26.3322 26.7283 26.5326C26.9971 26.4802 27.1821 26.3254 27.3429 26.1205C27.6425 25.747 27.9509 25.3827 28.2483 25.0092C28.473 24.7291 28.6955 24.4491 28.9003 24.1553C29.1052 23.8616 29.3079 23.4881 29.4224 23.1101C29.537 22.7321 29.526 22.3018 29.3145 21.9283C29.1515 21.6391 28.8937 21.5275 28.6052 21.646C28.3166 21.7644 28.1117 21.9693 27.9685 22.2448C27.9002 22.3746 27.9399 22.5226 28.0478 22.6114C28.1558 22.7002 28.2373 22.6775 28.3672 22.5773C28.4972 22.4771 28.6316 22.2949 28.8607 22.2357ZM27.528 17.5221C27.4993 17.5221 27.4795 17.5153 27.4729 17.5221C27.4288 17.5608 27.3782 17.595 27.3451 17.6428C27.0896 18.0162 26.9001 18.4216 26.801 18.8702C26.6336 19.6375 26.4552 20.4004 26.2899 21.1678C26.2291 21.448 26.1835 21.7316 26.1534 22.0171C26.1243 22.3047 26.1629 22.5953 26.2657 22.8642C26.3142 22.9849 26.3891 23.0782 26.5168 23.0919C26.6446 23.1056 26.7812 23.0327 26.834 22.8961C26.8833 22.7713 26.9124 22.639 26.92 22.5044C26.931 22.2494 26.9178 21.9921 26.9178 21.7348C26.92 21.334 26.9905 20.9514 27.2019 20.6076C27.2834 20.4755 27.3231 20.3366 27.2922 20.1772C27.2306 19.8744 27.2746 19.5783 27.3495 19.28C27.469 18.8124 27.5471 18.3345 27.583 17.8523C27.5918 17.7362 27.6227 17.6109 27.528 17.5221ZM28.7373 20.3822C28.8827 20.3275 28.9422 20.3161 28.9907 20.2865C29.5215 19.9609 30.0238 19.5966 30.4688 19.1525C30.9138 18.7085 31.2244 18.269 31.4755 17.7316C31.5967 17.4743 31.7112 17.2124 31.8258 16.9506C31.8852 16.8117 31.8654 16.7024 31.7729 16.6227C31.6804 16.543 31.5372 16.5225 31.416 16.6272C31.2949 16.732 31.1561 16.8709 31.0173 16.9802C30.7507 17.1965 30.504 17.4356 30.3146 17.7271C30.1031 18.0527 29.9004 18.3851 29.711 18.7267C29.44 19.2117 29.1845 19.7059 28.8475 20.1476C28.8144 20.1909 28.799 20.2478 28.7373 20.3822ZM21.763 21.9556C21.7917 22.1128 21.7851 22.1947 21.8203 22.2494C21.9239 22.4111 22.0318 22.5773 22.164 22.7162C22.371 22.9325 22.5473 23.1693 22.7169 23.4175C22.903 23.6887 23.1092 23.9445 23.3337 24.1826C23.5936 24.4605 23.9197 24.6358 24.2765 24.7451C24.4726 24.8043 24.6686 24.8589 24.8669 24.9159C24.9726 24.9455 25.0673 24.8908 25.1114 24.7815C25.1321 24.7324 25.1377 24.6779 25.1274 24.6253C25.1172 24.5728 25.0916 24.5248 25.0541 24.4878C24.9595 24.3945 24.8553 24.312 24.7435 24.2418C24.3404 23.9823 23.9901 23.6635 23.7236 23.2559C23.2676 22.5636 22.5759 22.2539 21.763 21.9556Z" fill="#F9F6EC"/>
</svg>
