<svg width="379" height="592" viewBox="0 0 379 592" fill="none" xmlns="http://www.w3.org/2000/svg">
<path d="M21.3838 580L23.3678 568.8H30.4558L30.1518 570.512H25.2238L24.6958 573.552H28.5998L28.2958 575.216H24.3918L23.5438 580H21.3838Z" fill="black"/>
<path d="M30.0393 580L32.0713 568.48H34.2313L32.1993 580H30.0393Z" fill="black"/>
<path d="M38.1769 580.192C37.4409 580.192 36.8062 580.048 36.2729 579.76C35.7502 579.461 35.3502 579.045 35.0729 578.512C34.7956 577.968 34.6729 577.339 34.7049 576.624C34.7262 575.952 34.8596 575.328 35.1049 574.752C35.3609 574.165 35.7076 573.648 36.1449 573.2C36.5822 572.752 37.0942 572.405 37.6809 572.16C38.2782 571.904 38.9342 571.776 39.6489 571.776C40.3742 571.776 40.9929 571.92 41.5049 572.208C42.0169 572.496 42.4009 572.896 42.6569 573.408C42.9129 573.92 43.0302 574.501 43.0089 575.152C42.9982 575.387 42.9716 575.627 42.9289 575.872C42.8862 576.107 42.8382 576.32 42.7849 576.512H36.2409L36.4649 575.184H40.8649C40.8969 574.832 40.8542 574.533 40.7369 574.288C40.6196 574.043 40.4382 573.856 40.1929 573.728C39.9582 573.589 39.6809 573.52 39.3609 573.52C38.9876 573.52 38.6302 573.605 38.2889 573.776C37.9582 573.947 37.6702 574.203 37.4249 574.544C37.1902 574.875 37.0302 575.296 36.9449 575.808L36.8649 576.272C36.7902 576.699 36.8009 577.072 36.8969 577.392C37.0036 577.712 37.1902 577.968 37.4569 578.16C37.7236 578.341 38.0596 578.432 38.4649 578.432C38.8596 578.432 39.2009 578.347 39.4889 578.176C39.7876 578.005 40.0276 577.781 40.2089 577.504H42.4009C42.1662 578.016 41.8356 578.475 41.4089 578.88C40.9822 579.285 40.4916 579.605 39.9369 579.84C39.3929 580.075 38.8062 580.192 38.1769 580.192Z" fill="black"/>
<path d="M42.9435 580L46.5595 575.968L44.3675 571.968H46.6875L48.1435 574.72L50.5595 571.968H52.8795L49.2795 576L51.4555 580H49.1515L47.6955 577.232L45.2795 580H42.9435Z" fill="black"/>
<path d="M56.7722 580.192C55.9722 580.192 55.2735 580.053 54.6762 579.776C54.0788 579.499 53.6362 579.099 53.3482 578.576C53.0602 578.043 52.9695 577.392 53.0762 576.624H55.3802C55.3162 576.976 55.3482 577.285 55.4762 577.552C55.6042 577.819 55.8068 578.027 56.0842 578.176C56.3615 578.315 56.6868 578.384 57.0602 578.384C57.4442 578.384 57.7748 578.32 58.0522 578.192C58.3295 578.053 58.5428 577.867 58.6922 577.632C58.8522 577.397 58.9375 577.125 58.9482 576.816C58.9588 576.592 58.9215 576.4 58.8362 576.24C58.7508 576.069 58.6228 575.92 58.4522 575.792C58.2815 575.664 58.0842 575.552 57.8602 575.456C57.6468 575.349 57.4068 575.253 57.1402 575.168C56.8842 575.072 56.6228 574.976 56.3562 574.88C55.6095 574.624 55.0442 574.267 54.6602 573.808C54.2762 573.349 54.1002 572.795 54.1322 572.144C54.1535 571.429 54.3508 570.811 54.7242 570.288C55.1082 569.755 55.6255 569.344 56.2762 569.056C56.9375 568.757 57.6788 568.608 58.5002 568.608C59.2362 568.608 59.8708 568.736 60.4042 568.992C60.9375 569.248 61.3322 569.621 61.5882 570.112C61.8548 570.592 61.9455 571.173 61.8602 571.856H59.5402C59.5828 571.568 59.5508 571.317 59.4442 571.104C59.3375 570.891 59.1668 570.725 58.9322 570.608C58.7082 570.491 58.4415 570.432 58.1322 570.432C57.8015 570.421 57.5135 570.475 57.2682 570.592C57.0228 570.709 56.8255 570.875 56.6762 571.088C56.5375 571.291 56.4628 571.531 56.4522 571.808C56.4415 572 56.4735 572.171 56.5482 572.32C56.6228 572.459 56.7295 572.587 56.8682 572.704C57.0068 572.811 57.1722 572.912 57.3642 573.008C57.5668 573.093 57.7855 573.179 58.0202 573.264C58.2548 573.349 58.5002 573.44 58.7562 573.536C59.1188 573.664 59.4548 573.819 59.7642 574C60.0735 574.171 60.3455 574.379 60.5802 574.624C60.8255 574.859 61.0068 575.136 61.1242 575.456C61.2522 575.776 61.3108 576.144 61.3002 576.56C61.2788 577.275 61.0708 577.904 60.6762 578.448C60.2922 578.992 59.7642 579.419 59.0922 579.728C58.4202 580.037 57.6468 580.192 56.7722 580.192Z" fill="black"/>
<path d="M66.3957 580.192C65.6597 580.192 65.025 580.048 64.4917 579.76C63.969 579.461 63.569 579.045 63.2917 578.512C63.0143 577.968 62.8917 577.339 62.9237 576.624C62.945 575.952 63.0783 575.328 63.3237 574.752C63.5797 574.165 63.9263 573.648 64.3637 573.2C64.801 572.752 65.313 572.405 65.8997 572.16C66.497 571.904 67.153 571.776 67.8677 571.776C68.593 571.776 69.2117 571.92 69.7237 572.208C70.2357 572.496 70.6197 572.896 70.8757 573.408C71.1317 573.92 71.249 574.501 71.2277 575.152C71.217 575.387 71.1903 575.627 71.1477 575.872C71.105 576.107 71.057 576.32 71.0037 576.512H64.4597L64.6837 575.184H69.0837C69.1157 574.832 69.073 574.533 68.9557 574.288C68.8383 574.043 68.657 573.856 68.4117 573.728C68.177 573.589 67.8997 573.52 67.5797 573.52C67.2063 573.52 66.849 573.605 66.5077 573.776C66.177 573.947 65.889 574.203 65.6437 574.544C65.409 574.875 65.249 575.296 65.1637 575.808L65.0837 576.272C65.009 576.699 65.0197 577.072 65.1157 577.392C65.2223 577.712 65.409 577.968 65.6757 578.16C65.9423 578.341 66.2783 578.432 66.6837 578.432C67.0783 578.432 67.4197 578.347 67.7077 578.176C68.0063 578.005 68.2463 577.781 68.4277 577.504H70.6197C70.385 578.016 70.0543 578.475 69.6277 578.88C69.201 579.285 68.7103 579.605 68.1557 579.84C67.6117 580.075 67.025 580.192 66.3957 580.192Z" fill="black"/>
<path d="M74.8679 580.192C74.2599 580.192 73.7639 580.096 73.3799 579.904C72.9959 579.712 72.7132 579.451 72.5319 579.12C72.3612 578.779 72.2866 578.405 72.3079 578C72.3186 577.445 72.4839 576.965 72.8039 576.56C73.1346 576.155 73.5879 575.84 74.1639 575.616C74.7506 575.392 75.4386 575.28 76.2279 575.28H78.2119C78.2759 574.885 78.2759 574.56 78.2119 574.304C78.1586 574.037 78.0306 573.845 77.8279 573.728C77.6252 573.6 77.3372 573.536 76.9639 573.536C76.5692 573.536 76.2119 573.627 75.8919 573.808C75.5719 573.979 75.3479 574.245 75.2199 574.608H73.1079C73.2679 574.032 73.5452 573.536 73.9399 573.12C74.3452 572.693 74.8306 572.363 75.3959 572.128C75.9719 571.893 76.6012 571.776 77.2839 571.776C78.0412 571.776 78.6706 571.904 79.1719 572.16C79.6839 572.416 80.0466 572.789 80.2599 573.28C80.4839 573.76 80.5319 574.341 80.4039 575.024L79.5399 580H77.6359L77.6679 578.8C77.5186 578.992 77.3479 579.179 77.1559 579.36C76.9639 579.531 76.7506 579.68 76.5159 579.808C76.2812 579.925 76.0252 580.016 75.7479 580.08C75.4812 580.155 75.1879 580.192 74.8679 580.192ZM75.6679 578.528C75.9452 578.528 76.2012 578.48 76.4359 578.384C76.6812 578.277 76.8999 578.139 77.0919 577.968C77.2946 577.787 77.4599 577.584 77.5879 577.36C77.7266 577.125 77.8226 576.88 77.8759 576.624V576.608H76.2279C75.9079 576.608 75.6252 576.656 75.3799 576.752C75.1452 576.837 74.9639 576.965 74.8359 577.136C74.7079 577.296 74.6439 577.488 74.6439 577.712C74.6332 577.979 74.7186 578.181 74.8999 578.32C75.0919 578.459 75.3479 578.528 75.6679 578.528Z" fill="black"/>
<path d="M86.7467 580V568.8H90.6827C91.472 568.8 92.1227 568.928 92.6347 569.184C93.1573 569.429 93.5467 569.771 93.8027 570.208C94.0587 570.635 94.1867 571.115 94.1867 571.648C94.1867 572.224 94.0587 572.704 93.8027 573.088C93.5573 573.472 93.232 573.765 92.8267 573.968C92.432 574.171 92.0107 574.293 91.5627 574.336L91.7867 574.176C92.2667 574.187 92.7093 574.315 93.1147 574.56C93.52 574.805 93.84 575.136 94.0747 575.552C94.32 575.968 94.4427 576.432 94.4427 576.944C94.4427 577.509 94.304 578.027 94.0267 578.496C93.7493 578.955 93.3387 579.323 92.7947 579.6C92.2613 579.867 91.6 580 90.8107 580H86.7467ZM88.0907 578.88H90.6667C91.424 578.88 92.0107 578.704 92.4267 578.352C92.8533 577.989 93.0667 577.488 93.0667 576.848C93.0667 576.219 92.848 575.717 92.4107 575.344C91.984 574.96 91.392 574.768 90.6347 574.768H88.0907V578.88ZM88.0907 573.696H90.5867C91.312 573.696 91.8613 573.525 92.2347 573.184C92.6187 572.843 92.8107 572.379 92.8107 571.792C92.8107 571.227 92.6187 570.773 92.2347 570.432C91.8613 570.091 91.296 569.92 90.5387 569.92H88.0907V573.696Z" fill="black"/>
<path d="M96.4353 580V571.968H97.7793V580H96.4353ZM97.1073 570.24C96.8406 570.24 96.6166 570.155 96.4353 569.984C96.2646 569.803 96.1793 569.579 96.1793 569.312C96.1793 569.045 96.2646 568.832 96.4353 568.672C96.6166 568.501 96.8406 568.416 97.1073 568.416C97.3633 568.416 97.582 568.501 97.7633 568.672C97.9446 568.832 98.0353 569.045 98.0353 569.312C98.0353 569.579 97.9446 569.803 97.7633 569.984C97.582 570.155 97.3633 570.24 97.1073 570.24Z" fill="black"/>
<path d="M103.735 580.192C102.989 580.192 102.317 580.021 101.719 579.68C101.122 579.328 100.647 578.837 100.295 578.208C99.9541 577.579 99.7834 576.837 99.7834 575.984C99.7834 575.131 99.9594 574.389 100.311 573.76C100.663 573.131 101.138 572.645 101.735 572.304C102.343 571.952 103.021 571.776 103.767 571.776C104.525 571.776 105.202 571.952 105.799 572.304C106.397 572.645 106.866 573.131 107.207 573.76C107.549 574.389 107.719 575.131 107.719 575.984C107.719 576.837 107.543 577.579 107.191 578.208C106.85 578.837 106.375 579.328 105.767 579.68C105.17 580.021 104.493 580.192 103.735 580.192ZM103.735 579.04C104.205 579.04 104.637 578.928 105.031 578.704C105.426 578.469 105.741 578.128 105.975 577.68C106.221 577.221 106.343 576.656 106.343 575.984C106.343 575.301 106.226 574.736 105.991 574.288C105.757 573.84 105.442 573.504 105.047 573.28C104.653 573.045 104.226 572.928 103.767 572.928C103.319 572.928 102.893 573.045 102.487 573.28C102.093 573.504 101.773 573.84 101.527 574.288C101.282 574.736 101.159 575.301 101.159 575.984C101.159 576.656 101.282 577.221 101.527 577.68C101.773 578.128 102.087 578.469 102.471 578.704C102.866 578.928 103.287 579.04 103.735 579.04Z" fill="black"/>
<path d="M112.459 580C111.979 580 111.563 579.925 111.211 579.776C110.859 579.627 110.587 579.376 110.395 579.024C110.214 578.661 110.123 578.176 110.123 577.568V573.104H108.731V571.968H110.123L110.299 570.032H111.467V571.968H113.819V573.104H111.467V577.568C111.467 578.069 111.569 578.411 111.771 578.592C111.974 578.763 112.331 578.848 112.843 578.848H113.707V580H112.459Z" fill="black"/>
<path d="M118.875 580.192C118.128 580.192 117.461 580.016 116.875 579.664C116.288 579.312 115.824 578.821 115.483 578.192C115.152 577.563 114.987 576.827 114.987 575.984C114.987 575.131 115.152 574.395 115.483 573.776C115.813 573.147 116.272 572.656 116.859 572.304C117.456 571.952 118.139 571.776 118.907 571.776C119.696 571.776 120.368 571.952 120.923 572.304C121.477 572.656 121.899 573.115 122.187 573.68C122.485 574.245 122.635 574.869 122.635 575.552C122.635 575.659 122.635 575.771 122.635 575.888C122.635 576.005 122.629 576.139 122.619 576.288H115.995V575.248H121.307C121.275 574.512 121.029 573.941 120.571 573.536C120.123 573.12 119.557 572.912 118.875 572.912C118.427 572.912 118.005 573.019 117.611 573.232C117.216 573.435 116.896 573.733 116.651 574.128C116.416 574.523 116.299 575.019 116.299 575.616V576.064C116.299 576.725 116.421 577.28 116.667 577.728C116.912 578.165 117.227 578.496 117.611 578.72C118.005 578.944 118.427 579.056 118.875 579.056C119.44 579.056 119.904 578.933 120.267 578.688C120.64 578.432 120.912 578.085 121.083 577.648H122.411C122.272 578.139 122.043 578.576 121.723 578.96C121.403 579.333 121.003 579.632 120.523 579.856C120.053 580.08 119.504 580.192 118.875 580.192Z" fill="black"/>
<path d="M128.064 580.192C127.307 580.192 126.624 580.016 126.016 579.664C125.419 579.312 124.944 578.821 124.592 578.192C124.251 577.563 124.08 576.827 124.08 575.984C124.08 575.141 124.251 574.405 124.592 573.776C124.944 573.147 125.419 572.656 126.016 572.304C126.624 571.952 127.307 571.776 128.064 571.776C129.024 571.776 129.824 572.027 130.464 572.528C131.104 573.019 131.51 573.68 131.68 574.512H130.304C130.198 574.011 129.936 573.621 129.52 573.344C129.104 573.067 128.614 572.928 128.048 572.928C127.59 572.928 127.163 573.045 126.768 573.28C126.384 573.504 126.07 573.845 125.824 574.304C125.579 574.752 125.456 575.312 125.456 575.984C125.456 576.485 125.526 576.928 125.664 577.312C125.814 577.696 126.006 578.021 126.24 578.288C126.475 578.544 126.747 578.736 127.056 578.864C127.376 578.992 127.707 579.056 128.048 579.056C128.432 579.056 128.779 578.997 129.088 578.88C129.398 578.752 129.659 578.571 129.872 578.336C130.086 578.091 130.23 577.797 130.304 577.456H131.68C131.51 578.277 131.099 578.939 130.448 579.44C129.808 579.941 129.014 580.192 128.064 580.192Z" fill="black"/>
<path d="M133.557 580V568.48H134.901V573.328C135.178 572.837 135.557 572.459 136.037 572.192C136.517 571.915 137.05 571.776 137.637 571.776C138.256 571.776 138.789 571.904 139.237 572.16C139.696 572.405 140.048 572.784 140.293 573.296C140.549 573.808 140.677 574.453 140.677 575.232V580H139.349V575.376C139.349 574.565 139.178 573.957 138.837 573.552C138.496 573.136 138 572.928 137.349 572.928C136.89 572.928 136.474 573.04 136.101 573.264C135.738 573.477 135.445 573.797 135.221 574.224C135.008 574.64 134.901 575.152 134.901 575.76V580H133.557Z" fill="black"/>
<path d="M142.744 580V571.968H143.96L144.04 573.376C144.296 572.875 144.659 572.485 145.128 572.208C145.608 571.92 146.152 571.776 146.76 571.776C147.39 571.776 147.934 571.899 148.392 572.144C148.851 572.389 149.208 572.768 149.464 573.28C149.72 573.792 149.848 574.437 149.848 575.216V580H148.504V575.36C148.504 574.549 148.328 573.941 147.976 573.536C147.624 573.131 147.118 572.928 146.456 572.928C146.008 572.928 145.603 573.04 145.24 573.264C144.888 573.477 144.606 573.792 144.392 574.208C144.19 574.624 144.088 575.131 144.088 575.728V580H142.744Z" fill="black"/>
<path d="M155.532 580.192C154.786 580.192 154.114 580.021 153.516 579.68C152.919 579.328 152.444 578.837 152.092 578.208C151.751 577.579 151.58 576.837 151.58 575.984C151.58 575.131 151.756 574.389 152.108 573.76C152.46 573.131 152.935 572.645 153.532 572.304C154.14 571.952 154.818 571.776 155.564 571.776C156.322 571.776 156.999 571.952 157.596 572.304C158.194 572.645 158.663 573.131 159.004 573.76C159.346 574.389 159.516 575.131 159.516 575.984C159.516 576.837 159.34 577.579 158.988 578.208C158.647 578.837 158.172 579.328 157.564 579.68C156.967 580.021 156.29 580.192 155.532 580.192ZM155.532 579.04C156.002 579.04 156.434 578.928 156.828 578.704C157.223 578.469 157.538 578.128 157.772 577.68C158.018 577.221 158.14 576.656 158.14 575.984C158.14 575.301 158.023 574.736 157.788 574.288C157.554 573.84 157.239 573.504 156.844 573.28C156.45 573.045 156.023 572.928 155.564 572.928C155.116 572.928 154.69 573.045 154.284 573.28C153.89 573.504 153.57 573.84 153.324 574.288C153.079 574.736 152.956 575.301 152.956 575.984C152.956 576.656 153.079 577.221 153.324 577.68C153.57 578.128 153.884 578.469 154.268 578.704C154.663 578.928 155.084 579.04 155.532 579.04Z" fill="black"/>
<path d="M161.401 580V568.48H162.745V580H161.401Z" fill="black"/>
<path d="M168.579 580.192C167.832 580.192 167.161 580.021 166.563 579.68C165.966 579.328 165.491 578.837 165.139 578.208C164.798 577.579 164.627 576.837 164.627 575.984C164.627 575.131 164.803 574.389 165.155 573.76C165.507 573.131 165.982 572.645 166.579 572.304C167.187 571.952 167.864 571.776 168.611 571.776C169.368 571.776 170.046 571.952 170.643 572.304C171.24 572.645 171.71 573.131 172.051 573.76C172.393 574.389 172.563 575.131 172.563 575.984C172.563 576.837 172.387 577.579 172.035 578.208C171.694 578.837 171.219 579.328 170.611 579.68C170.014 580.021 169.337 580.192 168.579 580.192ZM168.579 579.04C169.048 579.04 169.48 578.928 169.875 578.704C170.27 578.469 170.585 578.128 170.819 577.68C171.064 577.221 171.187 576.656 171.187 575.984C171.187 575.301 171.07 574.736 170.835 574.288C170.6 573.84 170.286 573.504 169.891 573.28C169.496 573.045 169.07 572.928 168.611 572.928C168.163 572.928 167.736 573.045 167.331 573.28C166.936 573.504 166.617 573.84 166.371 574.288C166.126 574.736 166.003 575.301 166.003 575.984C166.003 576.656 166.126 577.221 166.371 577.68C166.617 578.128 166.931 578.469 167.315 578.704C167.71 578.928 168.131 579.04 168.579 579.04Z" fill="black"/>
<path d="M177.288 583.712C176.562 583.712 175.922 583.616 175.368 583.424C174.813 583.243 174.381 582.96 174.072 582.576C173.762 582.192 173.608 581.717 173.608 581.152C173.608 580.907 173.656 580.645 173.752 580.368C173.858 580.101 174.034 579.835 174.28 579.568C174.536 579.301 174.893 579.061 175.352 578.848L176.264 579.392C175.709 579.627 175.346 579.893 175.176 580.192C175.005 580.491 174.92 580.768 174.92 581.024C174.92 581.376 175.021 581.669 175.224 581.904C175.426 582.139 175.704 582.315 176.056 582.432C176.418 582.549 176.829 582.608 177.288 582.608C177.746 582.608 178.141 582.539 178.472 582.4C178.802 582.272 179.058 582.091 179.24 581.856C179.421 581.632 179.512 581.36 179.512 581.04C179.512 580.677 179.373 580.368 179.096 580.112C178.818 579.867 178.296 579.723 177.528 579.68C176.888 579.637 176.354 579.579 175.928 579.504C175.512 579.429 175.165 579.344 174.888 579.248C174.61 579.141 174.376 579.024 174.184 578.896C174.002 578.768 173.837 578.635 173.688 578.496V578.128L175.24 576.576L176.408 576.992L174.808 578.448L175.016 577.888C175.133 577.973 175.245 578.053 175.352 578.128C175.458 578.192 175.602 578.251 175.784 578.304C175.965 578.357 176.216 578.411 176.536 578.464C176.856 578.507 177.288 578.549 177.832 578.592C178.557 578.645 179.138 578.773 179.576 578.976C180.024 579.179 180.344 579.451 180.536 579.792C180.738 580.133 180.84 580.533 180.84 580.992C180.84 581.451 180.712 581.883 180.456 582.288C180.21 582.704 179.826 583.045 179.304 583.312C178.781 583.579 178.109 583.712 177.288 583.712ZM177.272 577.472C176.6 577.472 176.029 577.349 175.56 577.104C175.09 576.848 174.733 576.507 174.488 576.08C174.242 575.643 174.12 575.157 174.12 574.624C174.12 574.091 174.242 573.611 174.488 573.184C174.733 572.757 175.09 572.416 175.56 572.16C176.029 571.904 176.6 571.776 177.272 571.776C177.954 571.776 178.53 571.904 179 572.16C179.469 572.416 179.826 572.757 180.072 573.184C180.317 573.611 180.44 574.091 180.44 574.624C180.44 575.157 180.317 575.643 180.072 576.08C179.826 576.507 179.469 576.848 179 577.104C178.53 577.349 177.954 577.472 177.272 577.472ZM177.272 576.368C177.848 576.368 178.301 576.224 178.632 575.936C178.973 575.637 179.144 575.2 179.144 574.624C179.144 574.069 178.973 573.643 178.632 573.344C178.301 573.045 177.848 572.896 177.272 572.896C176.706 572.896 176.253 573.045 175.912 573.344C175.57 573.643 175.4 574.069 175.4 574.624C175.4 575.2 175.57 575.637 175.912 575.936C176.253 576.224 176.706 576.368 177.272 576.368ZM178.584 573.104L178.184 571.968H181.48V572.976L178.584 573.104Z" fill="black"/>
<path d="M183.89 583.52L185.858 579.104H185.394L182.242 571.968H183.698L186.322 578.096L189.09 571.968H190.482L185.298 583.52H183.89Z" fill="black"/>
<path d="M286.481 539.504C284.605 539.504 282.883 539.168 281.315 538.496C279.775 537.796 278.543 536.76 277.619 535.388C276.723 533.988 276.247 532.238 276.191 530.138H280.391C280.419 531.202 280.671 532.168 281.147 533.036C281.623 533.904 282.309 534.604 283.205 535.136C284.129 535.64 285.221 535.892 286.481 535.892C287.741 535.892 288.791 535.654 289.631 535.178C290.499 534.702 291.143 534.058 291.563 533.246C292.011 532.434 292.235 531.524 292.235 530.516C292.235 529.256 291.927 528.234 291.311 527.45C290.723 526.638 289.911 526.036 288.875 525.644C287.867 525.224 286.733 525.014 285.473 525.014H283.289V521.528H285.473C287.209 521.528 288.595 521.122 289.631 520.31C290.667 519.498 291.185 518.364 291.185 516.908C291.185 515.676 290.779 514.668 289.967 513.884C289.183 513.1 288.021 512.708 286.481 512.708C284.941 512.708 283.723 513.156 282.827 514.052C281.931 514.948 281.427 516.082 281.315 517.454H277.115C277.199 515.802 277.633 514.346 278.417 513.086C279.229 511.798 280.321 510.818 281.693 510.146C283.065 509.446 284.661 509.096 286.481 509.096C288.413 509.096 290.037 509.446 291.353 510.146C292.669 510.818 293.663 511.728 294.335 512.876C295.035 514.024 295.385 515.27 295.385 516.614C295.385 517.65 295.189 518.616 294.797 519.512C294.405 520.38 293.859 521.136 293.159 521.78C292.459 522.424 291.591 522.872 290.555 523.124C291.675 523.348 292.669 523.796 293.537 524.468C294.433 525.112 295.133 525.952 295.637 526.988C296.169 528.024 296.435 529.214 296.435 530.558C296.435 532.154 296.057 533.638 295.301 535.01C294.545 536.354 293.425 537.446 291.941 538.286C290.485 539.098 288.665 539.504 286.481 539.504Z" fill="black"/>
<path d="M312.133 539.504C309.473 539.504 307.191 538.874 305.287 537.614C303.383 536.326 301.913 534.548 300.877 532.28C299.869 529.984 299.365 527.324 299.365 524.3C299.365 521.276 299.869 518.63 300.877 516.362C301.913 514.066 303.383 512.288 305.287 511.028C307.191 509.74 309.473 509.096 312.133 509.096C314.793 509.096 317.061 509.74 318.937 511.028C320.841 512.288 322.297 514.066 323.305 516.362C324.341 518.63 324.859 521.276 324.859 524.3C324.859 527.324 324.341 529.984 323.305 532.28C322.297 534.548 320.841 536.326 318.937 537.614C317.061 538.874 314.793 539.504 312.133 539.504ZM312.133 535.766C313.757 535.766 315.199 535.304 316.459 534.38C317.747 533.456 318.741 532.14 319.441 530.432C320.169 528.724 320.533 526.68 320.533 524.3C320.533 521.92 320.169 519.876 319.441 518.168C318.741 516.46 317.747 515.158 316.459 514.262C315.199 513.338 313.757 512.876 312.133 512.876C310.481 512.876 309.011 513.338 307.723 514.262C306.463 515.158 305.469 516.46 304.741 518.168C304.013 519.876 303.649 521.92 303.649 524.3C303.649 526.68 304.013 528.724 304.741 530.432C305.469 532.14 306.463 533.456 307.723 534.38C309.011 535.304 310.481 535.766 312.133 535.766Z" fill="black"/>
<path d="M332.66 539L349.586 509.6H353.744L336.818 539H332.66ZM351.77 539.504C350.454 539.504 349.278 539.21 348.242 538.622C347.206 538.034 346.38 537.208 345.764 536.144C345.148 535.052 344.84 533.778 344.84 532.322C344.84 530.81 345.148 529.522 345.764 528.458C346.38 527.394 347.206 526.568 348.242 525.98C349.278 525.392 350.44 525.098 351.728 525.098C353.072 525.098 354.248 525.392 355.256 525.98C356.292 526.568 357.104 527.394 357.692 528.458C358.308 529.522 358.616 530.81 358.616 532.322C358.616 533.778 358.308 535.052 357.692 536.144C357.104 537.208 356.292 538.034 355.256 538.622C354.22 539.21 353.058 539.504 351.77 539.504ZM351.686 536.396C352.33 536.396 352.904 536.242 353.408 535.934C353.94 535.626 354.36 535.178 354.668 534.59C355.004 533.974 355.172 533.204 355.172 532.28C355.172 531.356 355.018 530.6 354.71 530.012C354.402 529.396 353.982 528.934 353.45 528.626C352.946 528.318 352.372 528.164 351.728 528.164C351.14 528.164 350.58 528.318 350.048 528.626C349.516 528.934 349.082 529.396 348.746 530.012C348.438 530.6 348.284 531.356 348.284 532.28C348.284 533.204 348.438 533.974 348.746 534.59C349.082 535.178 349.502 535.626 350.006 535.934C350.538 536.242 351.098 536.396 351.686 536.396ZM334.928 523.544C333.612 523.544 332.436 523.25 331.4 522.662C330.364 522.074 329.538 521.248 328.922 520.184C328.306 519.092 327.998 517.804 327.998 516.32C327.998 514.836 328.306 513.562 328.922 512.498C329.538 511.434 330.364 510.608 331.4 510.02C332.464 509.432 333.64 509.138 334.928 509.138C336.244 509.138 337.406 509.432 338.414 510.02C339.45 510.608 340.276 511.434 340.892 512.498C341.508 513.562 341.816 514.836 341.816 516.32C341.816 517.804 341.508 519.092 340.892 520.184C340.276 521.248 339.45 522.074 338.414 522.662C337.378 523.25 336.216 523.544 334.928 523.544ZM334.886 520.436C335.53 520.436 336.104 520.282 336.608 519.974C337.14 519.666 337.56 519.218 337.868 518.63C338.176 518.014 338.33 517.244 338.33 516.32C338.33 515.396 338.176 514.626 337.868 514.01C337.56 513.394 337.14 512.932 336.608 512.624C336.104 512.316 335.544 512.162 334.928 512.162C334.312 512.162 333.738 512.316 333.206 512.624C332.674 512.932 332.24 513.394 331.904 514.01C331.596 514.626 331.442 515.396 331.442 516.32C331.442 517.216 331.596 517.972 331.904 518.588C332.24 519.204 332.674 519.666 333.206 519.974C333.738 520.282 334.298 520.436 334.886 520.436Z" fill="black"/>
<path d="M252.102 538.709H243.702L243.702 535.709C243.702 534.837 243.902 534.177 244.302 533.729C244.702 533.281 245.218 533.057 245.85 533.057C246.338 533.057 246.734 533.185 247.038 533.441C247.342 533.697 247.562 533.993 247.698 534.329H247.782C247.926 533.929 248.162 533.585 248.49 533.297C248.81 533.009 249.234 532.865 249.762 532.865C250.194 532.865 250.59 532.973 250.95 533.189C251.302 533.397 251.582 533.705 251.79 534.113C251.998 534.521 252.102 535.021 252.102 535.613V538.709ZM247.206 537.437V535.865C247.206 535.377 247.11 535.005 246.918 534.749C246.718 534.493 246.418 534.365 246.018 534.365C245.226 534.365 244.83 534.873 244.83 535.889L244.83 537.437H247.206ZM250.926 537.437V535.781C250.926 535.261 250.814 534.861 250.59 534.581C250.366 534.301 250.038 534.161 249.606 534.161C249.182 534.161 248.858 534.309 248.634 534.605C248.402 534.901 248.286 535.301 248.286 535.805V537.437H250.926Z" fill="black"/>
<path d="M252.102 531.046H250.974L250.974 529.222H244.83L244.83 531.022H243.702L243.702 526.15H244.83L244.83 527.95H250.974V526.126H252.102L252.102 531.046Z" fill="black"/>
<path d="M252.246 521.39C252.246 522.07 252.07 522.658 251.718 523.154C251.366 523.65 250.866 524.03 250.218 524.294C249.57 524.558 248.798 524.69 247.902 524.69C247.006 524.69 246.234 524.558 245.586 524.294C244.938 524.03 244.438 523.65 244.086 523.154C243.734 522.658 243.558 522.07 243.558 521.39C243.558 520.702 243.734 520.114 244.086 519.626C244.438 519.13 244.938 518.75 245.586 518.486C246.234 518.222 247.006 518.09 247.902 518.09C248.798 518.09 249.57 518.222 250.218 518.486C250.866 518.75 251.366 519.13 251.718 519.626C252.07 520.114 252.246 520.702 252.246 521.39ZM251.046 521.39C251.046 520.79 250.778 520.306 250.242 519.938C249.698 519.57 248.918 519.386 247.902 519.386C246.886 519.386 246.11 519.57 245.574 519.938C245.03 520.306 244.758 520.79 244.758 521.39C244.758 521.998 245.03 522.486 245.574 522.854C246.11 523.214 246.886 523.394 247.902 523.394C248.918 523.394 249.698 523.214 250.242 522.854C250.778 522.486 251.046 521.998 251.046 521.39Z" fill="black"/>
<path d="M252.102 516.943H243.702L243.702 514.099C243.702 513.459 243.814 512.931 244.038 512.515C244.254 512.099 244.554 511.791 244.938 511.591C245.322 511.391 245.762 511.291 246.258 511.291C246.754 511.291 247.194 511.391 247.578 511.591C247.962 511.791 248.266 512.099 248.49 512.515C248.706 512.931 248.814 513.459 248.814 514.099L248.814 515.671H252.102V516.943ZM247.674 515.671V514.159C247.674 513.615 247.546 513.219 247.29 512.971C247.034 512.715 246.69 512.587 246.258 512.587C245.834 512.587 245.494 512.715 245.238 512.971C244.974 513.219 244.842 513.615 244.842 514.159L244.842 515.671H247.674Z" fill="black"/>
<path d="M252.102 509.628H243.702L243.702 508.356H250.962L250.962 504.216H252.102L252.102 509.628Z" fill="black"/>
<path d="M252.102 503.068L243.702 500.56L243.702 499.048L252.102 496.54V497.92L250.086 498.484L250.086 501.124L252.102 501.688V503.068ZM245.502 499.84L249.066 500.836V498.772L245.502 499.768V499.84Z" fill="black"/>
<path d="M252.246 492.525C252.246 493.117 252.138 493.637 251.922 494.085C251.706 494.525 251.398 494.873 250.998 495.129C250.598 495.377 250.122 495.505 249.57 495.513V494.169C249.994 494.161 250.358 494.017 250.662 493.737C250.958 493.449 251.106 493.049 251.106 492.537C251.106 492.065 250.998 491.697 250.782 491.433C250.558 491.169 250.27 491.037 249.918 491.037C249.622 491.037 249.378 491.117 249.186 491.277C248.986 491.429 248.81 491.669 248.658 491.997C248.498 492.325 248.334 492.749 248.166 493.269C247.942 493.965 247.634 494.477 247.242 494.805C246.842 495.133 246.354 495.297 245.778 495.297C245.114 495.297 244.578 495.057 244.17 494.577C243.762 494.097 243.558 493.437 243.558 492.597C243.558 491.781 243.77 491.125 244.194 490.629C244.61 490.133 245.19 489.877 245.934 489.861V491.217C245.734 491.217 245.542 491.273 245.358 491.385C245.166 491.497 245.01 491.657 244.89 491.865C244.762 492.073 244.698 492.329 244.698 492.633C244.69 493.009 244.782 493.325 244.974 493.581C245.158 493.837 245.41 493.965 245.73 493.965C246.122 493.965 246.43 493.809 246.654 493.497C246.87 493.185 247.094 492.677 247.326 491.973C247.47 491.533 247.646 491.145 247.854 490.809C248.054 490.465 248.314 490.197 248.634 490.005C248.946 489.805 249.346 489.705 249.834 489.705C250.282 489.705 250.69 489.817 251.058 490.041C251.418 490.265 251.706 490.589 251.922 491.013C252.138 491.429 252.246 491.933 252.246 492.525Z" fill="black"/>
<path d="M252.102 486.05H244.842L244.842 488.306H243.702L243.702 482.522H244.842L244.842 484.778L252.102 484.778L252.102 486.05Z" fill="black"/>
<path d="M252.102 480.678H250.974V478.854H244.83V480.654H243.702L243.702 475.782H244.83L244.83 477.582L250.974 477.582V475.758H252.102V480.678Z" fill="black"/>
<path d="M252.246 470.999C252.246 471.703 252.066 472.303 251.706 472.799C251.346 473.287 250.842 473.663 250.194 473.927C249.538 474.183 248.778 474.311 247.914 474.311C247.042 474.311 246.282 474.183 245.634 473.927C244.978 473.663 244.47 473.283 244.11 472.787C243.742 472.291 243.558 471.695 243.558 470.999C243.558 470.095 243.806 469.375 244.302 468.839C244.79 468.303 245.454 467.991 246.294 467.903V469.307C245.854 469.379 245.49 469.559 245.202 469.847C244.906 470.127 244.758 470.515 244.758 471.011C244.758 471.643 245.038 472.135 245.598 472.487C246.158 472.839 246.93 473.015 247.914 473.015C248.89 473.015 249.658 472.839 250.218 472.487C250.77 472.135 251.046 471.643 251.046 471.011C251.046 470.499 250.914 470.107 250.65 469.835C250.378 469.563 250.022 469.387 249.582 469.307V467.903C250.406 468.031 251.058 468.355 251.538 468.875C252.01 469.395 252.246 470.103 252.246 470.999Z" fill="black"/>
<path d="M252.246 463.744C252.246 464.336 252.138 464.856 251.922 465.304C251.706 465.744 251.398 466.092 250.998 466.348C250.598 466.596 250.122 466.724 249.57 466.732V465.388C249.994 465.38 250.358 465.236 250.662 464.956C250.958 464.668 251.106 464.268 251.106 463.756C251.106 463.284 250.998 462.916 250.782 462.652C250.558 462.388 250.27 462.256 249.918 462.256C249.622 462.256 249.378 462.336 249.186 462.496C248.986 462.648 248.81 462.888 248.658 463.216C248.498 463.544 248.334 463.968 248.166 464.488C247.942 465.184 247.634 465.696 247.242 466.024C246.842 466.352 246.354 466.516 245.778 466.516C245.114 466.516 244.578 466.276 244.17 465.796C243.762 465.316 243.558 464.656 243.558 463.816C243.558 463 243.77 462.344 244.194 461.848C244.61 461.352 245.19 461.096 245.934 461.08L245.934 462.436C245.734 462.436 245.542 462.492 245.358 462.604C245.166 462.716 245.01 462.876 244.89 463.084C244.762 463.292 244.698 463.548 244.698 463.852C244.69 464.228 244.782 464.544 244.974 464.8C245.158 465.056 245.41 465.184 245.73 465.184C246.122 465.184 246.43 465.028 246.654 464.716C246.87 464.404 247.094 463.896 247.326 463.192C247.47 462.752 247.646 462.364 247.854 462.028C248.054 461.684 248.314 461.416 248.634 461.224C248.946 461.024 249.346 460.924 249.834 460.924C250.282 460.924 250.69 461.036 251.058 461.26C251.418 461.484 251.706 461.808 251.922 462.232C252.138 462.648 252.246 463.152 252.246 463.744Z" fill="black"/>
<rect x="230" y="366" width="7" height="176" fill="url(#paint0_linear_1225_618)"/>
<rect x="230" y="7" width="7" height="113" fill="#77648B"/>
<rect x="230" y="120" width="7" height="123" fill="#BD6122"/>
<rect x="230" y="243" width="7" height="123" fill="#EA8A47"/>
<path d="M280.226 203L291.692 177.212H276.152V173.6H295.976V176.666L284.636 203H280.226Z" fill="black"/>
<path d="M311.283 203.504C308.623 203.504 306.341 202.874 304.437 201.614C302.533 200.326 301.063 198.548 300.027 196.28C299.019 193.984 298.515 191.324 298.515 188.3C298.515 185.276 299.019 182.63 300.027 180.362C301.063 178.066 302.533 176.288 304.437 175.028C306.341 173.74 308.623 173.096 311.283 173.096C313.943 173.096 316.211 173.74 318.087 175.028C319.991 176.288 321.447 178.066 322.455 180.362C323.491 182.63 324.009 185.276 324.009 188.3C324.009 191.324 323.491 193.984 322.455 196.28C321.447 198.548 319.991 200.326 318.087 201.614C316.211 202.874 313.943 203.504 311.283 203.504ZM311.283 199.766C312.907 199.766 314.349 199.304 315.609 198.38C316.897 197.456 317.891 196.14 318.591 194.432C319.319 192.724 319.683 190.68 319.683 188.3C319.683 185.92 319.319 183.876 318.591 182.168C317.891 180.46 316.897 179.158 315.609 178.262C314.349 177.338 312.907 176.876 311.283 176.876C309.631 176.876 308.161 177.338 306.873 178.262C305.613 179.158 304.619 180.46 303.891 182.168C303.163 183.876 302.799 185.92 302.799 188.3C302.799 190.68 303.163 192.724 303.891 194.432C304.619 196.14 305.613 197.456 306.873 198.38C308.161 199.304 309.631 199.766 311.283 199.766Z" fill="black"/>
<path d="M331.811 203L348.737 173.6H352.895L335.969 203H331.811ZM350.921 203.504C349.605 203.504 348.429 203.21 347.393 202.622C346.357 202.034 345.531 201.208 344.915 200.144C344.299 199.052 343.991 197.778 343.991 196.322C343.991 194.81 344.299 193.522 344.915 192.458C345.531 191.394 346.357 190.568 347.393 189.98C348.429 189.392 349.591 189.098 350.879 189.098C352.223 189.098 353.399 189.392 354.407 189.98C355.443 190.568 356.255 191.394 356.843 192.458C357.459 193.522 357.767 194.81 357.767 196.322C357.767 197.778 357.459 199.052 356.843 200.144C356.255 201.208 355.443 202.034 354.407 202.622C353.371 203.21 352.209 203.504 350.921 203.504ZM350.837 200.396C351.481 200.396 352.055 200.242 352.559 199.934C353.091 199.626 353.511 199.178 353.819 198.59C354.155 197.974 354.323 197.204 354.323 196.28C354.323 195.356 354.169 194.6 353.861 194.012C353.553 193.396 353.133 192.934 352.601 192.626C352.097 192.318 351.523 192.164 350.879 192.164C350.291 192.164 349.731 192.318 349.199 192.626C348.667 192.934 348.233 193.396 347.897 194.012C347.589 194.6 347.435 195.356 347.435 196.28C347.435 197.204 347.589 197.974 347.897 198.59C348.233 199.178 348.653 199.626 349.157 199.934C349.689 200.242 350.249 200.396 350.837 200.396ZM334.079 187.544C332.763 187.544 331.587 187.25 330.551 186.662C329.515 186.074 328.689 185.248 328.073 184.184C327.457 183.092 327.149 181.804 327.149 180.32C327.149 178.836 327.457 177.562 328.073 176.498C328.689 175.434 329.515 174.608 330.551 174.02C331.615 173.432 332.791 173.138 334.079 173.138C335.395 173.138 336.557 173.432 337.565 174.02C338.601 174.608 339.427 175.434 340.043 176.498C340.659 177.562 340.967 178.836 340.967 180.32C340.967 181.804 340.659 183.092 340.043 184.184C339.427 185.248 338.601 186.074 337.565 186.662C336.529 187.25 335.367 187.544 334.079 187.544ZM334.037 184.436C334.681 184.436 335.255 184.282 335.759 183.974C336.291 183.666 336.711 183.218 337.019 182.63C337.327 182.014 337.481 181.244 337.481 180.32C337.481 179.396 337.327 178.626 337.019 178.01C336.711 177.394 336.291 176.932 335.759 176.624C335.255 176.316 334.695 176.162 334.079 176.162C333.463 176.162 332.889 176.316 332.357 176.624C331.825 176.932 331.391 177.394 331.055 178.01C330.747 178.626 330.593 179.396 330.593 180.32C330.593 181.216 330.747 181.972 331.055 182.588C331.391 183.204 331.825 183.666 332.357 183.974C332.889 184.282 333.449 184.436 334.037 184.436Z" fill="black"/>
<path d="M255 107.148H246.6V104.304C246.6 103.664 246.712 103.136 246.936 102.72C247.152 102.304 247.452 101.996 247.836 101.796C248.22 101.596 248.66 101.496 249.156 101.496C249.652 101.496 250.092 101.596 250.476 101.796C250.86 101.996 251.164 102.304 251.388 102.72C251.604 103.136 251.712 103.664 251.712 104.304V105.876H255V107.148ZM250.572 105.876V104.364C250.572 103.82 250.444 103.424 250.188 103.176C249.932 102.92 249.588 102.792 249.156 102.792C248.732 102.792 248.392 102.92 248.136 103.176C247.872 103.424 247.74 103.82 247.74 104.364V105.876H250.572Z" fill="black"/>
<path d="M255.144 97.2047C255.144 97.8847 254.968 98.4727 254.616 98.9687C254.264 99.4647 253.764 99.8447 253.116 100.109C252.468 100.373 251.696 100.505 250.8 100.505C249.904 100.505 249.132 100.373 248.484 100.109C247.836 99.8447 247.336 99.4647 246.984 98.9687C246.632 98.4727 246.456 97.8847 246.456 97.2047C246.456 96.5167 246.632 95.9287 246.984 95.4407C247.336 94.9447 247.836 94.5647 248.484 94.3007C249.132 94.0367 249.904 93.9047 250.8 93.9047C251.696 93.9047 252.468 94.0367 253.116 94.3007C253.764 94.5647 254.264 94.9447 254.616 95.4407C254.968 95.9287 255.144 96.5167 255.144 97.2047ZM253.944 97.2047C253.944 96.6047 253.676 96.1207 253.14 95.7527C252.596 95.3847 251.816 95.2007 250.8 95.2007C249.784 95.2007 249.008 95.3847 248.472 95.7527C247.928 96.1207 247.656 96.6047 247.656 97.2047C247.656 97.8127 247.928 98.3007 248.472 98.6687C249.008 99.0287 249.784 99.2087 250.8 99.2087C251.816 99.2087 252.596 99.0287 253.14 98.6687C253.676 98.3007 253.944 97.8127 253.944 97.2047Z" fill="black"/>
<path d="M255 92.6374H246.6V91.3654H253.86V87.2254H255L255 92.6374Z" fill="black"/>
<path d="M255 83.4501H251.808L246.6 86.2221V84.7701L250.464 82.8141L246.6 80.8581V79.4061L251.808 82.1781H255V83.4501Z" fill="black"/>
<path d="M255 78.3668H246.6L246.6 75.5228C246.6 74.8828 246.712 74.3548 246.936 73.9388C247.152 73.5228 247.452 73.2148 247.836 73.0148C248.22 72.8148 248.66 72.7148 249.156 72.7148C249.652 72.7148 250.092 72.8148 250.476 73.0148C250.86 73.2148 251.164 73.5228 251.388 73.9388C251.604 74.3548 251.712 74.8828 251.712 75.5228L251.712 77.0948H255V78.3668ZM250.572 77.0948V75.5828C250.572 75.0388 250.444 74.6428 250.188 74.3948C249.932 74.1388 249.588 74.0108 249.156 74.0108C248.732 74.0108 248.392 74.1388 248.136 74.3948C247.872 74.6428 247.74 75.0388 247.74 75.5828L247.74 77.0948H250.572Z" fill="black"/>
<path d="M255 71.0635L246.6 71.0635V65.6995H247.74V69.7915H250.188V66.0595H251.316V69.7915H253.86V65.6995H255L255 71.0635Z" fill="black"/>
<path d="M255 63.9762H246.6V61.1321C246.6 60.4921 246.712 59.9641 246.936 59.5481C247.152 59.1321 247.452 58.8242 247.836 58.6241C248.22 58.4241 248.66 58.3242 249.156 58.3242C249.652 58.3242 250.092 58.4241 250.476 58.6241C250.86 58.8242 251.164 59.1321 251.388 59.5481C251.604 59.9641 251.712 60.4921 251.712 61.1321V62.7042H255V63.9762ZM250.572 62.7042V61.1922C250.572 60.6482 250.444 60.2522 250.188 60.0042C249.932 59.7481 249.588 59.6202 249.156 59.6202C248.732 59.6202 248.392 59.7481 248.136 60.0042C247.872 60.2522 247.74 60.6482 247.74 61.1922V62.7042H250.572Z" fill="black"/>
<path d="M255 56.4928H253.872V54.6688H247.728L247.728 56.4688H246.6L246.6 51.5968H247.728V53.3968H253.872V51.5728H255V56.4928Z" fill="black"/>
<path d="M255 47.4735H247.74L247.74 49.7295H246.6L246.6 43.9455H247.74V46.2015H255L255 47.4735Z" fill="black"/>
<path d="M255 42.1022H253.872L253.872 40.2782H247.728V42.0782H246.6L246.6 37.2062H247.728L247.728 39.0062H253.872V37.1822H255V42.1022Z" fill="black"/>
<path d="M255 35.3629H246.6V33.3469C246.6 31.9949 246.976 30.9909 247.728 30.3349C248.472 29.6789 249.496 29.3509 250.8 29.3509C252.104 29.3509 253.132 29.6789 253.884 30.3349C254.628 30.9909 255 31.9949 255 33.3469V35.3629ZM253.824 34.0909V33.3949C253.824 32.4189 253.552 31.7149 253.008 31.2829C252.456 30.8509 251.72 30.6349 250.8 30.6349C249.88 30.6349 249.148 30.8509 248.604 31.2829C248.052 31.7149 247.776 32.4189 247.776 33.3949V34.0909H253.824Z" fill="black"/>
<path d="M255 27.8916L246.6 27.8916L246.6 22.5276L247.74 22.5276V26.6196H250.188V22.8876L251.316 22.8876V26.6196H253.86V22.5276L255 22.5276L255 27.8916Z" fill="black"/>
<path d="M253 215.148H244.6L244.6 212.304C244.6 211.664 244.712 211.136 244.936 210.72C245.152 210.304 245.452 209.996 245.836 209.796C246.22 209.596 246.66 209.496 247.156 209.496C247.652 209.496 248.092 209.596 248.476 209.796C248.86 209.996 249.164 210.304 249.388 210.72C249.604 211.136 249.712 211.664 249.712 212.304V213.876H253V215.148ZM248.572 213.876V212.364C248.572 211.82 248.444 211.424 248.188 211.176C247.932 210.92 247.588 210.792 247.156 210.792C246.732 210.792 246.392 210.92 246.136 211.176C245.872 211.424 245.74 211.82 245.74 212.364L245.74 213.876H248.572Z" fill="black"/>
<path d="M253.144 205.205C253.144 205.885 252.968 206.473 252.616 206.969C252.264 207.465 251.764 207.845 251.116 208.109C250.468 208.373 249.696 208.505 248.8 208.505C247.904 208.505 247.132 208.373 246.484 208.109C245.836 207.845 245.336 207.465 244.984 206.969C244.632 206.473 244.456 205.885 244.456 205.205C244.456 204.517 244.632 203.929 244.984 203.441C245.336 202.945 245.836 202.565 246.484 202.301C247.132 202.037 247.904 201.905 248.8 201.905C249.696 201.905 250.468 202.037 251.116 202.301C251.764 202.565 252.264 202.945 252.616 203.441C252.968 203.929 253.144 204.517 253.144 205.205ZM251.944 205.205C251.944 204.605 251.676 204.121 251.14 203.753C250.596 203.385 249.816 203.201 248.8 203.201C247.784 203.201 247.008 203.385 246.472 203.753C245.928 204.121 245.656 204.605 245.656 205.205C245.656 205.813 245.928 206.301 246.472 206.669C247.008 207.029 247.784 207.209 248.8 207.209C249.816 207.209 250.596 207.029 251.14 206.669C251.676 206.301 251.944 205.813 251.944 205.205Z" fill="black"/>
<path d="M253 200.637H244.6L244.6 199.365H251.86L251.86 195.225H253L253 200.637Z" fill="black"/>
<path d="M253 191.45H249.808L244.6 194.222L244.6 192.77L248.464 190.814L244.6 188.858L244.6 187.406L249.808 190.178H253V191.45Z" fill="black"/>
<path d="M253 186.259H244.6L244.6 180.895H245.74L245.74 184.987H248.188L248.188 181.255H249.316L249.316 184.987H251.86V180.895H253V186.259Z" fill="black"/>
<path d="M253.144 176.339C253.144 176.931 253.036 177.451 252.82 177.899C252.604 178.339 252.296 178.687 251.896 178.943C251.496 179.191 251.02 179.319 250.468 179.327V177.983C250.892 177.975 251.256 177.831 251.56 177.551C251.856 177.263 252.004 176.863 252.004 176.351C252.004 175.879 251.896 175.511 251.68 175.247C251.456 174.983 251.168 174.851 250.816 174.851C250.52 174.851 250.276 174.931 250.084 175.091C249.884 175.243 249.708 175.483 249.556 175.811C249.396 176.139 249.232 176.563 249.064 177.083C248.84 177.779 248.532 178.291 248.14 178.619C247.74 178.947 247.252 179.111 246.676 179.111C246.012 179.111 245.476 178.871 245.068 178.391C244.66 177.911 244.456 177.251 244.456 176.411C244.456 175.595 244.668 174.939 245.092 174.443C245.508 173.947 246.088 173.691 246.832 173.675L246.832 175.031C246.632 175.031 246.44 175.087 246.256 175.199C246.064 175.311 245.908 175.471 245.788 175.679C245.66 175.887 245.596 176.143 245.596 176.447C245.588 176.823 245.68 177.139 245.872 177.395C246.056 177.651 246.308 177.779 246.628 177.779C247.02 177.779 247.328 177.623 247.552 177.311C247.768 176.999 247.992 176.491 248.224 175.787C248.368 175.347 248.544 174.959 248.752 174.623C248.952 174.279 249.212 174.011 249.532 173.819C249.844 173.619 250.244 173.519 250.732 173.519C251.18 173.519 251.588 173.631 251.956 173.855C252.316 174.079 252.604 174.403 252.82 174.827C253.036 175.243 253.144 175.747 253.144 176.339Z" fill="black"/>
<path d="M253 169.864H245.74V172.12H244.6L244.6 166.336H245.74L245.74 168.592H253V169.864Z" fill="black"/>
<path d="M253 164.673H244.6L244.6 159.309H245.74L245.74 163.401H248.188L248.188 159.669H249.316L249.316 163.401H251.86V159.309H253V164.673Z" fill="black"/>
<path d="M253 157.538H244.6L244.6 154.79C244.6 154.134 244.712 153.594 244.936 153.17C245.16 152.738 245.464 152.418 245.848 152.21C246.224 151.994 246.652 151.886 247.132 151.886C247.676 151.886 248.16 152.026 248.584 152.306C249 152.578 249.304 152.998 249.496 153.566L253 151.802V153.278L249.676 154.886V156.266H253V157.538ZM248.524 156.266V154.862C248.524 154.286 248.396 153.866 248.14 153.602C247.884 153.33 247.548 153.194 247.132 153.194C246.708 153.194 246.372 153.326 246.124 153.59C245.868 153.854 245.74 154.282 245.74 154.874L245.74 156.266H248.524Z" fill="black"/>
<path d="M254 317.992H245.6L245.6 312.604H246.788L246.788 316.72H249.356V313.264H250.472V316.72H254V317.992Z" fill="black"/>
<path d="M254 310.665H252.872V308.841H246.728L246.728 310.641H245.6L245.6 305.769H246.728V307.569H252.872V305.745H254V310.665Z" fill="black"/>
<path d="M254 303.937H245.6L245.6 300.937C245.6 300.065 245.8 299.405 246.2 298.957C246.6 298.509 247.116 298.285 247.748 298.285C248.236 298.285 248.632 298.413 248.936 298.669C249.24 298.925 249.46 299.221 249.596 299.557H249.68C249.824 299.157 250.06 298.813 250.388 298.525C250.708 298.237 251.132 298.093 251.66 298.093C252.092 298.093 252.488 298.201 252.848 298.417C253.2 298.625 253.48 298.933 253.688 299.341C253.896 299.749 254 300.249 254 300.841L254 303.937ZM249.104 302.665V301.093C249.104 300.605 249.008 300.233 248.816 299.977C248.616 299.721 248.316 299.593 247.916 299.593C247.124 299.593 246.728 300.101 246.728 301.117V302.665H249.104ZM252.824 302.665V301.009C252.824 300.489 252.712 300.089 252.488 299.809C252.264 299.529 251.936 299.389 251.504 299.389C251.08 299.389 250.756 299.537 250.532 299.833C250.3 300.129 250.184 300.529 250.184 301.033L250.184 302.665H252.824Z" fill="black"/>
<path d="M254 296.514H245.6L245.6 293.766C245.6 293.11 245.712 292.57 245.936 292.146C246.16 291.714 246.464 291.394 246.848 291.186C247.224 290.97 247.652 290.862 248.132 290.862C248.676 290.862 249.16 291.002 249.584 291.282C250 291.554 250.304 291.974 250.496 292.542L254 290.778V292.254L250.676 293.862V295.242H254V296.514ZM249.524 295.242V293.838C249.524 293.262 249.396 292.842 249.14 292.578C248.884 292.306 248.548 292.17 248.132 292.17C247.708 292.17 247.372 292.302 247.124 292.566C246.868 292.83 246.74 293.258 246.74 293.85V295.242H249.524Z" fill="black"/>
<path d="M254 289.259H245.6L245.6 283.895H246.74L246.74 287.987H249.188L249.188 284.255H250.316L250.316 287.987H252.86V283.895H254V289.259Z" fill="black"/>
<path d="M84.8324 366C84.5967 368.327 84.1253 370.654 83.4772 372.981C76.9661 394.18 77.3197 530.679 78.8517 536.959C79.5293 539.732 80.5899 541.932 83.6245 541.964C89.6346 541.996 101.655 542.059 107.665 541.868C110.847 541.772 111.672 540.274 110.847 536.991C110.376 535.142 109.551 533.389 108.932 531.572C106.899 525.834 107.754 520.191 106.192 514.326C104.189 506.898 99.4454 406.676 104.071 400.109C113.793 386.274 125.224 374.83 141.399 370.367C144.227 369.602 147.085 368.837 149.854 367.817C151.268 367.307 152.624 366.701 153.92 366.032H84.8324V366Z" fill="url(#paint1_linear_1225_618)"/>
<path d="M172.398 243H168.506C167.774 245.604 167.248 247.636 166.955 250.43C164.614 265.447 159.317 275.957 149.953 285.545C149.807 285.704 150.304 268.464 150.597 264.495C150.889 260.78 151.767 255.827 149.397 255.732C146.002 255.605 145.681 258.78 145.242 261.542C144.364 267.225 143.047 276.02 142.637 281.767C141.554 296.816 139.008 311.168 133.127 325.138C130.054 332.408 126.103 338.981 119.929 343.616C118.349 344.791 116.417 345.394 113.871 346.632C113.696 343.68 113.345 341.965 113.52 340.346C114.72 329.932 115.803 319.486 117.383 309.136C119.314 296.499 124.582 285.228 130.376 274.242C135.526 264.463 139.038 254.144 140.735 243.064H127.098C124.669 258.335 117.588 271.861 109.189 285.005C105.999 289.99 102.81 289.419 100.644 283.926C95.8158 271.575 93.5625 258.812 96.0206 245.445C96.1669 244.651 96.3132 243.857 96.4595 243.064H71.5564C76.4434 258.78 81.0963 274.591 85.837 290.371C87.5342 296.023 89.1144 301.738 90.4606 307.516C93.4747 320.407 94.1185 333.456 92.3919 346.601C92.1578 348.347 91.514 350.03 91.0751 351.744C90.6654 351.776 90.2557 351.808 89.8168 351.839C89.0852 350.03 88.2365 348.252 87.6805 346.347C85.9833 340.695 84.6664 334.885 82.6765 329.36C81.8864 327.138 80.0721 324.344 78.1992 323.772C74.8047 322.756 73.9268 320.82 73.7219 317.486C73.5463 314.724 73.0196 311.93 72.4051 309.231C72.1417 308.12 71.2638 307.199 70.6493 306.183C70.2981 306.342 69.9469 306.532 69.5958 306.691C68.0741 317.581 68.8349 328.027 74.8632 337.552C77.1457 341.171 79.5161 344.727 81.4767 348.537C84.3738 354.157 85.3102 360.031 84.6957 366H153.318C157.854 363.65 161.775 360.348 164.731 355.713C166.077 353.617 167.95 351.141 165.404 348.156C161.395 351.395 159.083 357.173 152.265 357.65C153.406 355.395 153.962 354.03 154.752 352.792C155.747 351.204 157.064 349.839 158 348.22C159.376 345.839 162.478 343.108 159.873 340.473C157.357 337.933 154.811 341.235 152.792 342.981C149.397 345.934 146.412 349.426 143.076 352.474C139.769 355.522 136.316 358.443 132.746 361.079C131.341 362.126 129.381 362.317 127.654 362.92C127.391 362.539 127.157 362.158 126.893 361.809C128.503 359.269 129.966 356.57 131.751 354.189C137.867 346.061 142.14 336.949 144.832 326.884C146.763 319.677 149.075 312.533 151.416 305.453C154.898 294.816 161.073 286.593 170.32 281.132C173.013 279.544 191.683 269.257 192.882 264.05C193.789 258.589 178.017 270.305 174.3 269.099C169.852 266.432 170.437 260.304 170.701 255.097C171.169 251.16 171.783 246.905 172.398 243Z" fill="#EA8A47"/>
<path d="M65.7873 166.379C65.5239 166.505 65.6702 166.442 65.7873 166.379V166.379Z" fill="#BD6122"/>
<path d="M173.132 232.019C172.049 233.389 170.41 237.211 169.649 239.313C169.269 240.65 168.947 241.797 168.654 242.848H172.546C172.78 241.319 173.044 239.822 173.249 238.453C173.571 236.51 173.98 234.599 174.331 232.688C174.507 231.191 174.068 231.096 173.132 232.019Z" fill="#BD6122"/>
<path d="M110.182 194.915C111.938 190.584 113.577 186.125 114.543 181.539C116.504 172.112 115.011 169.946 105.822 168.258C106.085 163.385 105.734 158.226 106.788 153.416C109.275 142.046 111.997 130.74 114.953 119.497H84.517C89.5506 128.702 92.5064 138.67 92.5649 149.626C92.6234 162.78 92.7112 175.997 91.804 189.119C91.0431 199.916 88.9361 210.617 87.2387 221.35C86.8582 223.834 85.6876 226.159 84.8682 228.548C84.4 228.771 83.9025 228.994 83.4342 229.217C83.1123 228.389 82.8489 227.561 82.4392 226.764C76.9081 215.522 73.7183 203.801 75.5034 190.807C76.9374 180.456 80.0395 170.71 83.6684 161.092C84.4585 158.99 84.7804 156.633 85.3365 154.404C85.0145 154.213 84.6926 154.053 84.3707 153.862C82.2051 155.773 78.7811 165.551 76.9959 160.359C77.3471 148.543 82.5855 138.32 77.7568 127.682C76.0009 128.128 74.4791 132.523 73.8938 135.262C72.1672 143.288 70.8503 151.41 69.2407 159.468C68.831 161.57 68.4798 164.372 65.7874 166.347C65.9338 166.283 66.0508 166.22 65.7874 166.347C64.8217 167.016 63.8852 164.181 63.0365 160.359C59.5247 159.754 61.5148 166.888 62.2171 170.296C63.5926 176.953 63.973 184.947 65.6119 191.571C66.1094 193.61 66.4605 195.68 66.8702 197.75C66.5191 197.877 66.1972 198.005 65.846 198.132C65.3485 197.527 64.7339 197.018 64.412 196.317C59.8466 186.571 56.1593 176.443 54.9887 165.487C54.3741 159.786 53.1742 150.136 56.0715 145.04C57.8274 141.823 58.3541 142.174 58.5297 139.466C58.5883 138.415 57.8274 138.32 56.7738 138.384C55.7496 138.415 54.8131 139.403 54.0814 140.135C51.0672 143.161 50.4819 146.25 50.5404 150.709C50.5697 152.811 50.3648 154.881 50.277 156.983C48.3162 157.015 47.0871 153.162 46.414 151.091C44.8337 146.282 43.6046 141.377 41.9072 136.632C39.8879 130.931 38.5417 125.23 38.4247 119.529H29.0014C29.4403 120.421 29.8793 121.281 30.289 122.173C31.0499 123.797 31.6352 125.517 32.3083 127.205C32.0157 127.555 31.7523 127.937 31.4596 128.288C23.1776 126.854 15.4809 123.574 7.93057 119.529H2.01904C2.28243 120.485 2.63361 121.376 3.07258 122.204C6.11614 127.969 11.1497 130.581 16.7979 132.078C21.0413 133.224 25.2847 134.18 29.4989 135.39C33.0692 136.409 35.0885 139.021 36.1127 142.97C38.7173 152.939 41.6146 162.812 44.3655 172.717C44.8337 174.437 46.2677 177.048 44.4533 178.991C44.4825 178.959 44.5118 178.927 44.5411 178.927C44.5118 178.927 44.5118 178.959 44.4533 178.991C44.424 178.991 44.424 179.023 44.424 179.023L44.4533 178.991C38.9515 175.488 33.6545 175.074 28.2405 171.379C25.87 169.755 22.9435 165.742 21.451 168.576C19.6073 170.519 34.7666 179.692 38.132 181.921C46.297 187.367 53.1157 194.374 57.3591 203.706C61.3684 212.464 64.9973 221.541 67.953 230.777C69.2407 234.79 70.4991 238.803 71.7282 242.816H96.662C99.7641 226.414 103.949 210.33 110.182 194.915ZM44.3655 179.055C44.3655 179.087 44.3655 179.087 44.3655 179.055V179.055ZM44.5411 178.895C44.5703 178.895 44.5703 178.895 44.5411 178.895V178.895Z" fill="#BD6122"/>
<path d="M156.012 130.358C157.592 126.791 159.026 123.192 160.343 119.529H147.525C142.257 139.116 135.263 141.951 134.034 144.435C132.278 133.606 131.517 125.549 131.312 119.529H124.961C122.884 137.747 125.605 175.583 125.986 184.979C126.512 197.432 125.986 210.044 127.566 222.337C128.503 229.567 128.298 236.383 127.273 242.88H140.911C141.028 242.084 141.145 241.319 141.233 240.523C141.935 234.95 142.93 229.44 144.071 223.962C145.593 216.636 158.236 202.878 159.289 201.604C161.162 199.374 163.035 191.54 159.406 196.253C157.446 198.801 141.76 212.687 141.438 205.776C140.384 197.336 140.765 190.234 141.408 183.1C143.135 164.468 148.666 147.078 156.012 130.358Z" fill="#BD6122"/>
<path d="M133.77 101.885C132.775 101.757 130.258 104.687 129.527 105.834C128.532 107.395 126.366 111.981 125.869 113.828C125.459 115.389 125.137 117.3 124.874 119.529H131.224C130.668 102.745 134.531 101.98 133.77 101.885Z" fill="#77648B"/>
<path d="M1.2002 115.739C1.37579 117.077 1.60991 118.351 1.93182 119.529H7.87261C5.64847 118.319 3.42433 117.077 1.2002 115.739Z" fill="#77648B"/>
<path d="M176.38 48.697C174.888 50.4806 178.282 54.2388 177.785 61.6914C177.404 67.1376 171.61 72.2653 166.489 72.5519C166.079 69.367 162.596 51.6908 160.899 46.2447C160.518 45.0344 158.324 43.5375 157.299 43.7923C156.187 44.0789 155.631 44.8433 155.163 46.3402C154.724 47.7734 155.251 52.7737 155.251 54.3662C155.134 65.2266 155.017 74.1444 154.051 84.9411C153.202 94.6551 150.89 104.242 148.842 113.796C148.403 115.866 147.935 117.809 147.466 119.593H160.284C163.152 111.662 165.318 103.509 166.401 94.9417C167.396 86.9795 169.971 80.0683 176.468 75.3865C178.136 74.1762 179.424 72.106 180.448 70.1632C183.872 63.3157 182.233 53.5699 176.38 48.697Z" fill="#77648B"/>
<path d="M116.679 112.745C120.806 97.6807 126.981 83.6353 135.321 70.6728C139.096 64.8126 142.14 58.3473 145.33 52.0412C146.237 50.2258 148.256 45.2892 147.32 45.13C146.091 44.9389 145.037 45.8943 144.569 46.2765C135.936 53.4425 128.532 61.5003 126.073 73.6348C124.961 79.1446 122.064 83.6035 118.026 87.6164C113.226 75.9597 112.699 57.3599 116.036 49.8754C118.172 45.13 121.391 42.0088 125.927 40.48C129.322 39.3334 132.951 38.8239 136.141 37.2951C141.555 34.6835 146.793 31.5942 151.944 28.4093C153.202 27.6449 155.016 26.0843 154.87 24.3963C154.548 23.9186 154.285 23.5364 153.144 23.823C141.291 28.4411 130.288 31.4668 117.821 36.3078C116.211 36.3396 115.684 40.5756 117.235 12.1344C117.616 4.90474 120.806 0 118.435 0C115.86 0.382187 112.143 11.593 111.646 13.2173C108.192 24.9059 104.739 46.3721 104.534 47.9964C98.0961 44.9707 96.8669 39.9067 93.0625 32.8363C89.0825 25.3836 88.4094 11.179 87.2973 2.80271C85.8048 4.77734 84.839 6.72013 84.5171 8.75846C82.1759 23.9504 84.7805 37.5499 94.438 49.4933C97.979 53.8566 101.081 59.2709 102.691 64.7808C107.49 81.2467 105.968 97.8081 100.818 113.924C98.8277 120.102 95.3159 120.357 91.8626 114.815C90.1653 112.076 88.9361 108.955 87.7363 105.93C86.712 103.35 85.8633 100.675 85.2195 97.9674C83.1417 89.0496 76.2644 87.075 68.8604 84.2405C68.7726 86.4062 68.3043 88.1579 68.714 89.5911C69.7968 93.2537 70.9089 96.98 72.6355 100.292C75.2109 105.165 78.2252 109.72 81.2394 114.306C82.3515 116.026 83.4051 117.746 84.3708 119.497H114.806C115.45 117.268 116.065 115.007 116.679 112.745ZM104.417 48.1875C104.388 48.2193 104.388 48.2193 104.417 48.1875V48.1875ZM104.534 48.0601C104.476 48.0919 104.447 48.1238 104.417 48.1556C104.447 48.1556 104.505 48.0919 104.534 48.0601Z" fill="#77648B"/>
<path d="M28.9138 119.529H38.3664C38.2201 114.019 39.2151 108.478 41.7319 102.936C42.1416 102.012 42.4342 100.929 42.4635 99.9101C42.4928 98.8591 42.1708 97.8081 41.9367 96.5023C37.1665 98.5725 36.9909 103.605 34.5912 107.49C33.3328 102.872 32.4549 98.7317 31.1087 94.8143C29.6747 90.7376 28.0651 86.661 26.0166 82.9028C24.1729 79.4631 22.2707 75.7049 17.2663 74.3036C20.1343 83.0939 24.963 90.3873 24.6704 99.4961C23.0608 98.1584 21.978 96.566 21.0415 94.878C17.3249 88.0942 12.5547 82.4569 5.94079 78.9854C4.38975 78.1573 2.57532 77.9662 0.877949 77.4885C0.5853 77.9981 0.29265 78.4758 0 78.9854C2.80944 82.4569 5.50182 86.0559 8.42832 89.4C16.3884 98.5725 23.3827 108.478 28.9138 119.529Z" fill="#77648B"/>
<defs>
<linearGradient id="paint0_linear_1225_618" x1="233.5" y1="366" x2="233.5" y2="542" gradientUnits="userSpaceOnUse">
<stop stop-color="#F0D7C6"/>
<stop offset="1" stop-color="#D6AA68"/>
</linearGradient>
<linearGradient id="paint1_linear_1225_618" x1="56.4199" y1="391" x2="132.42" y2="510.5" gradientUnits="userSpaceOnUse">
<stop stop-color="#FFB78A"/>
<stop offset="1" stop-color="#D19162"/>
</linearGradient>
</defs>
</svg>
