<svg width="378" height="592" viewBox="0 0 378 592" fill="none" xmlns="http://www.w3.org/2000/svg">
<path d="M285.481 539.504C283.605 539.504 281.883 539.168 280.315 538.496C278.775 537.796 277.543 536.76 276.619 535.388C275.723 533.988 275.247 532.238 275.191 530.138H279.391C279.419 531.202 279.671 532.168 280.147 533.036C280.623 533.904 281.309 534.604 282.205 535.136C283.129 535.64 284.221 535.892 285.481 535.892C286.741 535.892 287.791 535.654 288.631 535.178C289.499 534.702 290.143 534.058 290.563 533.246C291.011 532.434 291.235 531.524 291.235 530.516C291.235 529.256 290.927 528.234 290.311 527.45C289.723 526.638 288.911 526.036 287.875 525.644C286.867 525.224 285.733 525.014 284.473 525.014H282.289V521.528H284.473C286.209 521.528 287.595 521.122 288.631 520.31C289.667 519.498 290.185 518.364 290.185 516.908C290.185 515.676 289.779 514.668 288.967 513.884C288.183 513.1 287.021 512.708 285.481 512.708C283.941 512.708 282.723 513.156 281.827 514.052C280.931 514.948 280.427 516.082 280.315 517.454H276.115C276.199 515.802 276.633 514.346 277.417 513.086C278.229 511.798 279.321 510.818 280.693 510.146C282.065 509.446 283.661 509.096 285.481 509.096C287.413 509.096 289.037 509.446 290.353 510.146C291.669 510.818 292.663 511.728 293.335 512.876C294.035 514.024 294.385 515.27 294.385 516.614C294.385 517.65 294.189 518.616 293.797 519.512C293.405 520.38 292.859 521.136 292.159 521.78C291.459 522.424 290.591 522.872 289.555 523.124C290.675 523.348 291.669 523.796 292.537 524.468C293.433 525.112 294.133 525.952 294.637 526.988C295.169 528.024 295.435 529.214 295.435 530.558C295.435 532.154 295.057 533.638 294.301 535.01C293.545 536.354 292.425 537.446 290.941 538.286C289.485 539.098 287.665 539.504 285.481 539.504Z" fill="black"/>
<path d="M311.133 539.504C308.473 539.504 306.191 538.874 304.287 537.614C302.383 536.326 300.913 534.548 299.877 532.28C298.869 529.984 298.365 527.324 298.365 524.3C298.365 521.276 298.869 518.63 299.877 516.362C300.913 514.066 302.383 512.288 304.287 511.028C306.191 509.74 308.473 509.096 311.133 509.096C313.793 509.096 316.061 509.74 317.937 511.028C319.841 512.288 321.297 514.066 322.305 516.362C323.341 518.63 323.859 521.276 323.859 524.3C323.859 527.324 323.341 529.984 322.305 532.28C321.297 534.548 319.841 536.326 317.937 537.614C316.061 538.874 313.793 539.504 311.133 539.504ZM311.133 535.766C312.757 535.766 314.199 535.304 315.459 534.38C316.747 533.456 317.741 532.14 318.441 530.432C319.169 528.724 319.533 526.68 319.533 524.3C319.533 521.92 319.169 519.876 318.441 518.168C317.741 516.46 316.747 515.158 315.459 514.262C314.199 513.338 312.757 512.876 311.133 512.876C309.481 512.876 308.011 513.338 306.723 514.262C305.463 515.158 304.469 516.46 303.741 518.168C303.013 519.876 302.649 521.92 302.649 524.3C302.649 526.68 303.013 528.724 303.741 530.432C304.469 532.14 305.463 533.456 306.723 534.38C308.011 535.304 309.481 535.766 311.133 535.766Z" fill="black"/>
<path d="M331.66 539L348.586 509.6H352.744L335.818 539H331.66ZM350.77 539.504C349.454 539.504 348.278 539.21 347.242 538.622C346.206 538.034 345.38 537.208 344.764 536.144C344.148 535.052 343.84 533.778 343.84 532.322C343.84 530.81 344.148 529.522 344.764 528.458C345.38 527.394 346.206 526.568 347.242 525.98C348.278 525.392 349.44 525.098 350.728 525.098C352.072 525.098 353.248 525.392 354.256 525.98C355.292 526.568 356.104 527.394 356.692 528.458C357.308 529.522 357.616 530.81 357.616 532.322C357.616 533.778 357.308 535.052 356.692 536.144C356.104 537.208 355.292 538.034 354.256 538.622C353.22 539.21 352.058 539.504 350.77 539.504ZM350.686 536.396C351.33 536.396 351.904 536.242 352.408 535.934C352.94 535.626 353.36 535.178 353.668 534.59C354.004 533.974 354.172 533.204 354.172 532.28C354.172 531.356 354.018 530.6 353.71 530.012C353.402 529.396 352.982 528.934 352.45 528.626C351.946 528.318 351.372 528.164 350.728 528.164C350.14 528.164 349.58 528.318 349.048 528.626C348.516 528.934 348.082 529.396 347.746 530.012C347.438 530.6 347.284 531.356 347.284 532.28C347.284 533.204 347.438 533.974 347.746 534.59C348.082 535.178 348.502 535.626 349.006 535.934C349.538 536.242 350.098 536.396 350.686 536.396ZM333.928 523.544C332.612 523.544 331.436 523.25 330.4 522.662C329.364 522.074 328.538 521.248 327.922 520.184C327.306 519.092 326.998 517.804 326.998 516.32C326.998 514.836 327.306 513.562 327.922 512.498C328.538 511.434 329.364 510.608 330.4 510.02C331.464 509.432 332.64 509.138 333.928 509.138C335.244 509.138 336.406 509.432 337.414 510.02C338.45 510.608 339.276 511.434 339.892 512.498C340.508 513.562 340.816 514.836 340.816 516.32C340.816 517.804 340.508 519.092 339.892 520.184C339.276 521.248 338.45 522.074 337.414 522.662C336.378 523.25 335.216 523.544 333.928 523.544ZM333.886 520.436C334.53 520.436 335.104 520.282 335.608 519.974C336.14 519.666 336.56 519.218 336.868 518.63C337.176 518.014 337.33 517.244 337.33 516.32C337.33 515.396 337.176 514.626 336.868 514.01C336.56 513.394 336.14 512.932 335.608 512.624C335.104 512.316 334.544 512.162 333.928 512.162C333.312 512.162 332.738 512.316 332.206 512.624C331.674 512.932 331.24 513.394 330.904 514.01C330.596 514.626 330.442 515.396 330.442 516.32C330.442 517.216 330.596 517.972 330.904 518.588C331.24 519.204 331.674 519.666 332.206 519.974C332.738 520.282 333.298 520.436 333.886 520.436Z" fill="black"/>
<path d="M252.102 538.709H243.702L243.702 535.709C243.702 534.837 243.902 534.177 244.302 533.729C244.702 533.281 245.218 533.057 245.85 533.057C246.338 533.057 246.734 533.185 247.038 533.441C247.342 533.697 247.562 533.993 247.698 534.329H247.782C247.926 533.929 248.162 533.585 248.49 533.297C248.81 533.009 249.234 532.865 249.762 532.865C250.194 532.865 250.59 532.973 250.95 533.189C251.302 533.397 251.582 533.705 251.79 534.113C251.998 534.521 252.102 535.021 252.102 535.613V538.709ZM247.206 537.437V535.865C247.206 535.377 247.11 535.005 246.918 534.749C246.718 534.493 246.418 534.365 246.018 534.365C245.226 534.365 244.83 534.873 244.83 535.889L244.83 537.437H247.206ZM250.926 537.437V535.781C250.926 535.261 250.814 534.861 250.59 534.581C250.366 534.301 250.038 534.161 249.606 534.161C249.182 534.161 248.858 534.309 248.634 534.605C248.402 534.901 248.286 535.301 248.286 535.805V537.437H250.926Z" fill="black"/>
<path d="M252.102 531.046H250.974L250.974 529.222H244.83L244.83 531.022H243.702L243.702 526.15H244.83L244.83 527.95H250.974V526.126H252.102L252.102 531.046Z" fill="black"/>
<path d="M252.246 521.39C252.246 522.07 252.07 522.658 251.718 523.154C251.366 523.65 250.866 524.03 250.218 524.294C249.57 524.558 248.798 524.69 247.902 524.69C247.006 524.69 246.234 524.558 245.586 524.294C244.938 524.03 244.438 523.65 244.086 523.154C243.734 522.658 243.558 522.07 243.558 521.39C243.558 520.702 243.734 520.114 244.086 519.626C244.438 519.13 244.938 518.75 245.586 518.486C246.234 518.222 247.006 518.09 247.902 518.09C248.798 518.09 249.57 518.222 250.218 518.486C250.866 518.75 251.366 519.13 251.718 519.626C252.07 520.114 252.246 520.702 252.246 521.39ZM251.046 521.39C251.046 520.79 250.778 520.306 250.242 519.938C249.698 519.57 248.918 519.386 247.902 519.386C246.886 519.386 246.11 519.57 245.574 519.938C245.03 520.306 244.758 520.79 244.758 521.39C244.758 521.998 245.03 522.486 245.574 522.854C246.11 523.214 246.886 523.394 247.902 523.394C248.918 523.394 249.698 523.214 250.242 522.854C250.778 522.486 251.046 521.998 251.046 521.39Z" fill="black"/>
<path d="M252.102 516.943H243.702L243.702 514.099C243.702 513.459 243.814 512.931 244.038 512.515C244.254 512.099 244.554 511.791 244.938 511.591C245.322 511.391 245.762 511.291 246.258 511.291C246.754 511.291 247.194 511.391 247.578 511.591C247.962 511.791 248.266 512.099 248.49 512.515C248.706 512.931 248.814 513.459 248.814 514.099L248.814 515.671H252.102V516.943ZM247.674 515.671V514.159C247.674 513.615 247.546 513.219 247.29 512.971C247.034 512.715 246.69 512.587 246.258 512.587C245.834 512.587 245.494 512.715 245.238 512.971C244.974 513.219 244.842 513.615 244.842 514.159L244.842 515.671H247.674Z" fill="black"/>
<path d="M252.102 509.628H243.702L243.702 508.356H250.962L250.962 504.216H252.102L252.102 509.628Z" fill="black"/>
<path d="M252.102 503.068L243.702 500.56L243.702 499.048L252.102 496.54V497.92L250.086 498.484L250.086 501.124L252.102 501.688V503.068ZM245.502 499.84L249.066 500.836V498.772L245.502 499.768V499.84Z" fill="black"/>
<path d="M252.246 492.525C252.246 493.117 252.138 493.637 251.922 494.085C251.706 494.525 251.398 494.873 250.998 495.129C250.598 495.377 250.122 495.505 249.57 495.513V494.169C249.994 494.161 250.358 494.017 250.662 493.737C250.958 493.449 251.106 493.049 251.106 492.537C251.106 492.065 250.998 491.697 250.782 491.433C250.558 491.169 250.27 491.037 249.918 491.037C249.622 491.037 249.378 491.117 249.186 491.277C248.986 491.429 248.81 491.669 248.658 491.997C248.498 492.325 248.334 492.749 248.166 493.269C247.942 493.965 247.634 494.477 247.242 494.805C246.842 495.133 246.354 495.297 245.778 495.297C245.114 495.297 244.578 495.057 244.17 494.577C243.762 494.097 243.558 493.437 243.558 492.597C243.558 491.781 243.77 491.125 244.194 490.629C244.61 490.133 245.19 489.877 245.934 489.861V491.217C245.734 491.217 245.542 491.273 245.358 491.385C245.166 491.497 245.01 491.657 244.89 491.865C244.762 492.073 244.698 492.329 244.698 492.633C244.69 493.009 244.782 493.325 244.974 493.581C245.158 493.837 245.41 493.965 245.73 493.965C246.122 493.965 246.43 493.809 246.654 493.497C246.87 493.185 247.094 492.677 247.326 491.973C247.47 491.533 247.646 491.145 247.854 490.809C248.054 490.465 248.314 490.197 248.634 490.005C248.946 489.805 249.346 489.705 249.834 489.705C250.282 489.705 250.69 489.817 251.058 490.041C251.418 490.265 251.706 490.589 251.922 491.013C252.138 491.429 252.246 491.933 252.246 492.525Z" fill="black"/>
<path d="M252.102 486.05H244.842L244.842 488.306H243.702L243.702 482.522H244.842L244.842 484.778L252.102 484.778L252.102 486.05Z" fill="black"/>
<path d="M252.102 480.678H250.974V478.854H244.83V480.654H243.702L243.702 475.782H244.83L244.83 477.582L250.974 477.582V475.758H252.102V480.678Z" fill="black"/>
<path d="M252.246 470.999C252.246 471.703 252.066 472.303 251.706 472.799C251.346 473.287 250.842 473.663 250.194 473.927C249.538 474.183 248.778 474.311 247.914 474.311C247.042 474.311 246.282 474.183 245.634 473.927C244.978 473.663 244.47 473.283 244.11 472.787C243.742 472.291 243.558 471.695 243.558 470.999C243.558 470.095 243.806 469.375 244.302 468.839C244.79 468.303 245.454 467.991 246.294 467.903V469.307C245.854 469.379 245.49 469.559 245.202 469.847C244.906 470.127 244.758 470.515 244.758 471.011C244.758 471.643 245.038 472.135 245.598 472.487C246.158 472.839 246.93 473.015 247.914 473.015C248.89 473.015 249.658 472.839 250.218 472.487C250.77 472.135 251.046 471.643 251.046 471.011C251.046 470.499 250.914 470.107 250.65 469.835C250.378 469.563 250.022 469.387 249.582 469.307V467.903C250.406 468.031 251.058 468.355 251.538 468.875C252.01 469.395 252.246 470.103 252.246 470.999Z" fill="black"/>
<path d="M252.246 463.744C252.246 464.336 252.138 464.856 251.922 465.304C251.706 465.744 251.398 466.092 250.998 466.348C250.598 466.596 250.122 466.724 249.57 466.732V465.388C249.994 465.38 250.358 465.236 250.662 464.956C250.958 464.668 251.106 464.268 251.106 463.756C251.106 463.284 250.998 462.916 250.782 462.652C250.558 462.388 250.27 462.256 249.918 462.256C249.622 462.256 249.378 462.336 249.186 462.496C248.986 462.648 248.81 462.888 248.658 463.216C248.498 463.544 248.334 463.968 248.166 464.488C247.942 465.184 247.634 465.696 247.242 466.024C246.842 466.352 246.354 466.516 245.778 466.516C245.114 466.516 244.578 466.276 244.17 465.796C243.762 465.316 243.558 464.656 243.558 463.816C243.558 463 243.77 462.344 244.194 461.848C244.61 461.352 245.19 461.096 245.934 461.08L245.934 462.436C245.734 462.436 245.542 462.492 245.358 462.604C245.166 462.716 245.01 462.876 244.89 463.084C244.762 463.292 244.698 463.548 244.698 463.852C244.69 464.228 244.782 464.544 244.974 464.8C245.158 465.056 245.41 465.184 245.73 465.184C246.122 465.184 246.43 465.028 246.654 464.716C246.87 464.404 247.094 463.896 247.326 463.192C247.47 462.752 247.646 462.364 247.854 462.028C248.054 461.684 248.314 461.416 248.634 461.224C248.946 461.024 249.346 460.924 249.834 460.924C250.282 460.924 250.69 461.036 251.058 461.26C251.418 461.484 251.706 461.808 251.922 462.232C252.138 462.648 252.246 463.152 252.246 463.744Z" fill="black"/>
<path d="M279.226 366L290.692 340.212H275.152V336.6H294.976V339.666L283.636 366H279.226Z" fill="black"/>
<path d="M310.283 366.504C307.623 366.504 305.341 365.874 303.437 364.614C301.533 363.326 300.063 361.548 299.027 359.28C298.019 356.984 297.515 354.324 297.515 351.3C297.515 348.276 298.019 345.63 299.027 343.362C300.063 341.066 301.533 339.288 303.437 338.028C305.341 336.74 307.623 336.096 310.283 336.096C312.943 336.096 315.211 336.74 317.087 338.028C318.991 339.288 320.447 341.066 321.455 343.362C322.491 345.63 323.009 348.276 323.009 351.3C323.009 354.324 322.491 356.984 321.455 359.28C320.447 361.548 318.991 363.326 317.087 364.614C315.211 365.874 312.943 366.504 310.283 366.504ZM310.283 362.766C311.907 362.766 313.349 362.304 314.609 361.38C315.897 360.456 316.891 359.14 317.591 357.432C318.319 355.724 318.683 353.68 318.683 351.3C318.683 348.92 318.319 346.876 317.591 345.168C316.891 343.46 315.897 342.158 314.609 341.262C313.349 340.338 311.907 339.876 310.283 339.876C308.631 339.876 307.161 340.338 305.873 341.262C304.613 342.158 303.619 343.46 302.891 345.168C302.163 346.876 301.799 348.92 301.799 351.3C301.799 353.68 302.163 355.724 302.891 357.432C303.619 359.14 304.613 360.456 305.873 361.38C307.161 362.304 308.631 362.766 310.283 362.766Z" fill="black"/>
<path d="M330.811 366L347.737 336.6H351.895L334.969 366H330.811ZM349.921 366.504C348.605 366.504 347.429 366.21 346.393 365.622C345.357 365.034 344.531 364.208 343.915 363.144C343.299 362.052 342.991 360.778 342.991 359.322C342.991 357.81 343.299 356.522 343.915 355.458C344.531 354.394 345.357 353.568 346.393 352.98C347.429 352.392 348.591 352.098 349.879 352.098C351.223 352.098 352.399 352.392 353.407 352.98C354.443 353.568 355.255 354.394 355.843 355.458C356.459 356.522 356.767 357.81 356.767 359.322C356.767 360.778 356.459 362.052 355.843 363.144C355.255 364.208 354.443 365.034 353.407 365.622C352.371 366.21 351.209 366.504 349.921 366.504ZM349.837 363.396C350.481 363.396 351.055 363.242 351.559 362.934C352.091 362.626 352.511 362.178 352.819 361.59C353.155 360.974 353.323 360.204 353.323 359.28C353.323 358.356 353.169 357.6 352.861 357.012C352.553 356.396 352.133 355.934 351.601 355.626C351.097 355.318 350.523 355.164 349.879 355.164C349.291 355.164 348.731 355.318 348.199 355.626C347.667 355.934 347.233 356.396 346.897 357.012C346.589 357.6 346.435 358.356 346.435 359.28C346.435 360.204 346.589 360.974 346.897 361.59C347.233 362.178 347.653 362.626 348.157 362.934C348.689 363.242 349.249 363.396 349.837 363.396ZM333.079 350.544C331.763 350.544 330.587 350.25 329.551 349.662C328.515 349.074 327.689 348.248 327.073 347.184C326.457 346.092 326.149 344.804 326.149 343.32C326.149 341.836 326.457 340.562 327.073 339.498C327.689 338.434 328.515 337.608 329.551 337.02C330.615 336.432 331.791 336.138 333.079 336.138C334.395 336.138 335.557 336.432 336.565 337.02C337.601 337.608 338.427 338.434 339.043 339.498C339.659 340.562 339.967 341.836 339.967 343.32C339.967 344.804 339.659 346.092 339.043 347.184C338.427 348.248 337.601 349.074 336.565 349.662C335.529 350.25 334.367 350.544 333.079 350.544ZM333.037 347.436C333.681 347.436 334.255 347.282 334.759 346.974C335.291 346.666 335.711 346.218 336.019 345.63C336.327 345.014 336.481 344.244 336.481 343.32C336.481 342.396 336.327 341.626 336.019 341.01C335.711 340.394 335.291 339.932 334.759 339.624C334.255 339.316 333.695 339.162 333.079 339.162C332.463 339.162 331.889 339.316 331.357 339.624C330.825 339.932 330.391 340.394 330.055 341.01C329.747 341.626 329.593 342.396 329.593 343.32C329.593 344.216 329.747 344.972 330.055 345.588C330.391 346.204 330.825 346.666 331.357 346.974C331.889 347.282 332.449 347.436 333.037 347.436Z" fill="black"/>
<path d="M255.246 362.424C255.246 362.992 255.13 363.5 254.898 363.948C254.666 364.388 254.314 364.736 253.842 364.992C253.362 365.248 252.758 365.376 252.03 365.376H246.702L246.702 364.104H252.102C252.742 364.104 253.238 363.952 253.59 363.648C253.934 363.344 254.106 362.928 254.106 362.4C254.106 361.872 253.934 361.456 253.59 361.152C253.238 360.848 252.742 360.696 252.102 360.696H246.702L246.702 359.424H252.03C252.758 359.424 253.362 359.556 253.842 359.82C254.314 360.084 254.666 360.444 254.898 360.9C255.13 361.348 255.246 361.856 255.246 362.424Z" fill="black"/>
<path d="M255.246 355.121C255.246 355.713 255.138 356.233 254.922 356.681C254.706 357.121 254.398 357.469 253.998 357.725C253.598 357.973 253.122 358.101 252.57 358.109V356.765C252.994 356.757 253.358 356.613 253.662 356.333C253.958 356.045 254.106 355.645 254.106 355.133C254.106 354.661 253.998 354.293 253.782 354.029C253.558 353.765 253.27 353.633 252.918 353.633C252.622 353.633 252.378 353.713 252.186 353.873C251.986 354.025 251.81 354.265 251.658 354.593C251.498 354.921 251.334 355.345 251.166 355.865C250.942 356.561 250.634 357.073 250.242 357.401C249.842 357.729 249.354 357.893 248.778 357.893C248.114 357.893 247.578 357.653 247.17 357.173C246.762 356.693 246.558 356.033 246.558 355.193C246.558 354.377 246.77 353.721 247.194 353.225C247.61 352.729 248.19 352.473 248.934 352.457V353.813C248.734 353.813 248.542 353.869 248.358 353.981C248.166 354.093 248.01 354.253 247.89 354.461C247.762 354.669 247.698 354.925 247.698 355.229C247.69 355.605 247.782 355.921 247.974 356.177C248.158 356.433 248.41 356.561 248.73 356.561C249.122 356.561 249.43 356.405 249.654 356.093C249.87 355.781 250.094 355.273 250.326 354.569C250.47 354.129 250.646 353.741 250.854 353.405C251.054 353.061 251.314 352.793 251.634 352.601C251.946 352.401 252.346 352.301 252.834 352.301C253.282 352.301 253.69 352.413 254.058 352.637C254.418 352.861 254.706 353.185 254.922 353.609C255.138 354.025 255.246 354.529 255.246 355.121Z" fill="black"/>
<path d="M255.246 348.033C255.246 348.601 255.13 349.109 254.898 349.557C254.666 349.997 254.314 350.345 253.842 350.601C253.362 350.857 252.758 350.985 252.03 350.985H246.702L246.702 349.713H252.102C252.742 349.713 253.238 349.561 253.59 349.257C253.934 348.953 254.106 348.537 254.106 348.009C254.106 347.481 253.934 347.065 253.59 346.761C253.238 346.457 252.742 346.305 252.102 346.305H246.702L246.702 345.033H252.03C252.758 345.033 253.362 345.165 253.842 345.429C254.314 345.693 254.666 346.053 254.898 346.509C255.13 346.957 255.246 347.465 255.246 348.033Z" fill="black"/>
<path d="M255.102 344.078L246.702 341.57L246.702 340.058L255.102 337.55V338.93L253.086 339.494L253.086 342.134L255.102 342.698V344.078ZM248.502 340.85L252.066 341.846V339.782L248.502 340.778V340.85Z" fill="black"/>
<path d="M255.102 336.247H246.702L246.702 334.975H253.962V330.835H255.102V336.247Z" fill="black"/>
<path d="M255.102 329.051H246.702L246.702 327.779H253.962L253.962 323.639H255.102L255.102 329.051Z" fill="black"/>
<path d="M255.102 319.864H251.91L246.702 322.636L246.702 321.184L250.566 319.228L246.702 317.272L246.702 315.82L251.91 318.592H255.102V319.864Z" fill="black"/>
<path d="M255.102 307.477H246.702L246.702 302.113H247.842L247.842 306.205H250.29V302.473H251.418V306.205H253.962L253.962 302.113H255.102L255.102 307.477Z" fill="black"/>
<path d="M255.102 300.63H246.702L246.702 299.382L252.858 295.866H246.702L246.702 294.654H255.102V295.902L248.946 299.418H255.102V300.63Z" fill="black"/>
<path d="M255.102 293.363H246.702L246.702 291.347C246.702 289.995 247.078 288.991 247.83 288.335C248.574 287.679 249.598 287.351 250.902 287.351C252.206 287.351 253.234 287.679 253.986 288.335C254.73 288.991 255.102 289.995 255.102 291.347V293.363ZM253.926 292.091V291.395C253.926 290.419 253.654 289.715 253.11 289.283C252.558 288.851 251.822 288.635 250.902 288.635C249.982 288.635 249.25 288.851 248.706 289.283C248.154 289.715 247.878 290.419 247.878 291.395V292.091H253.926Z" fill="black"/>
<path d="M255.246 283.168C255.246 283.76 255.138 284.28 254.922 284.728C254.706 285.168 254.398 285.516 253.998 285.772C253.598 286.02 253.122 286.148 252.57 286.156V284.812C252.994 284.804 253.358 284.66 253.662 284.38C253.958 284.092 254.106 283.692 254.106 283.18C254.106 282.708 253.998 282.34 253.782 282.076C253.558 281.812 253.27 281.68 252.918 281.68C252.622 281.68 252.378 281.76 252.186 281.92C251.986 282.072 251.81 282.312 251.658 282.64C251.498 282.968 251.334 283.392 251.166 283.912C250.942 284.608 250.634 285.12 250.242 285.448C249.842 285.776 249.354 285.94 248.778 285.94C248.114 285.94 247.578 285.7 247.17 285.22C246.762 284.74 246.558 284.08 246.558 283.24C246.558 282.424 246.77 281.768 247.194 281.272C247.61 280.776 248.19 280.52 248.934 280.504L248.934 281.86C248.734 281.86 248.542 281.916 248.358 282.028C248.166 282.14 248.01 282.3 247.89 282.508C247.762 282.716 247.698 282.972 247.698 283.276C247.69 283.652 247.782 283.968 247.974 284.224C248.158 284.48 248.41 284.608 248.73 284.608C249.122 284.608 249.43 284.452 249.654 284.14C249.87 283.828 250.094 283.32 250.326 282.616C250.47 282.176 250.646 281.788 250.854 281.452C251.054 281.108 251.314 280.84 251.634 280.648C251.946 280.448 252.346 280.348 252.834 280.348C253.282 280.348 253.69 280.46 254.058 280.684C254.418 280.908 254.706 281.232 254.922 281.656C255.138 282.072 255.246 282.576 255.246 283.168Z" fill="black"/>
<path d="M255.246 268.885C255.246 269.453 255.13 269.961 254.898 270.409C254.666 270.849 254.314 271.197 253.842 271.453C253.362 271.709 252.758 271.837 252.03 271.837H246.702L246.702 270.565H252.102C252.742 270.565 253.238 270.413 253.59 270.109C253.934 269.805 254.106 269.389 254.106 268.861C254.106 268.333 253.934 267.917 253.59 267.613C253.238 267.309 252.742 267.157 252.102 267.157H246.702L246.702 265.885H252.03C252.758 265.885 253.362 266.017 253.842 266.281C254.314 266.545 254.666 266.905 254.898 267.361C255.13 267.809 255.246 268.317 255.246 268.885Z" fill="black"/>
<path d="M255.102 264.414H246.702L246.702 261.57C246.702 260.93 246.814 260.402 247.038 259.986C247.254 259.57 247.554 259.262 247.938 259.062C248.322 258.862 248.762 258.762 249.258 258.762C249.754 258.762 250.194 258.862 250.578 259.062C250.962 259.262 251.266 259.57 251.49 259.986C251.706 260.402 251.814 260.93 251.814 261.57V263.142H255.102V264.414ZM250.674 263.142V261.63C250.674 261.086 250.546 260.69 250.29 260.442C250.034 260.186 249.69 260.058 249.258 260.058C248.834 260.058 248.494 260.186 248.238 260.442C247.974 260.69 247.842 261.086 247.842 261.63L247.842 263.142H250.674Z" fill="black"/>
<path d="M255.102 249.735H253.974V247.911H247.83L247.83 249.711H246.702L246.702 244.839H247.83L247.83 246.639H253.974V244.815H255.102V249.735Z" fill="black"/>
<path d="M255.102 243.068H246.702L246.702 241.82L252.858 238.304H246.702L246.702 237.092H255.102V238.34L248.946 241.856H255.102V243.068Z" fill="black"/>
<path d="M255.102 228.317H246.702L246.702 227.045H253.962V222.905H255.102V228.317Z" fill="black"/>
<path d="M255.102 221.758L246.702 219.25L246.702 217.738L255.102 215.23V216.61L253.086 217.174V219.814L255.102 220.378V221.758ZM248.502 218.53L252.066 219.526V217.462L248.502 218.458V218.53Z" fill="black"/>
<path d="M255.102 214.286H246.702L246.702 213.038L252.858 209.522H246.702L246.702 208.31H255.102V209.558L248.946 213.074H255.102V214.286Z" fill="black"/>
<path d="M255.102 207.019H246.702L246.702 205.003C246.702 203.651 247.078 202.647 247.83 201.991C248.574 201.335 249.598 201.007 250.902 201.007C252.206 201.007 253.234 201.335 253.986 201.991C254.73 202.647 255.102 203.651 255.102 205.003V207.019ZM253.926 205.747V205.051C253.926 204.075 253.654 203.371 253.11 202.939C252.558 202.507 251.822 202.291 250.902 202.291C249.982 202.291 249.25 202.507 248.706 202.939C248.154 203.371 247.878 204.075 247.878 205.051L247.878 205.747H253.926Z" fill="black"/>
<path d="M255.102 199.5H246.702L246.702 194.112H247.89L247.89 198.228H250.458V194.772H251.574V198.228H255.102V199.5Z" fill="black"/>
<path d="M255.102 192.172H253.974V190.348H247.83L247.83 192.148H246.702L246.702 187.276H247.83V189.076H253.974V187.252H255.102V192.172Z" fill="black"/>
<path d="M255.102 185.145L246.702 185.145L246.702 183.873H253.962V179.733H255.102V185.145Z" fill="black"/>
<path d="M255.102 177.95L246.702 177.95L246.702 176.678L253.962 176.678L253.962 172.538L255.102 172.538L255.102 177.95Z" fill="black"/>
<path d="M40.2002 580V568.8H43.8162C44.6909 568.8 45.4055 568.949 45.9602 569.248C46.5149 569.536 46.9255 569.925 47.1922 570.416C47.4589 570.907 47.5922 571.461 47.5922 572.08C47.5922 572.677 47.4535 573.227 47.1762 573.728C46.9095 574.229 46.4935 574.629 45.9282 574.928C45.3629 575.227 44.6375 575.376 43.7522 575.376H41.5442V580H40.2002ZM46.1202 580L43.6562 574.992H45.1602L47.7042 580H46.1202ZM41.5442 574.32H43.7202C44.5735 574.32 45.1975 574.112 45.5922 573.696C45.9975 573.28 46.2002 572.747 46.2002 572.096C46.2002 571.435 46.0029 570.912 45.6082 570.528C45.2242 570.133 44.5895 569.936 43.7042 569.936H41.5442V574.32Z" fill="black"/>
<path d="M52.6718 580.192C51.9252 580.192 51.2585 580.016 50.6718 579.664C50.0852 579.312 49.6212 578.821 49.2798 578.192C48.9492 577.563 48.7838 576.827 48.7838 575.984C48.7838 575.131 48.9492 574.395 49.2798 573.776C49.6105 573.147 50.0692 572.656 50.6558 572.304C51.2532 571.952 51.9358 571.776 52.7038 571.776C53.4932 571.776 54.1652 571.952 54.7198 572.304C55.2745 572.656 55.6958 573.115 55.9838 573.68C56.2825 574.245 56.4318 574.869 56.4318 575.552C56.4318 575.659 56.4318 575.771 56.4318 575.888C56.4318 576.005 56.4265 576.139 56.4158 576.288H49.7918V575.248H55.1038C55.0718 574.512 54.8265 573.941 54.3678 573.536C53.9198 573.12 53.3545 572.912 52.6718 572.912C52.2238 572.912 51.8025 573.019 51.4078 573.232C51.0132 573.435 50.6932 573.733 50.4478 574.128C50.2132 574.523 50.0958 575.019 50.0958 575.616V576.064C50.0958 576.725 50.2185 577.28 50.4638 577.728C50.7092 578.165 51.0238 578.496 51.4078 578.72C51.8025 578.944 52.2238 579.056 52.6718 579.056C53.2372 579.056 53.7012 578.933 54.0638 578.688C54.4372 578.432 54.7092 578.085 54.8798 577.648H56.2078C56.0692 578.139 55.8398 578.576 55.5198 578.96C55.1998 579.333 54.7998 579.632 54.3198 579.856C53.8505 580.08 53.3012 580.192 52.6718 580.192Z" fill="black"/>
<path d="M61.3507 583.712C60.6254 583.712 59.9854 583.616 59.4307 583.424C58.876 583.243 58.444 582.96 58.1347 582.576C57.8254 582.192 57.6707 581.717 57.6707 581.152C57.6707 580.907 57.7187 580.645 57.8147 580.368C57.9214 580.101 58.0974 579.835 58.3427 579.568C58.5987 579.301 58.956 579.061 59.4147 578.848L60.3267 579.392C59.772 579.627 59.4094 579.893 59.2387 580.192C59.068 580.491 58.9827 580.768 58.9827 581.024C58.9827 581.376 59.084 581.669 59.2867 581.904C59.4894 582.139 59.7667 582.315 60.1187 582.432C60.4814 582.549 60.892 582.608 61.3507 582.608C61.8094 582.608 62.204 582.539 62.5347 582.4C62.8654 582.272 63.1214 582.091 63.3027 581.856C63.484 581.632 63.5747 581.36 63.5747 581.04C63.5747 580.677 63.436 580.368 63.1587 580.112C62.8814 579.867 62.3587 579.723 61.5907 579.68C60.9507 579.637 60.4174 579.579 59.9907 579.504C59.5747 579.429 59.228 579.344 58.9507 579.248C58.6734 579.141 58.4387 579.024 58.2467 578.896C58.0654 578.768 57.9 578.635 57.7507 578.496V578.128L59.3027 576.576L60.4707 576.992L58.8707 578.448L59.0787 577.888C59.196 577.973 59.308 578.053 59.4147 578.128C59.5214 578.192 59.6654 578.251 59.8467 578.304C60.028 578.357 60.2787 578.411 60.5987 578.464C60.9187 578.507 61.3507 578.549 61.8947 578.592C62.62 578.645 63.2014 578.773 63.6387 578.976C64.0867 579.179 64.4067 579.451 64.5987 579.792C64.8014 580.133 64.9027 580.533 64.9027 580.992C64.9027 581.451 64.7747 581.883 64.5187 582.288C64.2734 582.704 63.8894 583.045 63.3667 583.312C62.844 583.579 62.172 583.712 61.3507 583.712ZM61.3347 577.472C60.6627 577.472 60.092 577.349 59.6227 577.104C59.1534 576.848 58.796 576.507 58.5507 576.08C58.3054 575.643 58.1827 575.157 58.1827 574.624C58.1827 574.091 58.3054 573.611 58.5507 573.184C58.796 572.757 59.1534 572.416 59.6227 572.16C60.092 571.904 60.6627 571.776 61.3347 571.776C62.0174 571.776 62.5934 571.904 63.0627 572.16C63.532 572.416 63.8894 572.757 64.1347 573.184C64.38 573.611 64.5027 574.091 64.5027 574.624C64.5027 575.157 64.38 575.643 64.1347 576.08C63.8894 576.507 63.532 576.848 63.0627 577.104C62.5934 577.349 62.0174 577.472 61.3347 577.472ZM61.3347 576.368C61.9107 576.368 62.364 576.224 62.6947 575.936C63.036 575.637 63.2067 575.2 63.2067 574.624C63.2067 574.069 63.036 573.643 62.6947 573.344C62.364 573.045 61.9107 572.896 61.3347 572.896C60.7694 572.896 60.316 573.045 59.9747 573.344C59.6334 573.643 59.4627 574.069 59.4627 574.624C59.4627 575.2 59.6334 575.637 59.9747 575.936C60.316 576.224 60.7694 576.368 61.3347 576.368ZM62.6467 573.104L62.2467 571.968H65.5427V572.976L62.6467 573.104Z" fill="black"/>
<path d="M70.0009 580.192C69.3823 580.192 68.8383 580.069 68.3689 579.824C67.9103 579.579 67.5529 579.2 67.2969 578.688C67.0516 578.176 66.9289 577.531 66.9289 576.752V571.968H68.2729V576.608C68.2729 577.419 68.4489 578.027 68.8009 578.432C69.1529 578.837 69.6543 579.04 70.3049 579.04C70.7529 579.04 71.1583 578.933 71.5209 578.72C71.8836 578.496 72.1663 578.176 72.3689 577.76C72.5823 577.344 72.6889 576.837 72.6889 576.24V571.968H74.0329V580H72.8169L72.7369 578.592C72.4809 579.093 72.1129 579.488 71.6329 579.776C71.1529 580.053 70.6089 580.192 70.0009 580.192Z" fill="black"/>
<path d="M76.2448 580V568.48H77.5888V580H76.2448Z" fill="black"/>
<path d="M82.4473 580.192C81.7967 580.192 81.2527 580.08 80.8153 579.856C80.378 579.621 80.0527 579.317 79.8393 578.944C79.626 578.56 79.5193 578.149 79.5193 577.712C79.5193 577.168 79.658 576.709 79.9353 576.336C80.2233 575.952 80.6233 575.664 81.1353 575.472C81.658 575.269 82.266 575.168 82.9593 575.168H85.1033C85.1033 574.667 85.0233 574.251 84.8633 573.92C84.714 573.589 84.49 573.339 84.1913 573.168C83.8927 572.997 83.53 572.912 83.1033 572.912C82.5913 572.912 82.1487 573.04 81.7753 573.296C81.402 573.552 81.1727 573.931 81.0873 574.432H79.7113C79.7753 573.856 79.9673 573.376 80.2873 572.992C80.618 572.597 81.034 572.299 81.5353 572.096C82.0367 571.883 82.5593 571.776 83.1033 571.776C83.85 571.776 84.4687 571.915 84.9593 572.192C85.45 572.459 85.818 572.837 86.0633 573.328C86.3193 573.808 86.4473 574.373 86.4473 575.024V580H85.2473L85.1673 578.576C85.0607 578.8 84.922 579.013 84.7513 579.216C84.5913 579.408 84.3993 579.579 84.1753 579.728C83.962 579.867 83.7113 579.979 83.4233 580.064C83.1353 580.149 82.81 580.192 82.4473 580.192ZM82.6553 579.056C83.0287 579.056 83.3647 578.981 83.6633 578.832C83.9727 578.672 84.234 578.459 84.4473 578.192C84.6607 577.925 84.8207 577.627 84.9273 577.296C85.0447 576.955 85.1033 576.608 85.1033 576.256V576.208H83.0713C82.5593 576.208 82.1433 576.272 81.8233 576.4C81.5033 576.517 81.274 576.688 81.1353 576.912C80.9967 577.125 80.9273 577.371 80.9273 577.648C80.9273 577.936 80.9913 578.187 81.1193 578.4C81.258 578.603 81.4553 578.763 81.7113 578.88C81.9673 578.997 82.282 579.056 82.6553 579.056Z" fill="black"/>
<path d="M88.5104 580V571.968H89.7264L89.8384 573.504C90.0198 573.141 90.2491 572.832 90.5264 572.576C90.8144 572.32 91.1558 572.123 91.5504 571.984C91.9451 571.845 92.3931 571.776 92.8944 571.776V573.184H92.4304C92.0891 573.184 91.7638 573.232 91.4544 573.328C91.1451 573.413 90.8678 573.557 90.6224 573.76C90.3878 573.952 90.2011 574.224 90.0624 574.576C89.9238 574.928 89.8544 575.36 89.8544 575.872V580H88.5104Z" fill="black"/>
<path d="M98.6511 583.52V571.968H99.8671L99.9951 573.28C100.166 573.024 100.384 572.784 100.651 572.56C100.918 572.325 101.238 572.139 101.611 572C101.984 571.851 102.416 571.776 102.907 571.776C103.686 571.776 104.363 571.963 104.939 572.336C105.526 572.699 105.979 573.2 106.299 573.84C106.63 574.469 106.795 575.189 106.795 576C106.795 576.811 106.63 577.531 106.299 578.16C105.979 578.789 105.526 579.285 104.939 579.648C104.352 580.011 103.67 580.192 102.891 580.192C102.24 580.192 101.664 580.059 101.163 579.792C100.662 579.525 100.272 579.152 99.9951 578.672V583.52H98.6511ZM102.731 579.024C103.264 579.024 103.734 578.901 104.139 578.656C104.544 578.4 104.859 578.043 105.083 577.584C105.318 577.125 105.435 576.592 105.435 575.984C105.435 575.376 105.318 574.843 105.083 574.384C104.859 573.925 104.544 573.573 104.139 573.328C103.734 573.072 103.264 572.944 102.731 572.944C102.198 572.944 101.728 573.072 101.323 573.328C100.918 573.573 100.603 573.925 100.379 574.384C100.155 574.843 100.043 575.376 100.043 575.984C100.043 576.592 100.155 577.125 100.379 577.584C100.603 578.043 100.918 578.4 101.323 578.656C101.728 578.901 102.198 579.024 102.731 579.024Z" fill="black"/>
<path d="M108.682 580V571.968H109.898L110.01 573.504C110.192 573.141 110.421 572.832 110.698 572.576C110.986 572.32 111.328 572.123 111.722 571.984C112.117 571.845 112.565 571.776 113.066 571.776V573.184H112.602C112.261 573.184 111.936 573.232 111.626 573.328C111.317 573.413 111.04 573.557 110.794 573.76C110.56 573.952 110.373 574.224 110.234 574.576C110.096 574.928 110.026 575.36 110.026 575.872V580H108.682Z" fill="black"/>
<path d="M117.892 580.192C117.145 580.192 116.473 580.021 115.876 579.68C115.279 579.328 114.804 578.837 114.452 578.208C114.111 577.579 113.94 576.837 113.94 575.984C113.94 575.131 114.116 574.389 114.468 573.76C114.82 573.131 115.295 572.645 115.892 572.304C116.5 571.952 117.177 571.776 117.924 571.776C118.681 571.776 119.359 571.952 119.956 572.304C120.553 572.645 121.023 573.131 121.364 573.76C121.705 574.389 121.876 575.131 121.876 575.984C121.876 576.837 121.7 577.579 121.348 578.208C121.007 578.837 120.532 579.328 119.924 579.68C119.327 580.021 118.649 580.192 117.892 580.192ZM117.892 579.04C118.361 579.04 118.793 578.928 119.188 578.704C119.583 578.469 119.897 578.128 120.132 577.68C120.377 577.221 120.5 576.656 120.5 575.984C120.5 575.301 120.383 574.736 120.148 574.288C119.913 573.84 119.599 573.504 119.204 573.28C118.809 573.045 118.383 572.928 117.924 572.928C117.476 572.928 117.049 573.045 116.644 573.28C116.249 573.504 115.929 573.84 115.684 574.288C115.439 574.736 115.316 575.301 115.316 575.984C115.316 576.656 115.439 577.221 115.684 577.68C115.929 578.128 116.244 578.469 116.628 578.704C117.023 578.928 117.444 579.04 117.892 579.04Z" fill="black"/>
<path d="M127.344 580.192C126.566 580.192 125.878 580.011 125.28 579.648C124.694 579.275 124.235 578.773 123.904 578.144C123.584 577.504 123.424 576.779 123.424 575.968C123.424 575.157 123.584 574.437 123.904 573.808C124.235 573.179 124.694 572.683 125.28 572.32C125.878 571.957 126.571 571.776 127.36 571.776C128.011 571.776 128.587 571.909 129.088 572.176C129.59 572.443 129.974 572.816 130.24 573.296V568.48H131.584V580H130.368L130.24 578.688C130.07 578.944 129.851 579.189 129.584 579.424C129.328 579.648 129.014 579.835 128.64 579.984C128.267 580.123 127.835 580.192 127.344 580.192ZM127.488 579.024C128.022 579.024 128.491 578.901 128.896 578.656C129.312 578.4 129.632 578.043 129.856 577.584C130.08 577.125 130.192 576.592 130.192 575.984C130.192 575.376 130.08 574.843 129.856 574.384C129.632 573.925 129.312 573.573 128.896 573.328C128.491 573.072 128.022 572.944 127.488 572.944C126.976 572.944 126.512 573.072 126.096 573.328C125.691 573.573 125.371 573.925 125.136 574.384C124.912 574.843 124.8 575.376 124.8 575.984C124.8 576.592 124.912 577.125 125.136 577.584C125.371 578.043 125.691 578.4 126.096 578.656C126.512 578.901 126.976 579.024 127.488 579.024Z" fill="black"/>
<path d="M136.72 580.192C136.101 580.192 135.557 580.069 135.088 579.824C134.629 579.579 134.272 579.2 134.016 578.688C133.77 578.176 133.648 577.531 133.648 576.752V571.968H134.992V576.608C134.992 577.419 135.168 578.027 135.52 578.432C135.872 578.837 136.373 579.04 137.024 579.04C137.472 579.04 137.877 578.933 138.24 578.72C138.602 578.496 138.885 578.176 139.088 577.76C139.301 577.344 139.408 576.837 139.408 576.24V571.968H140.752V580H139.536L139.456 578.592C139.2 579.093 138.832 579.488 138.352 579.776C137.872 580.053 137.328 580.192 136.72 580.192Z" fill="black"/>
<path d="M146.612 580.192C145.854 580.192 145.172 580.016 144.564 579.664C143.966 579.312 143.492 578.821 143.14 578.192C142.798 577.563 142.628 576.827 142.628 575.984C142.628 575.141 142.798 574.405 143.14 573.776C143.492 573.147 143.966 572.656 144.564 572.304C145.172 571.952 145.854 571.776 146.612 571.776C147.572 571.776 148.372 572.027 149.012 572.528C149.652 573.019 150.057 573.68 150.228 574.512H148.852C148.745 574.011 148.484 573.621 148.068 573.344C147.652 573.067 147.161 572.928 146.596 572.928C146.137 572.928 145.71 573.045 145.316 573.28C144.932 573.504 144.617 573.845 144.372 574.304C144.126 574.752 144.004 575.312 144.004 575.984C144.004 576.485 144.073 576.928 144.212 577.312C144.361 577.696 144.553 578.021 144.788 578.288C145.022 578.544 145.294 578.736 145.604 578.864C145.924 578.992 146.254 579.056 146.596 579.056C146.98 579.056 147.326 578.997 147.636 578.88C147.945 578.752 148.206 578.571 148.42 578.336C148.633 578.091 148.777 577.797 148.852 577.456H150.228C150.057 578.277 149.646 578.939 148.996 579.44C148.356 579.941 147.561 580.192 146.612 580.192Z" fill="black"/>
<path d="M155.053 580C154.573 580 154.157 579.925 153.805 579.776C153.453 579.627 153.181 579.376 152.989 579.024C152.808 578.661 152.717 578.176 152.717 577.568V573.104H151.325V571.968H152.717L152.893 570.032H154.061V571.968H156.413V573.104H154.061V577.568C154.061 578.069 154.163 578.411 154.365 578.592C154.568 578.763 154.925 578.848 155.437 578.848H156.301V580H155.053Z" fill="black"/>
<path d="M158.279 580V571.968H159.623V580H158.279ZM158.951 570.24C158.685 570.24 158.461 570.155 158.279 569.984C158.109 569.803 158.023 569.579 158.023 569.312C158.023 569.045 158.109 568.832 158.279 568.672C158.461 568.501 158.685 568.416 158.951 568.416C159.207 568.416 159.426 568.501 159.607 568.672C159.789 568.832 159.879 569.045 159.879 569.312C159.879 569.579 159.789 569.803 159.607 569.984C159.426 570.155 159.207 570.24 158.951 570.24Z" fill="black"/>
<path d="M165.58 580.192C164.833 580.192 164.161 580.021 163.564 579.68C162.966 579.328 162.492 578.837 162.14 578.208C161.798 577.579 161.628 576.837 161.628 575.984C161.628 575.131 161.804 574.389 162.156 573.76C162.508 573.131 162.982 572.645 163.58 572.304C164.188 571.952 164.865 571.776 165.612 571.776C166.369 571.776 167.046 571.952 167.644 572.304C168.241 572.645 168.71 573.131 169.052 573.76C169.393 574.389 169.564 575.131 169.564 575.984C169.564 576.837 169.388 577.579 169.036 578.208C168.694 578.837 168.22 579.328 167.612 579.68C167.014 580.021 166.337 580.192 165.58 580.192ZM165.58 579.04C166.049 579.04 166.481 578.928 166.876 578.704C167.27 578.469 167.585 578.128 167.82 577.68C168.065 577.221 168.188 576.656 168.188 575.984C168.188 575.301 168.07 574.736 167.836 574.288C167.601 573.84 167.286 573.504 166.892 573.28C166.497 573.045 166.07 572.928 165.612 572.928C165.164 572.928 164.737 573.045 164.332 573.28C163.937 573.504 163.617 573.84 163.372 574.288C163.126 574.736 163.004 575.301 163.004 575.984C163.004 576.656 163.126 577.221 163.372 577.68C163.617 578.128 163.932 578.469 164.316 578.704C164.71 578.928 165.132 579.04 165.58 579.04Z" fill="black"/>
<path d="M171.448 580V571.968H172.664L172.744 573.376C173 572.875 173.363 572.485 173.832 572.208C174.312 571.92 174.856 571.776 175.464 571.776C176.093 571.776 176.637 571.899 177.096 572.144C177.555 572.389 177.912 572.768 178.168 573.28C178.424 573.792 178.552 574.437 178.552 575.216V580H177.208V575.36C177.208 574.549 177.032 573.941 176.68 573.536C176.328 573.131 175.821 572.928 175.16 572.928C174.712 572.928 174.307 573.04 173.944 573.264C173.592 573.477 173.309 573.792 173.096 574.208C172.893 574.624 172.792 575.131 172.792 575.728V580H171.448Z" fill="black"/>
<rect x="230" y="5" width="7" height="344" fill="#AC7755"/>
<rect x="230" y="350.048" width="7.32018" height="191.951" fill="url(#paint0_linear_1225_617)"/>
<path d="M65.7875 166.379C65.5241 166.505 65.6412 166.442 65.7875 166.379V166.379Z" fill="url(#paint1_linear_1225_617)"/>
<path d="M174.536 268.996C170.088 266.321 170.673 260.174 170.937 254.951C171.464 249.568 172.459 243.421 173.278 238.421C173.6 236.478 174.01 234.567 174.361 232.657C174.536 231.191 174.068 231.096 173.161 231.988C172.078 233.357 170.439 237.179 169.678 239.281C168.391 243.931 167.513 246.383 167.132 250.301C164.791 265.365 159.494 275.907 150.129 285.526C149.983 285.685 150.481 268.391 150.773 264.41C151.066 260.684 151.944 255.715 149.573 255.62C146.179 255.492 145.857 258.677 145.418 261.448C144.54 267.149 143.223 275.971 142.813 281.736C141.73 296.832 139.184 311.228 133.302 325.241C130.229 332.535 126.278 339.128 120.104 343.778C118.523 344.956 116.592 345.561 114.046 346.803C113.87 343.841 113.519 342.121 113.694 340.497C114.894 330.051 115.977 319.572 117.557 309.19C119.489 296.514 124.757 285.207 130.551 274.188C136.082 263.709 139.711 252.53 141.233 240.523C141.935 234.95 142.93 229.44 144.072 223.962C145.593 216.637 158.236 202.878 159.289 201.604C161.162 199.374 163.035 191.54 159.406 196.253C157.446 198.801 141.76 212.687 141.438 205.776C140.384 197.336 140.765 190.234 141.408 183.1C143.106 164.5 148.637 147.11 155.982 130.358C160.957 119.02 164.85 107.363 166.43 94.878C167.425 86.9158 170 80.0046 176.497 75.3228C178.165 74.1125 179.453 72.0423 180.477 70.0995C183.989 63.3157 182.321 53.5699 176.468 48.697C174.975 50.4806 178.37 54.2388 177.873 61.6914C177.492 67.1376 171.698 72.2653 166.576 72.5519C166.167 69.367 162.684 51.6908 160.987 46.2447C160.606 45.0344 158.411 43.5375 157.387 43.7923C156.275 44.0789 155.719 44.8433 155.251 46.3402C154.812 47.7734 155.339 52.7737 155.339 54.3662C155.221 65.2266 155.104 74.1443 154.139 84.9411C153.29 94.6551 150.978 104.242 148.93 113.796C143.603 138.638 135.409 141.76 134.063 144.467C127.42 103.414 134.941 102.076 133.887 101.917C132.892 101.789 130.376 104.719 129.644 105.866C128.649 107.426 126.483 112.013 125.986 113.86C122.211 128.192 125.605 174.437 126.044 184.979C126.571 197.432 126.044 210.044 127.625 222.337C130.727 246.606 121.391 266.193 109.422 284.984C106.232 289.985 103.042 289.411 100.876 283.901C96.0477 271.512 93.7943 258.709 96.2525 245.301C99.4132 228.038 103.657 211.127 110.241 194.947C111.997 190.616 113.636 186.157 114.602 181.571C116.562 172.144 115.07 169.978 105.881 168.29C106.144 163.417 105.793 158.257 106.846 153.448C109.831 139.785 113.138 126.217 116.826 112.745C120.952 97.6807 127.127 83.6353 135.468 70.6728C139.243 64.8126 142.286 58.3473 145.476 52.0412C146.383 50.2258 148.403 45.2892 147.466 45.13C146.237 44.9389 145.184 45.8943 144.715 46.2765C136.082 53.4425 128.678 61.5003 126.22 73.6348C125.108 79.1446 122.211 83.6035 118.172 87.6165C113.373 75.9597 112.846 57.36 116.182 49.8755C118.318 45.13 121.537 42.0088 126.074 40.48C129.468 39.3334 133.097 38.8239 136.287 37.2951C141.701 34.6835 146.939 31.5942 152.09 28.4093C153.349 27.6449 155.163 26.0843 155.017 24.3963C154.695 23.9186 154.431 23.5364 153.29 23.823C141.438 28.4411 130.434 31.4668 117.967 36.3078C116.358 36.3396 115.831 40.5756 117.382 12.1344C117.762 4.90474 120.952 0 118.582 0C116.006 0.382187 112.29 11.593 111.792 13.2173C108.339 24.9059 104.886 46.3721 104.681 47.9964C98.2426 44.9707 97.0134 39.9067 93.209 32.8363C89.2289 25.3836 88.5559 11.179 87.4438 2.80271C85.9513 4.77734 84.9855 6.72013 84.6636 8.75846C82.3224 23.9504 84.927 37.5499 94.5844 49.4933C98.1255 53.8566 101.228 59.2709 102.837 64.7808C107.637 81.2467 106.115 97.8081 100.964 113.924C98.9742 120.102 95.4624 120.357 92.0091 114.815C90.3118 112.076 89.0826 108.955 87.8828 105.93C86.8585 103.35 86.0098 100.675 85.366 97.9674C83.2882 89.0497 76.4109 87.075 69.0068 84.2405C68.919 86.4062 68.4508 88.1579 68.8605 89.5911C69.9433 93.2537 71.0554 96.98 72.782 100.292C75.3573 105.165 78.3716 109.72 81.3859 114.306C88.3217 124.912 92.4774 136.568 92.5359 149.626C92.5944 162.78 92.6822 175.997 91.775 189.119C91.0141 199.916 88.907 210.617 87.2097 221.35C86.8292 223.834 85.6586 226.159 84.8392 228.548C84.371 228.771 83.8735 228.994 83.4052 229.217C83.0833 228.389 82.8199 227.561 82.4102 226.764C76.8791 215.522 73.6892 203.801 75.4744 190.807C76.9084 180.456 80.0105 170.71 83.6393 161.092C84.4295 158.99 84.7514 156.633 85.3074 154.404C84.9855 154.213 84.6636 154.053 84.3417 153.862C82.1761 155.773 78.7521 165.551 76.9669 160.359C77.3181 148.543 82.5565 138.32 77.7278 127.682C75.9719 128.128 74.4501 132.523 73.8648 135.262C72.1382 143.288 70.8213 151.41 69.2117 159.468C68.802 161.57 68.4508 164.372 65.7584 166.347C65.9047 166.283 66.0218 166.22 65.7584 166.347C64.7927 167.016 63.8562 164.181 63.0075 160.359C59.4957 159.754 61.4857 166.888 62.1881 170.296C63.5635 176.953 63.944 184.947 65.5828 191.571C66.0803 193.61 66.4315 195.68 66.8412 197.75C66.4901 197.877 66.1681 198.005 65.817 198.132C65.3195 197.527 64.7049 197.018 64.383 196.317C59.8176 186.571 56.1302 176.443 54.9596 165.487C54.3451 159.786 53.1452 150.136 56.0424 145.04C57.7983 141.823 58.3251 142.174 58.5007 139.467C58.5592 138.416 57.7983 138.32 56.7448 138.384C55.7205 138.416 54.7841 139.403 54.0524 140.135C51.0381 143.161 50.4528 146.25 50.5114 150.709C50.5406 152.811 50.3358 154.881 50.248 156.983C48.2872 157.015 47.0581 153.162 46.385 151.091C44.8047 146.282 43.5756 141.377 41.8782 136.632C37.8689 125.389 36.6105 114.21 41.7319 102.968C42.1416 102.044 42.4342 100.961 42.4635 99.942C42.4928 98.891 42.1708 97.84 41.9367 96.5342C37.1665 98.6043 36.9909 103.636 34.5912 107.522C33.3328 102.904 32.4549 98.7636 31.1087 94.8462C29.6747 90.7695 28.0651 86.6928 26.0166 82.9347C24.1729 79.495 22.2707 75.7368 17.2663 74.3354C20.1343 83.1258 24.963 90.4192 24.6704 99.528C23.0608 98.1903 21.978 96.5979 21.0415 94.9099C17.3249 88.126 12.5547 82.4888 5.94079 79.0172C4.38975 78.1892 2.57532 77.9981 0.87795 77.5203C0.5853 78.0299 0.29265 78.5077 0 79.0172C2.80944 82.4888 5.50182 86.0877 8.42832 89.4318C17.0615 99.305 24.4948 110.07 30.2307 122.173C30.9916 123.797 31.5769 125.517 32.25 127.205C31.9574 127.555 31.694 127.937 31.4013 128.288C20.6903 126.408 10.9451 121.504 1.19986 115.739C1.49251 118.191 2.01928 120.325 2.98503 122.173C6.02859 127.937 11.0622 130.549 16.7103 132.046C20.9537 133.192 25.1972 134.148 29.4113 135.358C32.9816 136.377 35.0009 138.989 36.0252 142.938C38.6298 152.907 41.527 162.78 44.2779 172.685C44.7462 174.405 46.1801 177.016 44.3657 178.959C44.4535 178.864 44.5413 178.8 44.3657 178.959C44.3072 179.023 44.2779 179.023 44.2779 179.055C44.3072 179.023 44.3365 178.991 44.3657 178.959C38.8639 175.456 33.5669 175.042 28.1529 171.347C25.7825 169.723 22.856 165.71 21.3634 168.545C19.5197 170.487 34.679 179.66 38.0445 181.889C46.2094 187.335 53.0282 194.342 57.2716 203.674C61.2809 212.432 64.9097 221.509 67.8655 230.746C74.1867 250.492 80.0105 270.398 85.922 290.271C87.6194 295.94 89.1997 301.673 90.5459 307.47C93.5602 320.4 94.204 333.49 92.4774 346.676C92.2432 348.427 91.5994 350.115 91.1604 351.835C90.7507 351.867 90.341 351.899 89.902 351.931C89.1704 350.115 88.3217 348.332 87.7657 346.421C86.0683 340.752 84.7514 334.923 82.7614 329.382C81.9712 327.152 80.1568 324.35 78.2838 323.776C74.8891 322.757 74.0111 320.814 73.8063 317.47C73.6307 314.699 73.1039 311.897 72.4894 309.19C72.226 308.075 71.348 307.151 70.7335 306.132C70.3823 306.291 70.0311 306.482 69.6799 306.642C68.1581 317.566 68.919 328.044 74.9476 337.599C77.2303 341.23 79.6008 344.797 81.5615 348.619C84.4588 354.256 85.3952 360.148 84.7807 366.135H153.407C157.943 363.779 161.865 360.466 164.82 355.816C166.167 353.714 168.04 351.23 165.493 348.236C161.484 351.485 159.172 357.281 152.354 357.759C153.495 355.498 154.051 354.128 154.841 352.886C155.836 351.294 157.153 349.924 158.089 348.3C159.465 345.911 162.567 343.172 159.962 340.529C157.446 337.981 154.9 341.293 152.88 343.045C149.486 346.007 146.501 349.51 143.164 352.568C139.857 355.625 136.404 358.555 132.834 361.199C131.429 362.25 129.468 362.441 127.742 363.046C127.478 362.664 127.244 362.282 126.981 361.931C128.59 359.384 130.054 356.676 131.839 354.288C137.955 346.134 142.228 336.994 144.92 326.898C146.852 319.668 149.164 312.502 151.505 305.4C154.987 294.73 161.162 286.481 170.41 281.003C173.102 279.411 191.773 269.092 192.973 263.869C194.027 258.454 178.253 270.206 174.536 268.996ZM104.505 48.1875C104.476 48.2193 104.476 48.2193 104.505 48.1875V48.1875ZM104.622 48.0601C104.564 48.0919 104.535 48.1238 104.505 48.1556C104.535 48.1556 104.593 48.0919 104.622 48.0601Z" fill="url(#paint2_linear_1225_617)"/>
<path d="M84.9125 366C84.6768 368.327 84.2054 370.654 83.5572 372.981C77.0462 394.18 77.3998 530.679 78.9318 536.959C79.6094 539.732 80.67 541.932 83.7045 541.964C89.7147 541.996 101.735 542.059 107.745 541.868C110.927 541.772 111.752 540.274 110.927 536.991C110.456 535.142 109.631 533.389 109.012 531.572C106.979 525.834 107.834 520.191 106.272 514.326C104.269 506.898 99.5254 406.676 104.151 400.109C113.873 386.274 125.304 374.83 141.479 370.367C144.307 369.602 147.165 368.837 149.934 367.817C151.348 367.307 152.704 366.701 154 366.032H84.9125V366Z" fill="url(#paint3_linear_1225_617)"/>
<defs>
<linearGradient id="paint0_linear_1225_617" x1="227.929" y1="377.314" x2="252.866" y2="380.777" gradientUnits="userSpaceOnUse">
<stop stop-color="#FFB78A"/>
<stop offset="1" stop-color="#D19162"/>
</linearGradient>
<linearGradient id="paint1_linear_1225_617" x1="65.7092" y1="166.379" x2="65.7092" y2="166.452" gradientUnits="userSpaceOnUse">
<stop stop-color="#FBDAC6"/>
<stop offset="1" stop-color="#AA7351"/>
</linearGradient>
<linearGradient id="paint2_linear_1225_617" x1="96.5119" y1="0" x2="96.5119" y2="366.135" gradientUnits="userSpaceOnUse">
<stop stop-color="#FBDAC6"/>
<stop offset="1" stop-color="#AA7351"/>
</linearGradient>
<linearGradient id="paint3_linear_1225_617" x1="56.5" y1="391" x2="132.5" y2="510.5" gradientUnits="userSpaceOnUse">
<stop stop-color="#ECBFA2"/>
<stop offset="1" stop-color="#FFA463"/>
</linearGradient>
</defs>
</svg>
