<svg width="33" height="32" viewBox="0 0 33 32" fill="none" xmlns="http://www.w3.org/2000/svg">
<path d="M13.1602 20V11.04H16.309C16.9404 11.04 17.461 11.1424 17.8706 11.3472C18.2887 11.5435 18.6002 11.8166 18.805 12.1664C19.0098 12.5078 19.1122 12.8918 19.1122 13.3184C19.1122 13.7792 19.0098 14.1632 18.805 14.4704C18.6087 14.7776 18.3484 15.0123 18.0242 15.1744C17.7084 15.3366 17.3714 15.4347 17.013 15.4688L17.1922 15.3408C17.5762 15.3494 17.9303 15.4518 18.2546 15.648C18.5788 15.8443 18.8348 16.1088 19.0226 16.4416C19.2188 16.7744 19.317 17.1456 19.317 17.5552C19.317 18.0075 19.206 18.4214 18.9842 18.7968C18.7623 19.1638 18.4338 19.4582 17.9986 19.68C17.5719 19.8934 17.0428 20 16.4114 20H13.1602ZM14.2354 19.104H16.2962C16.902 19.104 17.3714 18.9632 17.7042 18.6816C18.0455 18.3915 18.2162 17.9904 18.2162 17.4784C18.2162 16.975 18.0412 16.5739 17.6914 16.2752C17.35 15.968 16.8764 15.8144 16.2706 15.8144H14.2354V19.104ZM14.2354 14.9568H16.2322C16.8124 14.9568 17.2519 14.8203 17.5506 14.5472C17.8578 14.2742 18.0114 13.903 18.0114 13.4336C18.0114 12.9814 17.8578 12.6187 17.5506 12.3456C17.2519 12.0726 16.7996 11.936 16.1938 11.936H14.2354V14.9568Z" fill="black"/>
<circle cx="16.2002" cy="16" r="15.5" stroke="black"/>
</svg>
