<svg width="32" height="32" viewBox="0 0 32 32" fill="none" xmlns="http://www.w3.org/2000/svg">
<path d="M16.8512 20.1536C15.9808 20.1536 15.2256 19.9616 14.5856 19.5776C13.9541 19.185 13.4634 18.6432 13.1136 17.952C12.7722 17.2522 12.6016 16.4416 12.6016 15.52C12.6016 14.5984 12.7722 13.792 13.1136 13.1008C13.4634 12.401 13.9541 11.8592 14.5856 11.4752C15.2256 11.0826 15.9808 10.8864 16.8512 10.8864C17.8837 10.8864 18.7157 11.1296 19.3472 11.616C19.9872 12.1024 20.3968 12.7893 20.576 13.6768H19.3984C19.2618 13.1221 18.9845 12.6784 18.5664 12.3456C18.1482 12.0042 17.5765 11.8336 16.8512 11.8336C16.2197 11.8336 15.665 11.9829 15.1872 12.2816C14.7178 12.5717 14.3509 12.9941 14.0864 13.5488C13.8304 14.0949 13.7024 14.752 13.7024 15.52C13.7024 16.288 13.8304 16.9493 14.0864 17.504C14.3509 18.0501 14.7178 18.4725 15.1872 18.7712C15.665 19.0613 16.2197 19.2064 16.8512 19.2064C17.5765 19.2064 18.1482 19.0442 18.5664 18.72C18.9845 18.3872 19.2618 17.9477 19.3984 17.4016H20.576C20.3968 18.2634 19.9872 18.9376 19.3472 19.424C18.7157 19.9104 17.8837 20.1536 16.8512 20.1536Z" fill="black"/>
<circle cx="16" cy="16" r="15.5" stroke="black"/>
</svg>
