<svg width="787" height="1474" viewBox="0 0 787 1474" fill="none" xmlns="http://www.w3.org/2000/svg">
<g clip-path="url(#clip0_1195_1120)">
<path d="M242.154 638.089C241.53 643.861 241.686 647.294 240.906 650.414C229.36 692.849 246.523 726.392 273.827 756.502C283.969 767.735 294.111 765.707 298.323 751.041C301.6 739.653 301.6 727.172 301.6 715.315C301.6 708.138 298.948 700.806 300.508 691.757C303.16 694.721 306.593 697.061 308.465 700.494C320.011 722.023 322.196 744.489 313.77 767.735C312.054 772.571 309.869 777.563 307.217 781.932C254.636 865.554 268.366 951.361 298.635 1037.64C301.132 1044.97 306.593 1051.21 313.302 1057.92C319.075 1028.74 316.891 997.384 343.883 975.387C343.103 981.471 342.791 987.711 341.543 993.796C333.898 1031.08 331.245 1068.53 339.515 1105.97C349.968 1153.08 374.621 1192.71 405.67 1228.59C417.684 1242.48 427.046 1239.83 432.663 1221.73C441.244 1194.11 440.464 1166.66 425.953 1140.92C418.932 1128.28 410.351 1116.58 402.237 1104.56C380.55 1073.05 377.897 1038.42 383.358 1002.38C384.606 1001.75 385.855 1001.28 387.103 1000.66C389.287 1003.94 392.564 1007.06 393.344 1010.65C395.528 1019.54 397.557 1028.74 398.025 1037.95C398.805 1049.02 401.925 1055.42 414.095 1058.85C420.805 1060.72 427.358 1069.93 430.166 1077.42C437.187 1095.67 442.024 1115.02 448.109 1133.74C450.138 1139.98 453.258 1145.91 455.755 1151.84C457.315 1151.68 458.719 1151.68 460.279 1151.52C461.84 1145.91 464.18 1140.29 465.116 1134.52C471.201 1090.99 469.017 1047.78 458.095 1005.18C453.258 986.151 447.641 967.118 441.556 948.396C420.18 882.872 399.273 817.034 376.649 751.977C366.039 721.399 353.089 691.601 338.578 662.583C323.288 631.848 298.948 608.603 269.458 590.817C257.444 583.485 245.43 578.024 230.296 579.428C223.899 580.052 215.629 576.152 210.48 571.784C202.523 565.075 202.991 553.218 209.544 546.822C217.033 539.489 224.367 540.893 232.948 546.198C252.296 558.367 272.267 569.6 292.082 581.145C293.487 580.052 294.735 578.804 296.139 577.712C294.735 571.94 293.643 566.011 291.926 560.395C282.097 527.633 271.643 495.182 262.281 462.264C258.537 449.159 251.359 440.578 238.565 437.302C223.43 433.245 208.14 430.125 192.849 426.381C172.566 421.388 154.467 412.808 143.545 393.774C140.112 387.69 138.24 380.669 137.148 372.557C172.098 391.59 207.048 407.815 245.586 413.9C246.679 412.652 247.615 411.56 248.707 410.312C246.366 404.851 244.182 399.079 241.53 393.774C220.934 353.835 194.253 318.265 163.204 285.658C152.75 274.581 142.921 262.724 132.935 251.336C134.027 249.619 135.119 248.059 136.055 246.343C142.14 247.903 148.694 248.527 154.311 251.336C178.027 262.724 195.19 281.29 208.452 303.755C211.729 309.372 215.785 314.676 221.558 319.045C222.65 289.09 205.331 265.065 195.034 235.89C212.977 240.415 219.842 252.896 226.551 264.285C233.884 276.765 239.657 290.026 244.806 303.6C249.643 316.548 252.764 330.121 257.288 345.411C266.026 332.462 266.494 315.924 283.657 309.06C284.437 313.428 285.685 316.861 285.529 320.293C285.373 323.725 284.437 327.313 282.877 330.278C264.466 367.408 268.99 404.383 283.345 441.358C289.43 456.959 293.799 473.34 299.416 489.098C301.912 495.962 305.501 502.359 308.621 509.067C310.181 508.911 311.742 508.755 313.302 508.599C313.614 501.735 314.394 494.87 314.238 487.849C314.082 473.184 318.763 460.391 329.529 450.407C332.181 447.91 337.642 445.258 339.983 446.35C343.259 448.066 347.004 453.371 346.848 456.803C346.224 465.696 345.6 475.837 341.075 483.169C330.777 500.018 328.125 517.804 330.309 536.525C334.522 572.72 347.628 606.106 364.167 638.245C365.259 640.585 367.599 642.301 369.316 644.329C370.564 643.861 371.812 643.549 373.06 643.081C371.5 636.217 370.252 629.352 368.536 622.8C362.607 600.958 355.741 579.428 350.749 557.431C348.252 546.198 346.224 533.561 359.174 519.832C362.919 527.164 365.883 533.405 369.004 539.489C370.876 538.709 372.904 537.929 374.777 536.993C376.961 530.285 379.926 523.732 381.33 516.712C387.103 490.19 391.784 463.356 398.025 436.834C400.209 427.941 405.67 419.672 411.911 411.872C429.23 446.974 410.351 480.673 409.103 519.676C420.024 510.783 427.826 504.543 435.627 498.302C436.719 498.926 437.968 499.394 439.06 500.018C437.187 507.351 435.939 514.996 433.131 522.016C420.18 553.686 408.947 585.825 403.798 619.991C397.401 662.739 408.791 701.43 428.606 738.56C430.01 741.213 430.946 743.865 432.195 746.673C433.911 745.893 435.627 745.113 437.343 744.489C440.308 736.532 444.521 728.888 445.925 720.775C452.01 685.36 459.655 650.102 462.308 614.531C465.584 571.316 465.272 527.633 465.116 484.261C464.804 441.202 449.982 402.667 425.017 367.72C414.251 352.587 403.33 337.454 394.124 321.541C387.883 310.62 383.826 298.295 379.926 286.282C378.365 281.602 380.082 275.829 380.394 268.653C406.918 278.014 431.726 284.566 439.216 313.896C441.556 322.789 444.521 331.682 448.265 340.262C452.634 350.403 457.003 360.7 463.088 369.592C475.57 387.846 488.208 387.066 495.229 366.628C513.797 313.428 519.102 258.824 501.939 204.532C496.166 186.279 484.932 168.493 472.293 154.14C437.656 114.825 428.138 69.8938 436.719 19.814C437.811 12.9495 441.244 6.55298 446.705 0.156494C450.606 27.7706 449.045 55.8527 463.244 80.3466C476.818 103.592 490.705 126.838 504.435 150.084C505.839 149.772 507.087 149.46 508.492 149.148C509.272 143.843 510.364 138.383 510.52 133.079C511.612 91.8915 524.562 53.3565 537.045 14.8216C538.761 9.5172 545.782 5.77292 550.463 1.40459C555.3 6.55298 563.725 11.2333 564.193 16.6937C565.286 30.2668 563.413 44.3078 561.541 57.8809C559.825 69.8938 556.08 81.5947 554.364 93.6076C553.583 99.38 555.3 105.62 556.08 112.953C600.86 97.0398 643.299 81.7507 685.894 66.6175C686.987 68.1777 688.235 69.7378 689.327 71.2979C685.894 75.8222 683.398 82.0627 678.873 84.5589C660.306 95.0117 641.583 105.308 622.079 113.889C610.533 119.038 597.583 120.598 585.413 124.342C569.186 129.49 557.484 139.787 549.839 155.388C537.825 180.038 539.697 241.507 556.86 279.886C571.371 266.625 581.668 251.96 585.725 233.706C594.619 193.611 621.143 166.933 652.193 143.375C653.909 142.127 656.249 141.815 662.022 139.475C659.214 148.992 658.278 156.324 654.845 162.253C643.455 183.002 632.533 204.376 618.959 223.721C589.002 266.469 566.846 312.804 552.023 362.572C538.761 406.879 526.903 451.811 516.137 496.898C512.392 512.655 513.641 529.817 512.704 545.886C545.782 551.346 551.087 558.679 544.066 589.725C540.633 604.858 534.704 619.523 528.463 633.877C504.903 687.233 489.612 742.929 478.223 800.029C469.485 844.181 477.442 886.616 494.917 927.335C502.563 945.432 514.109 947.46 525.655 930.923C568.562 868.986 602.108 804.398 591.03 724.207C585.413 683.644 587.285 642.145 585.413 600.958C583.853 566.167 582.292 531.533 579.796 496.898C576.207 447.754 580.888 399.703 594.463 352.431C596.179 346.347 598.363 340.106 601.952 334.958C604.604 331.214 610.065 326.533 613.654 327.001C617.398 327.469 622.235 332.93 623.64 337.298C629.257 355.083 627.228 372.557 620.987 390.03C614.434 408.595 607.101 427.161 603.2 446.194C600.392 460.079 602.264 474.901 602.576 489.254C602.732 492.218 605.54 495.026 609.129 501.891C613.966 492.842 618.803 487.225 620.363 480.673C625.98 457.583 630.817 434.337 635.498 411.092C637.37 401.731 639.554 395.022 650.008 390.03C658.122 386.13 665.455 375.209 667.795 366.16C675.597 334.802 683.554 302.975 686.518 270.993C689.951 235.422 687.923 199.228 688.391 163.345C688.391 158.196 687.143 152.58 688.859 147.9C690.575 142.907 694.32 136.199 698.22 135.263C701.965 134.483 709.766 139.319 711.171 143.375C717.256 161.317 722.093 179.726 726.617 198.292C729.114 208.744 729.894 219.665 731.298 230.274C749.709 229.338 766.404 211.241 766.872 193.143C767.028 185.655 765.312 178.166 765.156 170.677C765 164.749 766.248 158.977 766.872 151.644C787.936 167.713 793.865 199.852 781.227 222.317C777.638 228.714 772.957 235.578 767.028 239.479C743.624 254.924 734.575 277.858 730.986 304.068C725.369 345.255 711.327 383.634 693.54 421.076C667.171 476.305 647.356 533.717 641.271 595.03C638.93 618.587 637.682 641.989 641.427 669.915C649.852 665.547 655.937 663.363 660.774 659.618C668.419 653.534 674.972 646.045 682.618 639.649C689.795 633.565 698.064 630.912 706.022 638.557C712.107 644.329 711.951 656.654 705.242 663.987C701.497 668.199 696.66 671.943 691.511 674.44C667.951 685.828 656.405 705.798 650.944 729.98C646.888 748.077 643.299 766.331 640.803 784.584C635.342 824.211 622.235 861.03 602.42 895.664C581.512 932.015 562.633 969.302 555.768 1011.11C550.151 1045.44 546.25 1079.91 541.881 1114.39C541.257 1119.85 542.506 1125.47 543.13 1135.3C552.335 1131.09 559.357 1129.21 564.974 1125.31C587.129 1110.02 601.328 1088.18 612.406 1064.16C633.469 1017.98 638.618 968.366 642.519 918.598C643.923 899.565 646.576 880.531 649.696 861.81C651.256 852.761 654.845 843.089 667.015 843.557C675.441 843.869 683.086 853.541 681.994 865.71C680.901 878.815 677.157 891.764 674.192 904.557C672.008 913.918 669.2 922.966 666.547 932.639C670.448 932.951 672.164 933.575 672.632 933.107C706.334 901.437 733.327 866.646 733.639 816.878C733.795 801.277 739.568 785.364 744.092 770.075C745.653 764.927 751.426 761.026 755.326 756.502C756.731 757.282 758.135 757.906 759.695 758.686C758.447 765.082 756.887 771.323 755.794 777.719C752.83 794.101 748.461 810.482 747.681 827.019C746.745 844.18 755.014 857.91 770.929 866.646C790.276 877.255 790.901 886.616 773.738 900.345C765.156 907.209 755.794 913.138 746.121 918.286C712.887 936.383 690.731 963.53 678.249 998.788C669.824 1022.19 661.71 1045.75 654.689 1069.77C645.015 1103.16 629.569 1133.27 607.725 1160.1C601.328 1168.06 596.023 1176.8 590.25 1185.22C591.186 1186.47 591.966 1187.72 592.902 1188.97C598.987 1187.09 606.009 1186.31 611.157 1182.88C623.952 1174.15 636.278 1164.47 648.292 1154.33C660.306 1144.19 671.072 1132.8 683.242 1122.97C690.419 1117.2 699.625 1106.28 708.674 1114.71C718.036 1123.29 706.958 1132.49 701.965 1140.29C698.533 1145.6 693.852 1150.28 690.263 1155.42C687.455 1159.48 685.426 1164 681.37 1171.49C705.866 1169.93 714.135 1150.74 728.49 1139.98C737.695 1149.81 730.986 1158.08 726.149 1164.94C712.419 1184.6 693.072 1197.24 670.604 1204.88C660.774 1208.31 650.632 1210.65 640.491 1213.3C582.761 1227.97 542.038 1265.72 507.4 1311.28C490.861 1332.97 492.577 1358.55 499.754 1383.05C505.371 1402.39 513.797 1420.96 521.13 1439.83C523.47 1445.76 526.279 1451.53 527.995 1457.62C530.96 1468.38 527.995 1473.38 516.605 1473.69C495.229 1474.31 473.698 1473.84 452.166 1473.69C441.244 1473.69 437.499 1466.36 435.159 1457.15C429.698 1436.4 425.329 1415.18 417.84 1395.37C386.011 1311.28 341.855 1234.05 287.558 1162.44C281.941 1155.11 275.387 1148.56 268.99 1141.85C254.948 1127.03 237.785 1120.17 217.345 1121.41C205.799 1122.19 194.253 1123.29 182.707 1124.38C129.502 1129.21 82.8502 1101.44 55.5455 1052.61C53.9852 1049.96 53.9852 1046.53 53.2051 1043.41C54.1413 1042.63 55.2335 1041.85 56.1696 1041.07C60.6944 1044.81 64.9071 1049.18 69.9 1052.46C89.5594 1065.56 108.595 1079.76 129.346 1090.84C146.665 1100.04 166.325 1100.04 185.36 1093.96C191.133 1092.08 196.282 1088.96 201.275 1086.62C200.807 1083.35 200.963 1081.63 200.339 1081.16C173.034 1057.92 146.977 1032.95 117.8 1012.21C103.446 1002.06 83.6304 998.788 65.6873 994.264C34.0138 986.307 16.0707 965.714 7.95729 935.604C6.39702 930.143 7.80127 923.903 9.82962 917.038C26.3685 941.844 38.6946 970.238 73.0205 973.358C78.9496 973.826 85.0346 973.358 95.1764 973.358C90.1835 963.53 87.531 957.289 84.0984 951.673C66.6234 922.966 48.5243 894.572 31.6734 865.554C2.8084 817.971 -6.86527 766.955 4.83676 712.975C7.48921 700.65 12.7941 688.793 17.631 677.092C19.3473 672.724 23.2479 669.291 26.0564 665.547C27.4607 666.015 28.8649 666.483 30.4252 666.951C29.9571 672.88 29.645 678.808 28.7089 684.736C26.9926 696.125 24.3401 707.514 22.7799 718.903C17.631 755.878 24.3401 790.668 44.6236 822.183C61.4745 848.549 79.2616 874.291 96.7366 900.189C98.765 903.309 102.354 905.337 107.346 909.862C108.283 903.309 109.687 899.097 109.531 894.884C108.127 864.306 101.261 835.288 83.1623 809.702C66.4674 786.144 58.198 759.934 60.8504 731.072C61.6306 722.647 65.2192 714.535 70.2121 706.422C76.7652 742.617 87.375 775.535 114.836 801.589C119.205 798.625 123.261 795.817 130.126 791.136C131.687 799.717 133.559 805.958 133.715 812.354C134.027 832.636 133.871 852.917 133.559 873.199C132.779 918.598 148.382 958.537 174.594 994.576C205.175 1036.54 243.402 1071.18 282.721 1104.88C284.281 1106.28 286.621 1106.9 290.522 1106.9C285.997 1086.31 276.168 1067.9 266.962 1049.49C257.6 1030.3 247.927 1010.96 236.381 993.016C224.835 975.074 212.353 957.289 197.53 942C182.864 926.867 164.92 914.854 146.977 900.189C171.005 890.048 187.232 910.018 208.764 912.67C207.516 906.585 206.736 901.593 205.643 896.913C198.466 867.738 189.417 838.72 184.424 809.078C176.154 759.31 149.474 721.555 113.432 688.793C102.666 679.12 89.7154 671.631 79.8857 661.179C67.7156 648.386 57.2618 633.721 46.964 619.211C43.8435 614.843 44.3116 607.979 45.0917 601.426C63.1908 619.836 75.3609 643.393 102.978 656.81C96.8927 629.04 82.8502 606.106 89.7154 580.677C91.1197 580.052 92.5239 579.428 93.7721 578.648C97.2047 583.329 101.261 587.541 103.758 592.533C110.935 607.667 116.708 623.58 124.197 638.557C133.403 656.654 143.545 674.128 153.842 691.601C156.495 696.281 160.864 700.026 166.793 702.678C163.828 688.481 159.303 674.284 158.211 659.931C157.119 645.421 161.176 631.38 175.374 620.148C175.374 627.012 175.686 633.877 175.374 640.585C174.594 655.718 175.998 668.823 190.821 678.184C196.75 681.928 200.026 691.289 202.679 698.621C209.388 716.563 214.693 734.972 221.402 752.758C230.296 776.471 234.664 800.653 234.196 825.927C233.884 841.528 234.04 857.286 234.82 872.887C235.133 879.283 237.473 885.68 238.877 892.076C240.593 892.232 242.31 892.388 243.87 892.544C245.274 888.332 247.615 884.12 247.927 879.751C252.139 826.239 251.671 773.351 233.104 721.711C225.615 700.962 220.778 679.276 225.927 656.81C227.955 649.166 229.516 641.053 242.154 638.089Z" fill="#F9F8F6"/>
</g>
<defs>
<clipPath id="clip0_1195_1120">
<rect width="787" height="1474" fill="white"/>
</clipPath>
</defs>
</svg>
