<svg width="147" height="40" viewBox="0 0 147 40" fill="none" xmlns="http://www.w3.org/2000/svg">
<g clip-path="url(#clip0_1018_1320)">
<path d="M21.7038 40C20.7859 39.9568 19.865 39.9406 18.95 39.865C15.7156 39.5976 12.7315 38.6387 10.018 36.9668C6.23397 34.633 3.52042 31.4647 1.7766 27.5563C1.06584 25.9599 0.527736 24.3096 0.205448 22.5998C-0.0218809 21.3843 -0.0305132 20.1635 0.0529364 18.9399C0.147896 17.5353 0.378103 16.1497 0.775209 14.7911C1.97228 10.6827 4.4844 7.44687 8.17921 5.00241C9.96043 3.82475 11.8999 2.92529 13.9171 2.1663C16.0178 1.37616 18.183 0.746566 20.3916 0.283658C21.9116 -0.038576 23.4831 -0.0853316 25.0217 0.145904C29.3006 0.791458 33.0616 2.46611 36.2356 5.25091C38.552 7.28481 40.3591 9.65094 41.4843 12.4519C42.1001 13.9753 42.4684 15.55 42.6238 17.1734C42.7397 18.3748 42.7782 19.5817 42.7389 20.7874C42.6094 24.7499 41.3174 28.3558 38.8887 31.5862C36.5262 34.733 33.476 37.1153 29.6776 38.6063C27.2403 39.5652 24.7022 40.0514 22.052 39.973C21.9369 39.9676 21.8218 39.973 21.7067 39.973L21.7038 40ZM39.893 19.8096H39.8872C39.8872 19.5935 39.8843 19.3775 39.8872 19.1614C39.9102 17.4219 39.6743 15.7148 39.0901 14.0591C38.0484 11.0906 36.1809 8.64074 33.6688 6.62305C31.2286 4.65938 28.3798 3.4601 25.2605 2.81725C24.1469 2.58766 23.0189 2.50933 21.888 2.71461C19.114 3.22511 16.4177 3.97331 13.8336 5.05643C12.1992 5.7398 10.628 6.52581 9.20363 7.54951C7.06271 9.09181 5.40235 10.9907 4.33189 13.3271C3.94342 14.1725 3.64415 15.045 3.39668 15.9336C2.90749 17.692 2.71757 19.4801 2.92188 21.2871C3.23266 24.026 4.12758 26.5947 5.64119 28.9608C7.37637 31.6673 9.67267 33.847 12.6337 35.3758C14.6422 36.413 16.7745 37.0748 19.0795 37.1882C19.9801 37.2342 20.878 37.2909 21.7786 37.3233C23.3137 37.3802 24.8495 37.2311 26.3396 36.8803C28.4719 36.3833 30.3941 35.465 32.1724 34.2738C35.3119 32.1697 37.4844 29.3741 38.8369 26.0032C39.4728 24.423 39.8556 22.797 39.8901 21.1061C39.8987 20.674 39.893 20.2418 39.893 19.8096Z" fill="#0E0466"/>
<path d="M59.7052 11.9387H66.0301C66.738 11.9387 66.833 12.0306 66.8301 12.6761C66.8263 13.9186 66.8253 15.1602 66.8272 16.4009C66.8301 17.0842 66.7668 17.1599 66.0618 17.1599C65.774 17.1599 65.4834 17.1599 65.2014 17.1248C64.8187 17.0761 64.6575 16.9195 64.623 16.5602C64.5885 16.201 64.6029 15.839 64.5913 15.4798C64.5856 15.2286 64.5913 14.9747 64.5539 14.7262C64.4906 14.3157 64.318 14.1752 63.8691 14.1374C63.659 14.1185 63.4461 14.1158 63.236 14.1158L58.4621 14.1104C57.7456 14.1077 57.6679 14.1833 57.6679 14.8478C57.6679 16.0713 57.6737 17.2976 57.6621 18.5212C57.6593 19.0047 57.6765 19.2505 58.4276 19.2397C59.8664 19.2235 61.3023 19.2316 62.7411 19.2316C62.9137 19.2316 63.0864 19.2289 63.259 19.2424C63.4317 19.2559 63.541 19.3423 63.5669 19.5125C63.6417 19.9771 63.6187 20.4471 63.5353 20.9089C63.5007 21.1007 63.3684 21.2412 63.1612 21.2763C62.8993 21.3195 62.6317 21.36 62.367 21.36C61.0807 21.3708 59.7973 21.3654 58.511 21.3654C58.3585 21.3654 58.2031 21.36 58.0535 21.3789C57.829 21.4032 57.7111 21.5194 57.6823 21.7274C57.6688 21.853 57.664 21.9793 57.6679 22.1055C57.666 23.5065 57.665 24.9101 57.665 26.3165C57.6679 26.4245 57.6621 26.5325 57.6737 26.6406C57.7024 26.9161 57.8147 27.0268 58.1139 27.0349C58.5139 27.0457 58.9168 27.0349 59.3196 27.0349C59.4347 27.0349 59.5498 27.0241 59.6649 27.0322C59.8606 27.0457 59.9959 27.1511 60.0246 27.3267C60.1081 27.829 60.0995 28.3341 59.9556 28.8257C59.8951 29.0337 59.7052 29.1391 59.4779 29.158C59.193 29.1796 58.9053 29.1985 58.6175 29.1985C57.524 29.2039 56.4305 29.1985 55.3399 29.2012C54.6493 29.2039 53.9587 29.2147 53.2681 29.2174C52.6408 29.2201 52.5314 29.1202 52.5286 28.5313C52.5257 28.245 52.5257 27.9533 52.566 27.6697C52.6206 27.2699 52.7616 27.1484 53.1904 27.089C53.3995 27.0637 53.6098 27.0493 53.8206 27.0457C54.0105 27.0376 54.2033 27.0484 54.3961 27.0349C54.7184 27.0106 54.8335 26.9107 54.868 26.5974C54.8867 26.3637 54.8925 26.1293 54.8853 25.8951C54.8795 23.791 54.8651 21.6841 54.8623 19.58C54.8594 18.1944 54.8795 16.8087 54.8853 15.4231C54.8882 15.153 54.8968 14.8829 54.8767 14.6128C54.8508 14.2373 54.7385 14.1347 54.3501 14.1104C54.1601 14.0996 53.9673 14.1131 53.7745 14.0996C53.5271 14.0834 53.2767 14.0645 53.0321 14.0293C52.7875 13.9942 52.658 13.8592 52.5976 13.6485C52.5708 13.5806 52.5534 13.5098 52.5458 13.4378C52.5372 13.0786 52.5228 12.7193 52.5372 12.3601C52.5516 12.0846 52.6753 11.9846 52.9746 11.9549C53.0897 11.9441 53.2048 11.9495 53.3199 11.9495H59.7052V11.9387Z" fill="#0E0466"/>
<path d="M117.478 12.9866C117.57 12.7975 117.654 12.6409 117.72 12.4788C117.887 12.079 118.203 11.8873 118.655 11.8981C118.943 11.9035 119.228 11.9224 119.516 11.9467C119.682 11.9602 119.847 11.9953 120.034 12.0223C119.993 12.2141 119.97 12.3734 119.93 12.5301C119.635 13.7204 119.337 14.9106 119.038 16.1009C119.029 16.1546 119.018 16.2078 119.003 16.2603C118.906 16.579 118.825 16.6438 118.483 16.6465C118.08 16.6465 117.677 16.6492 117.277 16.6249C116.972 16.6087 116.871 16.4953 116.865 16.2117C116.86 16.0499 116.871 15.8881 116.897 15.7282C116.96 15.3959 116.831 15.1312 116.598 14.8935C115.953 14.2291 115.142 13.8509 114.206 13.7051C113.594 13.6078 112.984 13.6321 112.391 13.8293C112.265 13.8716 112.142 13.9212 112.022 13.9779C110.581 14.6585 110.166 16.1495 111.087 17.3947C111.286 17.6596 111.517 17.9008 111.778 18.1132C112.166 18.4319 112.584 18.7236 113.001 19.01C113.573 19.4016 114.172 19.7608 114.739 20.1606C115.153 20.4496 115.565 20.7521 115.927 21.0952C118.624 23.6612 117.47 28.0153 113.804 29.0876C112.681 29.4171 111.525 29.5603 110.342 29.3928C109.62 29.295 108.924 29.0705 108.29 28.7311L108.043 28.5906C107.594 28.3448 107.539 28.361 107.421 28.8607C107.369 29.0714 107.246 29.1713 107.033 29.1902C106.572 29.2308 106.115 29.2551 105.657 29.174C105.335 29.12 105.231 28.9985 105.24 28.696C105.246 28.5702 105.266 28.4454 105.298 28.3232C105.564 27.2194 105.834 26.1155 106.106 25.0117C106.121 24.9577 106.132 24.9037 106.149 24.8523C106.253 24.5363 106.388 24.4418 106.728 24.4418C107.165 24.4391 107.605 24.4364 108.046 24.4391C108.348 24.4418 108.469 24.566 108.423 24.8469C108.377 25.1279 108.322 25.3412 108.267 25.587C108.187 25.9409 108.287 26.2353 108.601 26.4433C109.407 26.9808 110.267 27.4021 111.28 27.4751C112.293 27.548 113.176 27.2671 113.95 26.6783C115.027 25.8625 115.251 24.5201 114.486 23.4343C114.281 23.1513 114.038 22.8944 113.763 22.6699C113.366 22.335 112.935 22.0297 112.506 21.7272C111.968 21.3518 111.412 21.0006 110.871 20.6252C110.33 20.2497 109.882 19.8851 109.461 19.4394C108.725 18.6642 108.27 17.7756 108.161 16.733C107.948 14.6991 109.254 12.7408 111.309 12.0817C112.549 11.6847 113.818 11.5982 115.104 11.8656C115.809 12.0115 116.445 12.2951 117.027 12.6895C117.162 12.784 117.303 12.8731 117.478 12.9866Z" fill="#0E0466"/>
<path d="M95.5051 19.3557C95.8562 19.8392 97.2116 21.2005 97.6 21.4652C97.6835 21.4193 97.7986 21.3842 97.8676 21.3113C98.423 20.7386 98.9698 20.1579 99.5136 19.5772C99.5597 19.5313 99.574 19.4583 99.6057 19.3908C99.4215 19.2476 99.2201 19.2909 99.0388 19.2557C98.659 19.1801 98.5698 19.1126 98.5554 18.7696C98.5381 18.3725 98.5439 17.9781 98.5439 17.5811C98.5439 17.5109 98.564 17.4406 98.5726 17.3704C98.7395 17.1975 98.9554 17.211 99.1625 17.211L100.832 17.2164L103.652 17.2083C104.546 17.2056 104.572 17.2273 104.587 18.0889C104.589 18.322 104.573 18.555 104.538 18.7858C104.506 19.0316 104.336 19.1747 104.086 19.2071C103.836 19.2395 103.588 19.2503 103.341 19.2666C103.168 19.2801 102.995 19.2828 102.823 19.2909C102.707 19.2967 102.595 19.3246 102.491 19.3729C102.388 19.4212 102.296 19.4889 102.221 19.5718L101.919 19.8959C101.108 20.7602 100.295 21.6237 99.482 22.4862L99.4071 22.5672C99.0273 22.9751 99.0273 23.0615 99.4273 23.4721C100.386 24.4553 101.341 25.4412 102.302 26.419C102.443 26.5652 102.599 26.6982 102.768 26.816C103.063 27.0247 103.431 27.1212 103.798 27.0861C103.893 27.078 103.988 27.0537 104.083 27.051C104.368 27.0429 104.509 27.1509 104.555 27.4157C104.575 27.5218 104.584 27.6293 104.584 27.7371C104.584 27.9343 104.584 28.1341 104.569 28.3313C104.523 29.0255 104.403 29.1416 103.68 29.1848C103.47 29.1956 103.257 29.1983 103.047 29.1983H99.997C99.7122 29.1983 99.4244 29.2092 99.1366 29.2092C98.9467 29.2092 98.7482 29.22 98.6014 29.0741C98.5381 28.7419 98.5266 27.8694 98.5726 27.6263C98.6187 27.3832 98.8 27.1753 99.0992 27.1266C99.2661 27.0996 99.4417 27.0888 99.6114 27.0699L100.106 26.9997C100.029 26.8916 99.9884 26.816 99.928 26.7539C99.2853 26.111 98.6417 25.4691 97.9971 24.828C97.9461 24.7734 97.8913 24.722 97.8331 24.6741C97.6777 24.5552 97.5338 24.566 97.3756 24.7038C97.334 24.7414 97.2946 24.7811 97.2576 24.8226C96.6782 25.4493 96.1008 26.075 95.5253 26.6999C95.4702 26.7658 95.4202 26.8353 95.3757 26.9079C95.4591 27.0753 95.6001 27.0645 95.7296 27.0591C95.9397 27.0537 96.1497 27.0294 96.3627 27.024C96.5756 27.0186 96.685 27.1185 96.7368 27.2968C96.7511 27.3508 96.7713 27.3994 96.7828 27.4535C96.8547 27.7803 96.8087 28.7149 96.7022 29.1146C96.5382 29.2362 96.3396 29.1957 96.1555 29.1957C94.8318 29.2011 93.5081 29.1983 92.1844 29.1983C91.8593 29.1983 91.5341 29.2092 91.2061 29.2092C91.0724 29.2087 90.9389 29.2015 90.8061 29.1875C90.6536 29.1713 90.5528 29.0822 90.5442 28.9417C90.5241 28.4745 90.4924 28.0072 90.5068 27.5399C90.5183 27.1888 90.7255 27.0213 91.0967 27.0132C91.3269 27.0087 91.557 27.0231 91.7845 27.0564C92.1988 27.1158 92.5269 27.0051 92.8089 26.7026C93.8189 25.6221 94.8462 24.5498 95.8648 23.4748C95.9281 23.4073 95.9857 23.3371 96.0433 23.2641C96.1699 23.094 96.1612 22.9238 96.0289 22.7644C95.8965 22.6051 95.8015 22.5213 95.6836 22.4025C94.8232 21.5327 93.9426 20.6792 93.1053 19.7879C92.7254 19.3827 92.3168 19.1855 91.747 19.2774C91.5801 19.3044 91.4017 19.2882 91.232 19.2693C91.1544 19.263 91.0816 19.232 91.0255 19.1813C90.9695 19.1307 90.9337 19.0635 90.9241 18.991C90.8464 18.5238 90.8492 18.0565 90.973 17.5973C90.9936 17.5171 91.0401 17.4448 91.1059 17.3903C91.1718 17.3357 91.254 17.3014 91.3413 17.2921C91.6251 17.2501 91.9116 17.2258 92.1988 17.2192C93.1945 17.2137 94.1901 17.2273 95.1886 17.2273C95.4936 17.2273 95.8015 17.2083 96.1094 17.2029C96.243 17.1976 96.3768 17.203 96.5094 17.2192C96.7511 17.257 96.9065 17.3893 96.9152 17.6081C96.9305 17.9675 96.9228 18.3273 96.8921 18.6858C96.8662 18.9883 96.6763 19.1774 96.3454 19.226C96.0807 19.2639 95.8188 19.3071 95.5051 19.3557Z" fill="#0E0466"/>
<path d="M89.445 26.4434C89.3529 26.573 89.2896 26.6811 89.2119 26.7783C88.1338 28.1342 86.7103 28.9806 84.9416 29.3173C83.5517 29.582 82.1503 29.6225 80.7835 29.2471C78.3749 28.588 76.7779 27.1213 76.07 24.8524C75.7218 23.7342 75.8398 22.6052 76.1649 21.495C76.211 21.3384 76.2657 21.1844 76.3232 21.0331C77.0627 18.9803 78.5505 17.6649 80.7835 17.1247C83.3503 16.5062 85.6092 17.0653 87.5026 18.8048C88.6105 19.8258 89.2119 21.0926 89.3558 22.5457C89.3759 22.7591 89.4076 22.9752 89.4133 23.1886C89.4277 23.6316 89.3212 23.7369 88.8608 23.7585C88.6508 23.7693 88.4407 23.7666 88.2278 23.7666L79.6583 23.7558C79.4854 23.7513 79.3124 23.7576 79.1404 23.7747C78.8958 23.8098 78.7692 23.9665 78.8037 24.1934C78.8293 24.3531 78.8697 24.5103 78.9245 24.6634C79.4914 26.1895 80.6453 27.1078 82.3086 27.4347C83.8423 27.7345 85.189 27.3347 86.3429 26.3461C86.5218 26.1839 86.7153 26.0366 86.9213 25.9059C87.2436 25.706 87.5976 25.6574 87.9659 25.7897C88.4637 25.9653 88.927 26.2084 89.445 26.4434ZM82.7805 22.0893V22.1028H85.8854C86.0955 22.1001 86.3055 22.1082 86.5156 22.0839C86.7257 22.0595 86.8264 21.9164 86.7746 21.7354C86.7026 21.495 86.6221 21.2492 86.4983 21.0304C85.8998 19.9554 84.9531 19.2613 83.7301 18.8993C83.1216 18.72 82.472 18.7031 81.8539 18.8507C80.3173 19.2045 79.3878 20.1553 78.9159 21.5409C78.8934 21.6096 78.878 21.6802 78.8699 21.7516C78.8555 21.911 78.9389 22.0406 79.1087 22.0731C79.2765 22.1037 79.4471 22.1182 79.618 22.1163C80.136 22.1136 80.654 22.0947 81.1719 22.0893C81.6899 22.0839 82.2424 22.0893 82.7805 22.0893Z" fill="#0E0466"/>
<path d="M128.022 23.745C126.586 23.745 125.147 23.7558 123.711 23.7396C123.072 23.7315 122.868 23.9476 122.871 24.5013C122.882 26.6838 124.905 27.8371 126.669 27.4914C127.541 27.3185 128.287 26.9431 128.871 26.3002C128.931 26.2327 128.992 26.1625 129.058 26.0976C129.23 25.914 129.446 25.8788 129.682 25.9626C129.791 26.0004 129.889 26.0598 129.996 26.1003L131.21 26.5838C131.334 26.6324 131.463 26.673 131.581 26.7297C131.611 26.7444 131.638 26.7646 131.659 26.7892C131.681 26.8138 131.697 26.8423 131.706 26.8728C131.716 26.9034 131.718 26.9354 131.714 26.967C131.71 26.9986 131.699 27.029 131.682 27.0565C131.607 27.1812 131.519 27.2981 131.417 27.4049C130.827 28.0343 130.131 28.5367 129.314 28.8797C127.78 29.5226 126.171 29.6846 124.534 29.3848C122.172 28.95 120.6 27.2861 120.321 25.0361C119.849 21.2276 122.537 18.3267 125.196 17.3408C126.456 16.8762 127.754 16.7033 129.084 17.0086C131.253 17.5083 132.54 18.8345 133.058 20.8468C133.239 21.5545 133.224 22.2756 133.161 22.9941C133.148 23.1199 133.125 23.2445 133.092 23.3669C133.02 23.6451 132.914 23.7342 132.623 23.7531C132.488 23.7639 132.355 23.7585 132.22 23.7585H128.022V23.745ZM127.015 22.0406H128.566L130.114 22.0514C130.21 22.0569 130.306 22.0542 130.402 22.0433C130.629 22.0163 130.753 21.911 130.781 21.703C130.798 21.5785 130.802 21.4528 130.793 21.3276C130.735 20.3147 129.953 19.3369 128.925 19.0155C127.763 18.6535 126.658 18.794 125.625 19.4044C124.721 19.9365 124.091 20.6928 123.654 21.595C123.616 21.676 123.579 21.7651 123.582 21.8516C123.585 21.938 123.639 22.0001 123.691 22.0136C123.795 22.046 123.915 22.0406 124.031 22.0406H127.015Z" fill="#0E0466"/>
<path d="M142.908 27.748C142.695 27.902 142.568 28.0073 142.43 28.0965C142.018 28.3585 141.624 28.6556 141.187 28.8717C140.067 29.4227 138.888 29.5253 137.676 29.1742C135.046 28.4125 134.623 26.0599 135.331 24.4798C135.768 23.5074 136.516 22.8078 137.518 22.3486C139.106 21.622 140.752 21.5194 142.438 21.9921C142.769 22.0839 143.086 22.2109 143.411 22.3216C143.538 22.3621 143.661 22.4107 143.791 22.4405C143.824 22.4486 143.858 22.4504 143.892 22.446C143.926 22.4416 143.959 22.4309 143.988 22.4145C144.018 22.3982 144.043 22.3766 144.064 22.3509C144.084 22.3252 144.099 22.296 144.107 22.2649C144.26 21.6355 144.427 21.0062 144.536 20.3714C144.602 19.9825 144.433 19.6286 144.142 19.3369C143.861 19.0622 143.5 18.8722 143.103 18.7913C141.826 18.5239 140.709 18.8021 139.788 19.6935C139.656 19.8231 139.538 19.9663 139.397 20.0878C139.126 20.3255 138.945 20.3444 138.617 20.1932L137.998 19.9096C137.86 19.8474 137.719 19.788 137.587 19.7151C137.167 19.4855 137.129 19.3234 137.46 19.0101C138.237 18.2754 139.109 17.6623 140.148 17.2868C141.673 16.7304 143.218 16.7223 144.766 17.1761C145.112 17.281 145.441 17.431 145.742 17.6218C146.415 18.0458 146.787 18.6617 146.893 19.4153C146.962 19.9158 146.939 20.4236 146.827 20.9171C146.412 22.7484 145.996 24.5779 145.578 26.4056C145.545 26.5271 145.522 26.6508 145.509 26.7757C145.492 27.0377 145.63 27.1781 145.915 27.1916C146.047 27.1943 146.182 27.1673 146.315 27.1646C146.467 27.1619 146.62 27.1673 146.772 27.1808C146.824 27.1862 146.873 27.224 146.951 27.2618C146.907 27.7399 146.856 28.218 146.717 28.6826C146.608 29.0581 146.332 29.2525 145.917 29.2633C145.667 29.2687 145.42 29.2579 145.169 29.2525L143.161 29.212C143.103 29.212 143.046 29.2147 142.988 29.2093C142.749 29.1877 142.649 29.0608 142.7 28.8447C142.769 28.5638 142.841 28.2828 142.908 28.0046C142.919 27.9533 142.908 27.8993 142.908 27.748ZM143.561 24.2286C143.483 24.1745 143.428 24.1205 143.362 24.0962C142.916 23.9341 142.473 23.7586 142.018 23.6262C141.253 23.3993 140.47 23.3831 139.69 23.5371C138.781 23.7154 138.062 24.1637 137.636 24.9578C137.086 25.9842 137.555 27.0647 138.703 27.4563C139.244 27.64 139.797 27.6373 140.346 27.5157C141.339 27.297 142.194 26.8378 142.936 26.1841C143.12 26.0221 143.27 25.8357 143.339 25.6034C143.48 25.155 143.543 24.6958 143.561 24.2286Z" fill="#0E0466"/>
<path d="M72.4183 19.4936C72.4183 21.7445 72.4193 23.9945 72.4212 26.2436C72.4174 26.405 72.4251 26.5665 72.4442 26.727C72.4701 26.9026 72.591 27.0215 72.7838 27.0485C72.9334 27.0701 73.0888 27.0728 73.2413 27.0809C73.3938 27.089 73.624 27.0809 73.8139 27.0998C74.1362 27.1322 74.2945 27.2375 74.3175 27.5212C74.3549 27.9695 74.3463 28.4206 74.3319 28.869C74.3261 29.0527 74.2024 29.1445 73.9895 29.1715C73.8184 29.1887 73.6464 29.1977 73.4744 29.1985L68.3552 29.2174H68.2976C67.771 29.2093 67.6386 29.0986 67.6271 28.6232C67.618 28.3173 67.6334 28.0112 67.6732 27.7075C67.7307 27.2673 67.8746 27.1457 68.3321 27.1052C68.5595 27.0836 68.7926 27.0836 69.0199 27.0809C69.7997 27.0701 69.886 26.9944 69.886 26.2787C69.886 24.4068 69.8774 22.535 69.8774 20.6632C69.8774 18.7913 69.8832 16.8817 69.886 14.9936C69.886 14.8478 69.8918 14.7046 69.8803 14.5615C69.8515 14.2319 69.7306 14.105 69.3882 14.0753C69.1206 14.051 68.8501 14.0591 68.5825 14.0537C67.8516 14.0402 67.6674 13.9051 67.63 13.1407C67.6166 12.9068 67.6175 12.6723 67.6329 12.4384C67.6617 12.0414 67.7739 11.9495 68.2142 11.936L68.4444 11.9414H71.6068C71.7788 11.9391 71.9508 11.9464 72.1219 11.963C72.2917 11.9847 72.3953 12.09 72.4125 12.2521C72.4298 12.4141 72.4298 12.5384 72.4298 12.6842V19.4936H72.4183Z" fill="#0E0466"/>
<path d="M21.5688 33.7066C21.14 33.8498 20.7515 33.7849 20.3285 33.7633C20.3141 33.6283 20.2882 33.5256 20.294 33.423C20.3285 32.6046 20.0696 31.8618 19.6264 31.1676C19.4681 30.9218 19.3041 30.676 19.1602 30.4248C18.6653 29.5659 18.5128 28.6637 18.7775 27.7103C18.9387 27.1403 18.9013 26.565 18.7804 25.9978C18.6998 25.6277 18.5761 25.2658 18.4667 24.9039C18.3344 24.4771 18.0121 24.2448 17.5603 24.1719C17.2582 24.1205 16.9531 24.1016 16.6481 24.0692C15.3993 23.945 14.2626 23.5506 13.2555 22.8429C12.9763 22.6485 12.7202 22.4324 12.5389 22.1488C12.4929 22.0758 12.4699 21.9921 12.4123 21.8652C12.6397 21.8787 12.6943 22.0353 12.8066 22.1083C12.9188 22.1812 13.0828 22.1515 13.1317 22.0191C13.1696 21.9262 13.1869 21.827 13.1825 21.7276C13.178 21.6282 13.1519 21.5307 13.1058 21.4411C13.0001 21.2298 12.877 21.0266 12.7375 20.8334C12.3634 20.331 11.9826 19.834 11.5951 19.3424C11.3764 19.0642 11.2901 18.7643 11.3534 18.4294C11.362 18.3727 11.434 18.3133 11.4915 18.2863C11.5491 18.2592 11.6124 18.3025 11.6411 18.3376C11.7678 18.4942 11.88 18.6617 12.0037 18.8211C12.1275 18.9804 12.208 19.0912 12.4526 19.048C12.562 18.4024 12.0929 17.9513 11.8253 17.4462C11.8483 17.2491 11.9778 17.1491 12.1418 17.0789C12.2829 17.0192 12.4421 17.0086 12.5907 17.0492C13.0569 17.1626 13.4367 17.4084 13.6929 17.7785C13.9647 18.1704 14.2042 18.5813 14.4094 19.0074C14.5245 19.2451 14.6424 19.4369 14.8957 19.572C15.3359 19.807 15.6582 20.1689 15.9661 20.5389C16.2366 20.8658 16.4956 21.2007 16.7747 21.5221C16.8813 21.6488 17.0074 21.7599 17.1488 21.8517C17.3387 21.9786 17.5459 21.9516 17.733 21.8111C17.8682 21.7085 17.8912 21.5707 17.7963 21.4276C17.7775 21.396 17.7543 21.3669 17.7272 21.3412C17.3071 20.9684 17.097 20.4876 16.9474 19.9798C16.7229 19.2181 16.228 18.632 15.6036 18.1404C15.1013 17.7471 14.6808 17.27 14.3633 16.7331C14.1331 16.3388 13.9374 15.9282 13.7216 15.5258C13.5058 15.1233 13.5001 14.6938 13.5375 14.259C13.549 14.1158 13.5835 13.97 13.759 13.9159C13.8684 13.8808 13.9691 13.9835 14.0353 14.1996C14.1015 14.4156 14.1648 14.6506 14.3345 14.8343C14.4151 14.9207 14.5734 14.9126 14.6281 14.8127C14.6827 14.7128 14.723 14.5777 14.7748 14.4643C14.8439 14.3076 14.9791 14.2698 15.1489 14.3373C15.3187 14.4048 15.4309 14.521 15.4424 14.6993C15.4539 14.8775 15.4568 15.1314 15.4683 15.3475C15.4798 15.5636 15.4769 15.8175 15.5172 16.0471C15.6151 16.5765 16.0899 16.879 16.651 16.7953C16.8611 16.7629 16.9675 16.6359 16.9042 16.4522C16.6481 15.7175 16.4006 14.9802 16.1129 14.2563C15.9948 13.971 15.8297 13.7048 15.6237 13.4676C15.2928 13.0759 15.0856 12.641 14.9619 12.163C14.9388 12.0765 14.9129 11.9901 14.8928 11.901C14.6799 11.0258 14.6799 11.0258 14.2079 10.4343L14.677 10.202C14.5878 10.0345 14.5072 9.89676 14.4381 9.75091C14.3902 9.655 14.3535 9.55447 14.3288 9.45109C14.3202 9.41327 14.3662 9.34305 14.4036 9.32414C14.441 9.30523 14.536 9.31063 14.559 9.34035C14.657 9.44945 14.7437 9.56702 14.818 9.69148C14.9043 9.83464 15.0079 9.95889 15.1806 10.021C15.4108 10.0993 15.6151 10.0102 15.6726 9.79142C15.7072 9.65097 15.71 9.50511 15.7503 9.36736C15.7676 9.30793 15.8482 9.2242 15.8971 9.2269C15.9877 9.23291 16.0722 9.27164 16.133 9.33494C16.1906 9.39707 16.2165 9.49701 16.2222 9.58344C16.2328 9.72646 16.2318 9.87003 16.2194 10.0129C16.1935 10.4802 16.3057 10.9205 16.5906 11.2932C16.9934 11.8226 17.1143 12.4033 17.0596 13.0327C17.0481 13.1948 17.0481 13.3568 17.0423 13.5189C17.0316 13.8631 17.1276 14.2027 17.3186 14.4967C17.4078 14.6344 17.497 14.7722 17.5891 14.9099C17.8538 15.3151 18.0409 15.7446 18.0495 16.228C18.0524 16.2794 18.0783 16.328 18.1013 16.4036C18.2049 16.4225 18.3142 16.4549 18.4236 16.4522C18.7459 16.4522 18.884 16.3469 18.9128 16.0417C18.9329 15.7932 18.9099 15.5393 18.8984 15.2881C18.8926 15.1989 18.8552 15.1125 18.8466 15.0234C18.8005 14.6506 18.9358 14.4399 19.3012 14.3076C19.753 14.1374 19.7501 14.1374 19.753 13.6999C19.7548 12.8332 19.5769 11.9745 19.2293 11.1717C18.9387 10.5018 19.0135 9.83194 19.0797 9.15127C19.0906 9.09842 19.11 9.04743 19.1372 9.00001C19.1522 8.972 19.1739 8.9476 19.2005 8.92866C19.2271 8.90972 19.258 8.89675 19.2908 8.89075C19.3235 8.88476 19.3574 8.88589 19.3896 8.89406C19.4218 8.90223 19.4517 8.91722 19.4768 8.93789C19.521 8.97218 19.5597 9.01219 19.5919 9.05673C19.6325 9.11804 19.6681 9.18215 19.6983 9.24851C19.8681 9.62396 20.1444 9.82113 20.6019 9.732C20.6738 9.71579 20.7515 9.7293 20.8264 9.7293C20.9012 9.7293 20.9415 9.78872 20.9674 9.82924C21.1429 10.1183 21.3875 10.2641 21.7587 10.2695C22.058 10.2722 22.1846 10.4667 22.0522 10.7125C21.6954 11.3796 21.6724 12.0954 21.6465 12.8166C21.635 13.1569 21.586 13.4973 21.5371 13.8322C21.494 14.1185 21.5371 14.3697 21.776 14.5723C22.0148 14.7749 22.3169 14.8235 22.6133 14.6317C23.091 14.3211 23.4996 13.943 23.7557 13.4433C23.8795 13.2002 23.9888 12.949 24.0953 12.6978C24.3226 12.1657 24.5442 11.6281 24.7658 11.0906C24.8348 10.9205 24.9269 10.7611 25.0967 10.6639C25.1571 10.6288 25.2463 10.6044 25.3096 10.6206C25.3729 10.6369 25.4564 10.7098 25.5254 10.7557C25.3902 10.9853 25.2578 11.1825 25.1571 11.3905C25.1255 11.4526 25.1571 11.566 25.2031 11.6281C25.2492 11.6903 25.3557 11.6768 25.4132 11.6498C25.5687 11.5835 25.7163 11.502 25.8535 11.4067C25.9772 11.3202 26.0722 11.2041 26.193 11.1176C26.4232 10.9556 26.6621 11.0501 26.6909 11.3121C26.7081 11.4742 26.6966 11.6362 26.711 11.7983C26.7398 12.0738 26.8635 12.1657 27.1714 12.1549C27.2462 12.1521 27.321 12.1305 27.3987 12.1305C27.5685 12.1278 27.6663 12.2872 27.5944 12.4358C27.5113 12.5994 27.3767 12.7351 27.2088 12.8247C26.9009 13.0057 26.993 13.3676 27.3009 13.5189C27.5167 13.6269 27.744 13.6188 27.9742 13.5972C28.3196 13.5648 28.662 13.5378 29.0073 13.5135C29.1023 13.5108 29.1975 13.5135 29.2922 13.5216C29.4217 13.5243 29.5166 13.581 29.5569 13.6918C29.5972 13.8025 29.603 13.9565 29.4821 14.0402C29.1886 14.2428 28.8864 14.4291 28.5814 14.6155C28.4893 14.6749 28.3656 14.702 28.2908 14.7749C28.216 14.8478 28.2188 14.9396 28.2332 15.018C28.2476 15.0963 28.3339 15.1341 28.3973 15.1422C28.567 15.1638 28.7397 15.1503 28.9123 15.1692C28.9756 15.1773 29.0764 15.226 29.0879 15.2746C29.1115 15.3576 29.0991 15.446 29.0533 15.5204C28.9497 15.6635 28.7742 15.7175 28.5987 15.7121C28.0836 15.6986 27.6836 15.9309 27.3009 16.2172C27.0304 16.4144 26.7513 16.6062 26.4606 16.7818C26.0664 17.0249 25.9082 17.349 25.9542 17.792C25.9858 18.1107 26.0031 18.4402 25.9571 18.7562C25.8851 19.2289 25.629 19.6368 25.2808 19.9852C25.1514 20.1176 25.0103 20.2391 24.8665 20.3607C24.3226 20.8145 23.9485 21.3682 23.7644 22.0326C23.7097 22.2244 23.6377 22.4108 23.6032 22.6053C23.5601 22.8429 23.6636 22.978 23.9054 23.0563C24.3456 23.1941 24.737 23.1077 25.0794 22.8186C25.1485 22.7559 25.2111 22.6872 25.2665 22.6134C25.8189 21.9219 26.5498 21.433 27.3412 21.0197C27.3898 20.9899 27.4448 20.9705 27.5023 20.963C27.5541 20.963 27.6232 20.9792 27.652 21.0116C27.6807 21.044 27.6951 21.1224 27.6721 21.1548C27.5656 21.3033 27.4477 21.4438 27.3297 21.5843C27.2606 21.6707 27.1772 21.749 27.1139 21.8355C27.0505 21.9219 27.0649 22.0704 27.157 22.1272C27.2491 22.1839 27.3843 22.2055 27.4764 22.1299C27.5685 22.0542 27.7124 21.8949 27.8332 21.7814C27.9541 21.668 28.003 21.6464 28.0922 21.5761C28.1354 21.6221 28.1728 21.6437 28.1786 21.6734C28.2131 21.7895 28.1958 21.9381 28.3771 21.9624C28.5584 21.9867 28.6361 21.9084 28.7282 21.8111C28.8203 21.7139 28.9469 21.5599 29.062 21.4384C29.1368 21.3601 29.2145 21.2736 29.3066 21.2196C29.3986 21.1656 29.4706 21.1953 29.5138 21.2304C29.5569 21.2655 29.5914 21.3736 29.5655 21.4195C29.5102 21.5324 29.4309 21.6335 29.3325 21.7166C29.249 21.7841 29.1282 21.8084 29.0274 21.8598C28.9778 21.8864 28.9357 21.9236 28.9045 21.9686C28.8733 22.0135 28.854 22.0647 28.8481 22.118C28.8422 22.1713 28.8499 22.2252 28.8706 22.2752C28.8913 22.3251 28.9243 22.3698 28.967 22.4054C29.005 22.4295 29.0478 22.446 29.0928 22.4539C29.1379 22.4618 29.1842 22.4609 29.2289 22.4513C29.3555 22.4135 29.4591 22.3243 29.5828 22.273C29.6849 22.2267 29.7951 22.1984 29.908 22.1893C29.9684 22.1866 30.0576 22.2406 30.0864 22.2919C30.1152 22.3433 30.1037 22.4459 30.0634 22.481C29.9705 22.5691 29.8613 22.6405 29.7411 22.6917C29.39 22.8375 29.0361 22.9753 28.6764 23.0995C27.698 23.4426 26.7973 23.9045 25.9743 24.5149C25.2204 25.074 24.3428 25.3765 23.3903 25.4765C22.9701 25.5197 22.55 25.5467 22.1299 25.5602C21.799 25.571 21.54 25.6818 21.3386 25.9276C21.0105 26.3273 20.6796 26.7244 20.3372 27.1133C19.8077 27.7157 19.684 28.3909 19.871 29.1391C19.9965 29.648 20.1878 30.1406 20.4408 30.6058L20.9875 31.616C21.1515 31.9293 21.2465 32.2642 21.2004 32.61C21.1544 32.9557 21.2522 33.2825 21.5141 33.5527C21.5371 33.577 21.54 33.6202 21.5688 33.7066ZM22.4953 20.3418C22.7169 20.8388 22.6594 20.99 22.2047 21.1521C22.0954 21.1899 21.986 21.2169 21.8795 21.2547C21.2004 21.4924 20.6249 21.8733 20.1847 22.4135C19.6466 23.0806 19.3761 23.8315 19.4365 24.677C19.4566 24.9471 19.5171 25.201 19.7099 25.4387C20.0609 25.3765 20.3026 25.1929 20.5127 24.9498C20.9041 24.5068 21.3069 24.0746 21.6954 23.6317C21.9889 23.2994 22.2795 22.9672 22.5471 22.6188C22.8148 22.2703 23.0795 21.8273 23.2291 21.379C23.3788 20.9306 23.3644 20.4201 23.0881 19.9771C22.8752 19.6341 22.5385 19.5017 22.1615 19.6422C21.7846 19.7826 21.517 20.0257 21.3299 20.3526C21.2407 20.5065 21.2925 20.6821 21.4335 20.7874C21.5745 20.8928 21.681 20.8658 21.8508 20.7469C22.0206 20.6281 22.1961 20.412 22.4953 20.3418ZM20.7544 14.7506C20.717 14.7506 20.6911 14.7425 20.6825 14.7506C20.6249 14.7965 20.5587 14.837 20.5156 14.8937C20.1818 15.3367 19.9343 15.8175 19.8048 16.3496C19.5861 17.2599 19.353 18.1647 19.1372 19.075C19.0577 19.4074 18.9982 19.7438 18.9588 20.0825C18.9209 20.4236 18.9712 20.7683 19.1056 21.0873C19.1689 21.2304 19.2667 21.3412 19.4336 21.3574C19.6005 21.3736 19.7789 21.2871 19.848 21.1251C19.9124 20.9771 19.9503 20.8201 19.9602 20.6605C19.9746 20.358 19.9573 20.0528 19.9573 19.7475C19.9602 19.2721 20.0523 18.8184 20.3285 18.4105C20.435 18.2538 20.4868 18.0891 20.4465 17.9C20.3659 17.5408 20.4235 17.1896 20.5213 16.8358C20.6774 16.2811 20.7795 15.7142 20.8264 15.1422C20.8379 15.0045 20.8782 14.8559 20.7544 14.7506ZM22.3342 18.1431C22.5241 18.0783 22.6018 18.0648 22.6651 18.0297C23.3586 17.6434 24.0147 17.2112 24.596 16.6845C25.1772 16.1578 25.583 15.6365 25.911 14.9991C26.0693 14.6938 26.2189 14.3832 26.3686 14.0726C26.4463 13.9078 26.4204 13.7782 26.2995 13.6837C26.1786 13.5891 25.9916 13.5648 25.8333 13.6891C25.6751 13.8133 25.4938 13.9781 25.3125 14.1077C24.9643 14.3643 24.642 14.6479 24.3945 14.9937C24.1183 15.3799 23.8536 15.7743 23.6061 16.1794C23.2522 16.7548 22.9184 17.3409 22.4781 17.8649C22.4349 17.9162 22.4148 17.9837 22.3342 18.1431ZM13.2238 20.0095C13.2612 20.1959 13.2526 20.2931 13.2986 20.358C13.4339 20.5497 13.5749 20.7469 13.7475 20.9117C14.018 21.1683 14.2482 21.4492 14.4698 21.7436C14.7129 22.0653 14.9823 22.3687 15.2755 22.6512C15.6151 22.9807 16.041 23.1887 16.5071 23.3183C16.7632 23.3886 17.0193 23.4534 17.2783 23.5209C17.4164 23.556 17.5402 23.4912 17.5977 23.3616C17.6247 23.3033 17.632 23.2386 17.6187 23.1763C17.6053 23.114 17.5719 23.057 17.5229 23.0131C17.3992 22.9024 17.2632 22.8046 17.1172 22.7214C16.5906 22.4135 16.133 22.0353 15.7848 21.5518C15.1892 20.7307 14.2856 20.3634 13.2238 20.0095Z" fill="#C45D16"/>
</g>
<defs>
<clipPath id="clip0_1018_1320">
<rect width="146.955" height="40" fill="white"/>
</clipPath>
</defs>
</svg>
