<svg width="69" height="64" viewBox="0 0 69 64" fill="none" xmlns="http://www.w3.org/2000/svg">
<path d="M35.024 64C33.5424 63.9309 32.0561 63.9049 30.5792 63.7839C25.3586 63.356 20.5422 61.8218 16.1624 59.1466C10.0547 55.4125 5.67488 50.343 2.86026 44.0892C1.71305 41.535 0.844509 38.8944 0.324315 36.1586C-0.0426072 34.2138 -0.0565404 32.2603 0.0781527 30.3025C0.231424 28.0552 0.602993 25.8381 1.24395 23.6642C3.17609 17.0906 7.23081 11.9131 13.1945 8.0018C16.0695 6.11747 19.1999 4.67829 22.4558 3.46385C25.8464 2.19959 29.3412 1.1922 32.9061 0.451525C35.3593 -0.0640676 37.8958 -0.138879 40.3792 0.231111C47.2857 1.26403 53.3562 3.94358 58.4792 8.39941C62.2181 11.6538 65.1349 15.4397 66.9509 19.9215C67.9449 22.359 68.5394 24.8786 68.7902 27.476C68.9773 29.3983 69.0394 31.3294 68.976 33.2587C68.7669 39.5988 66.6815 45.3685 62.7615 50.5374C58.9483 55.5724 54.025 59.3843 47.8942 61.7699C43.9602 63.3042 39.8637 64.0821 35.586 63.9568C35.4002 63.9481 35.2145 63.9568 35.0287 63.9568L35.024 64ZM64.3825 31.6942H64.3732C64.3732 31.3484 64.3685 31.0027 64.3732 30.6569C64.4103 27.8737 64.0295 25.1423 63.0866 22.493C61.4053 17.7432 58.3909 13.8233 54.3362 10.5949C50.3976 7.45292 45.7995 5.53402 40.7647 4.50542C38.9673 4.13806 37.1466 4.01273 35.3213 4.34119C30.8439 5.15802 26.4919 6.35517 22.3211 8.08823C19.683 9.18166 17.147 10.4393 14.8479 12.0773C11.3924 14.5451 8.71244 17.5833 6.98465 21.3217C6.35764 22.6745 5.8746 24.0704 5.47516 25.4923C4.68558 28.3058 4.37904 31.1669 4.70881 34.0582C5.21042 38.4406 6.65489 42.5507 9.09794 46.3366C11.8986 50.6671 15.605 54.1548 20.3843 56.601C23.6262 58.2606 27.0678 59.3194 30.7882 59.501C32.2419 59.5744 33.691 59.6652 35.1448 59.717C37.6224 59.8082 40.1014 59.5695 42.5065 59.0083C45.9481 58.213 49.0507 56.7436 51.921 54.8377C56.9883 51.471 60.4949 46.9978 62.6779 41.6042C63.7044 39.0759 64.3221 36.4741 64.3778 33.7687C64.3917 33.0772 64.3825 32.3857 64.3825 31.6942Z" fill="black"/>
<path d="M34.3602 53.8552C33.6749 54.0851 33.054 53.981 32.3779 53.9463C32.3549 53.7294 32.3135 53.5646 32.3227 53.3998C32.3779 52.0856 31.9639 50.8928 31.2556 49.7781C31.0027 49.3834 30.7405 48.9887 30.5105 48.5853C29.7194 47.206 29.4757 45.7574 29.8988 44.2263C30.1564 43.3111 30.0966 42.3873 29.9034 41.4764C29.7746 40.8822 29.5769 40.301 29.4021 39.7198C29.1905 39.0345 28.6754 38.6615 27.9533 38.5444C27.4703 38.462 26.9828 38.4316 26.4953 38.3796C24.4991 38.18 22.6824 37.5468 21.0726 36.4104C20.6264 36.0981 20.2171 35.7511 19.9273 35.2957C19.8537 35.1786 19.8169 35.0441 19.725 34.8403C20.0883 34.862 20.1757 35.1135 20.3551 35.2306C20.5344 35.3478 20.7966 35.3 20.8748 35.0875C20.9354 34.9383 20.963 34.779 20.9559 34.6194C20.9488 34.4598 20.9071 34.3032 20.8334 34.1593C20.6645 33.82 20.4676 33.4937 20.2447 33.1834C19.6468 32.3767 19.0381 31.5786 18.4187 30.7892C18.0692 30.3425 17.9312 29.861 18.0324 29.3232C18.0462 29.2321 18.1612 29.1367 18.2531 29.0933C18.3451 29.0499 18.4463 29.1193 18.4923 29.1757C18.6947 29.4273 18.8741 29.6962 19.0718 29.9521C19.2696 30.208 19.3984 30.3858 19.7893 30.3164C19.9641 29.2798 19.2144 28.5555 18.7867 27.7444C18.8235 27.4278 19.0304 27.2673 19.2926 27.1545C19.5181 27.0586 19.7725 27.0417 20.0101 27.1068C20.7552 27.289 21.3623 27.6837 21.7717 28.2779C22.2062 28.9073 22.589 29.567 22.9169 30.2514C23.1009 30.6331 23.2895 30.941 23.6942 31.1579C24.3979 31.5352 24.9131 32.1164 25.4052 32.7106C25.8376 33.2355 26.2515 33.7733 26.6976 34.2894C26.868 34.4928 27.0695 34.6712 27.2956 34.8186C27.5991 35.0225 27.9303 34.9791 28.2292 34.7535C28.4454 34.5887 28.4822 34.3675 28.3304 34.1376C28.3004 34.0869 28.2633 34.0402 28.22 33.9988C27.5485 33.4003 27.2128 32.6282 26.9736 31.8128C26.6149 30.5897 25.8238 29.6485 24.8257 28.8591C24.0229 28.2275 23.3508 27.4614 22.8433 26.5993C22.4754 25.9661 22.1626 25.3068 21.8177 24.6605C21.4727 24.0143 21.4635 23.3246 21.5233 22.6263C21.5417 22.3965 21.5969 22.1622 21.8775 22.0755C22.0522 22.0191 22.2132 22.1839 22.319 22.5309C22.4248 22.8779 22.526 23.2552 22.7973 23.5502C22.9261 23.689 23.1791 23.676 23.2665 23.5155C23.3539 23.355 23.4183 23.1381 23.5011 22.956C23.6114 22.7044 23.8276 22.6437 24.099 22.7521C24.3703 22.8606 24.5497 23.0471 24.5681 23.3333C24.5865 23.6196 24.5911 24.0273 24.6095 24.3743C24.6279 24.7213 24.6233 25.129 24.6877 25.4977C24.8441 26.3478 25.603 26.8336 26.4999 26.6991C26.8356 26.647 27.0058 26.4432 26.9046 26.1483C26.4953 24.9685 26.0997 23.7844 25.6398 22.622C25.451 22.1639 25.1872 21.7365 24.8579 21.3555C24.3289 20.7266 23.9978 20.0283 23.8 19.2606C23.7632 19.1218 23.7218 18.983 23.6896 18.8398C23.3493 17.4345 23.3493 17.4345 22.595 16.4847L23.3447 16.1117C23.2021 15.8427 23.0733 15.6215 22.9629 15.3873C22.8863 15.2333 22.8277 15.0719 22.7882 14.9059C22.7744 14.8451 22.8479 14.7324 22.9077 14.702C22.9675 14.6717 23.1193 14.6803 23.1561 14.728C23.3127 14.9032 23.4513 15.092 23.57 15.2919C23.708 15.5218 23.8736 15.7213 24.1496 15.821C24.5175 15.9468 24.8441 15.8037 24.9361 15.4524C24.9913 15.2268 24.9959 14.9926 25.0603 14.7714C25.0879 14.676 25.2166 14.5415 25.2948 14.5459C25.4396 14.5555 25.5748 14.6177 25.672 14.7194C25.764 14.8191 25.8054 14.9796 25.8146 15.1184C25.8314 15.3481 25.8299 15.5786 25.81 15.808C25.7686 16.5584 25.9479 17.2654 26.4033 17.8639C27.0472 18.7141 27.2404 19.6466 27.153 20.6572C27.1346 20.9174 27.1346 21.1777 27.1254 21.4379C27.1082 21.9906 27.2616 22.536 27.5669 23.008C27.7095 23.2292 27.8521 23.4504 27.9993 23.6716C28.4224 24.3222 28.7214 25.0119 28.7352 25.7883C28.7398 25.8707 28.7812 25.9487 28.818 26.0702C28.9835 26.1005 29.1583 26.1526 29.3331 26.1483C29.8482 26.1483 30.069 25.9791 30.115 25.489C30.1472 25.0899 30.1104 24.6822 30.092 24.2789C30.0828 24.1357 30.023 23.9969 30.0092 23.8538C29.9356 23.2553 30.1518 22.9169 30.7359 22.7044C31.458 22.4312 31.4534 22.4312 31.458 21.7285C31.4609 20.3369 31.1766 18.958 30.6209 17.6688C30.1564 16.5931 30.276 15.5174 30.3818 14.4244C30.3993 14.3396 30.4303 14.2577 30.4737 14.1815C30.4977 14.1366 30.5323 14.0974 30.5749 14.067C30.6174 14.0365 30.6668 14.0157 30.7192 14.0061C30.7715 13.9965 30.8256 13.9983 30.8771 14.0114C30.9287 14.0245 30.9763 14.0486 31.0165 14.0818C31.0871 14.1368 31.149 14.2011 31.2005 14.2726C31.2653 14.3711 31.3222 14.474 31.3706 14.5806C31.642 15.1835 32.0835 15.5001 32.8148 15.357C32.9298 15.3309 33.054 15.3526 33.1736 15.3526C33.2932 15.3526 33.3576 15.448 33.399 15.5131C33.6795 15.9772 34.0705 16.2114 34.6638 16.2201C35.1421 16.2244 35.3445 16.5367 35.1329 16.9314C34.5626 18.0027 34.5258 19.1521 34.4844 20.3102C34.466 20.8567 34.3878 21.4032 34.3096 21.941C34.2407 22.4008 34.3096 22.8042 34.6914 23.1295C35.0731 23.4548 35.5561 23.5328 36.0298 23.2249C36.7933 22.7261 37.4464 22.1189 37.8558 21.3165C38.0536 20.9261 38.2283 20.5227 38.3985 20.1194C38.7619 19.2649 39.116 18.4018 39.4702 17.5386C39.5805 17.2654 39.7277 17.0095 39.9991 16.8533C40.0957 16.7969 40.2383 16.7579 40.3395 16.7839C40.4406 16.81 40.574 16.9271 40.6844 17.0008C40.4682 17.3695 40.2567 17.6861 40.0957 18.0201C40.0451 18.1198 40.0957 18.302 40.1693 18.4018C40.2429 18.5015 40.413 18.4798 40.505 18.4365C40.7535 18.3301 40.9894 18.1993 41.2087 18.0461C41.4065 17.9073 41.5583 17.7208 41.7515 17.582C42.1194 17.3218 42.5012 17.4736 42.5472 17.8943C42.5748 18.1545 42.5564 18.4148 42.5794 18.675C42.6253 19.1174 42.8231 19.2649 43.3153 19.2475C43.4348 19.2432 43.5544 19.2085 43.6786 19.2085C43.95 19.2042 44.1064 19.4601 43.9914 19.6986C43.8585 19.9614 43.6434 20.1794 43.3751 20.3232C42.8829 20.6138 43.0301 21.195 43.5222 21.4379C43.8672 21.6114 44.2305 21.5984 44.5985 21.5637C45.1504 21.5116 45.6977 21.4683 46.2497 21.4292C46.4016 21.4249 46.5537 21.4292 46.705 21.4422C46.912 21.4466 47.0638 21.5377 47.1282 21.7155C47.1926 21.8933 47.2018 22.1406 47.0086 22.275C46.5394 22.6003 46.0565 22.8996 45.569 23.1989C45.4218 23.2943 45.224 23.3377 45.1044 23.4548C44.9848 23.5719 44.9894 23.7193 45.0124 23.8451C45.0354 23.9709 45.1734 24.0316 45.2746 24.0446C45.546 24.0793 45.8219 24.0577 46.0979 24.088C46.1991 24.101 46.3601 24.1791 46.3785 24.2572C46.4163 24.3904 46.3964 24.5324 46.3233 24.6519C46.1577 24.8818 45.8771 24.9685 45.5966 24.9598C44.7733 24.9381 44.134 25.3111 43.5222 25.7709C43.0899 26.0875 42.6437 26.3955 42.1792 26.6774C41.5491 27.0678 41.2961 27.5883 41.3697 28.2996C41.4203 28.8114 41.4479 29.3405 41.3743 29.848C41.2593 30.607 40.85 31.262 40.2935 31.8215C40.0865 32.034 39.8611 32.2292 39.6311 32.4244C38.7619 33.1531 38.1639 34.0422 37.8696 35.1092C37.7822 35.4172 37.6672 35.7164 37.612 36.0287C37.543 36.4104 37.7086 36.6273 38.0949 36.7531C38.7987 36.9743 39.4242 36.8355 39.9715 36.3714C40.0819 36.2706 40.182 36.1602 40.2705 36.0417C41.1535 34.9314 42.3218 34.1463 43.5866 33.4827C43.6643 33.4348 43.7523 33.4037 43.8442 33.3916C43.927 33.3916 44.0374 33.4176 44.0834 33.4697C44.1294 33.5217 44.1524 33.6475 44.1156 33.6996C43.9454 33.9381 43.7568 34.1637 43.5682 34.3892C43.4578 34.528 43.3245 34.6538 43.2233 34.7926C43.1221 34.9314 43.1451 35.1699 43.2923 35.261C43.4394 35.3521 43.6556 35.3868 43.8028 35.2653C43.95 35.1439 44.1799 34.888 44.3731 34.7058C44.5663 34.5237 44.6445 34.489 44.7871 34.3762C44.8561 34.4499 44.9158 34.4846 44.925 34.5323C44.9802 34.7188 44.9526 34.9574 45.2424 34.9964C45.5322 35.0355 45.6564 34.9097 45.8035 34.7535C45.9507 34.5974 46.1531 34.3502 46.3371 34.155C46.4567 34.0292 46.5808 33.8904 46.728 33.8037C46.8752 33.7169 46.9902 33.7646 47.0592 33.821C47.1282 33.8774 47.1834 34.0509 47.142 34.1246C47.0535 34.3059 46.9267 34.4683 46.7694 34.6017C46.636 34.7102 46.4428 34.7492 46.2819 34.8316C46.2026 34.8743 46.1353 34.9342 46.0854 35.0063C46.0356 35.0784 46.0047 35.1607 45.9952 35.2463C45.9858 35.3319 45.9981 35.4184 46.0311 35.4987C46.0642 35.5789 46.117 35.6506 46.1853 35.7078C46.2459 35.7465 46.3144 35.773 46.3864 35.7857C46.4584 35.7984 46.5324 35.797 46.6038 35.7815C46.8062 35.7208 46.9718 35.5776 47.1696 35.4952C47.3327 35.4209 47.5088 35.3753 47.6893 35.3608C47.7859 35.3564 47.9285 35.4432 47.9744 35.5256C48.0204 35.608 48.002 35.7728 47.9377 35.8292C47.7893 35.9707 47.6147 36.0853 47.4225 36.1675C46.8614 36.4017 46.2957 36.6229 45.7207 36.8225C44.157 37.3733 42.7173 38.115 41.4019 39.0952C40.1969 39.993 38.7941 40.4788 37.2717 40.6393C36.6001 40.7087 35.9286 40.7521 35.2571 40.7738C34.7282 40.7911 34.3142 40.9689 33.9923 41.3636C33.468 42.0056 32.939 42.6432 32.3917 43.2677C31.5454 44.235 31.3476 45.3193 31.6466 46.5207C31.8471 47.3379 32.153 48.1288 32.5573 48.8759L33.4312 50.4981C33.6933 51.0012 33.8451 51.539 33.7715 52.0942C33.6979 52.6494 33.8543 53.1742 34.2728 53.608C34.3096 53.647 34.3142 53.7164 34.3602 53.8552ZM35.8412 32.394C36.1954 33.1921 36.1034 33.435 35.3767 33.6952C35.2019 33.7559 35.0271 33.7993 34.857 33.86C33.7715 34.2417 32.8516 34.8533 32.1479 35.7208C31.2878 36.7921 30.8555 37.9979 30.9521 39.3555C30.9843 39.7892 31.0809 40.1969 31.389 40.5786C31.9502 40.4788 32.3365 40.1839 32.6723 39.7935C33.2978 39.0822 33.9417 38.3882 34.5626 37.6769C35.0317 37.1434 35.4963 36.6099 35.924 36.0504C36.3518 35.4909 36.7749 34.7796 37.0141 34.0596C37.2533 33.3396 37.2303 32.5198 36.7887 31.8085C36.4484 31.2576 35.9102 31.0451 35.3077 31.2707C34.7052 31.4962 34.2774 31.8866 33.9785 32.4114C33.8359 32.6586 33.9187 32.9405 34.1441 33.1097C34.3694 33.2788 34.5396 33.2355 34.811 33.0446C35.0823 32.8538 35.3629 32.5068 35.8412 32.394ZM33.0586 23.4157C32.9988 23.4157 32.9574 23.4027 32.9436 23.4157C32.8516 23.4895 32.7458 23.5545 32.6769 23.6456C32.1433 24.3569 31.7478 25.129 31.5408 25.9834C31.1912 27.4451 30.8187 28.8981 30.4737 30.3598C30.3467 30.8936 30.2515 31.4338 30.1886 31.9776C30.1279 32.5254 30.2084 33.0789 30.4232 33.5911C30.5243 33.821 30.6807 33.9988 30.9475 34.0249C31.2142 34.0509 31.4994 33.9121 31.6098 33.6519C31.7127 33.4142 31.7733 33.1621 31.7892 32.9058C31.8122 32.42 31.7846 31.9299 31.7846 31.4398C31.7892 30.6764 31.9364 29.9478 32.3779 29.2928C32.5481 29.0413 32.6309 28.7767 32.5665 28.4731C32.4377 27.8962 32.5297 27.3323 32.6861 26.7642C32.9355 25.8734 33.0986 24.9632 33.1736 24.0446C33.192 23.8234 33.2564 23.5849 33.0586 23.4157ZM35.5837 28.8634C35.8872 28.7593 36.0114 28.7376 36.1126 28.6813C37.2211 28.061 38.2697 27.367 39.1988 26.5213C40.1279 25.6755 40.7764 24.8384 41.3007 23.8148C41.5537 23.3246 41.7929 22.8259 42.032 22.3271C42.1562 22.0625 42.1148 21.8543 41.9216 21.7025C41.7285 21.5507 41.4295 21.5116 41.1765 21.7112C40.9236 21.9107 40.6338 22.1753 40.344 22.3834C39.7875 22.7955 39.2724 23.2509 38.8768 23.8061C38.4353 24.4263 38.0122 25.0596 37.6166 25.7102C37.0509 26.634 36.5173 27.5752 35.8136 28.4167C35.7447 28.4991 35.7125 28.6075 35.5837 28.8634ZM21.022 31.8605C21.0818 32.1598 21.068 32.316 21.1416 32.42C21.3577 32.728 21.5831 33.0446 21.8591 33.3092C22.2914 33.7213 22.6594 34.1723 23.0135 34.6451C23.4021 35.1616 23.8327 35.6489 24.3014 36.1025C24.8441 36.6316 25.5248 36.9656 26.2699 37.1738C26.6792 37.2865 27.0886 37.3906 27.5025 37.4991C27.7233 37.5555 27.9211 37.4514 28.0131 37.2432C28.0562 37.1496 28.0679 37.0457 28.0465 36.9457C28.0251 36.8456 27.9717 36.7542 27.8935 36.6837C27.6958 36.5059 27.4784 36.3489 27.245 36.2152C26.4033 35.7208 25.672 35.1135 25.1154 34.3372C24.1634 33.0186 22.7192 32.4287 21.022 31.8605Z" fill="black"/>
</svg>
