<svg width="20" height="20" viewBox="0 0 20 20" fill="none" xmlns="http://www.w3.org/2000/svg">
<circle cx="10" cy="10" r="10" fill="#C45D16"/>
<path d="M7.84009 14.0001V12.9921C8.66409 12.3361 9.38409 11.7321 10.0001 11.1801C10.6241 10.6281 11.1121 10.0961 11.4641 9.58405C11.8161 9.07205 11.9921 8.55205 11.9921 8.02405C11.9921 7.58405 11.8681 7.24005 11.6201 6.99205C11.3721 6.73605 11.0361 6.60805 10.6121 6.60805C10.1241 6.60805 9.74809 6.76405 9.48409 7.07605C9.22009 7.38005 9.08809 7.74405 9.08809 8.16805H7.85209C7.86009 7.57605 7.98409 7.08005 8.22409 6.68005C8.46409 6.28005 8.78809 5.97605 9.19609 5.76805C9.61209 5.56005 10.0841 5.45605 10.6121 5.45605C11.4681 5.45605 12.1281 5.68805 12.5921 6.15205C13.0561 6.60805 13.2881 7.22005 13.2881 7.98805C13.2881 8.47605 13.1801 8.94805 12.9641 9.40405C12.7561 9.85205 12.4801 10.2801 12.1361 10.6881C11.7921 11.0961 11.4081 11.4841 10.9841 11.8521C10.5681 12.2201 10.1481 12.5721 9.72409 12.9081H13.5161V14.0001H7.84009Z" fill="#F9F6EC"/>
</svg>
