<svg width="20" height="20" viewBox="0 0 20 20" fill="none" xmlns="http://www.w3.org/2000/svg">
<circle cx="10" cy="10" r="10" fill="#C45D16"/>
<path d="M9.65991 14.1441C9.10791 14.1441 8.60791 14.0401 8.15991 13.8321C7.71191 13.6241 7.35591 13.3201 7.09191 12.9201C6.82791 12.5121 6.68391 12.0201 6.65991 11.4441H7.93191C7.95591 11.8841 8.11591 12.2481 8.41191 12.5361C8.71591 12.8241 9.13191 12.9681 9.65991 12.9681C10.1799 12.9681 10.5879 12.8401 10.8839 12.5841C11.1799 12.3281 11.3279 11.9761 11.3279 11.5281C11.3279 11.0321 11.1479 10.6681 10.7879 10.4361C10.4279 10.2041 9.98791 10.0881 9.46791 10.0881H8.72391V8.96005H9.35991C9.83191 8.96005 10.2199 8.86405 10.5239 8.67205C10.8279 8.48005 10.9799 8.18005 10.9799 7.77205C10.9799 7.42005 10.8639 7.14405 10.6319 6.94405C10.3999 6.73605 10.0719 6.63205 9.64791 6.63205C9.21591 6.63205 8.87191 6.74805 8.61591 6.98005C8.35991 7.21205 8.21591 7.50805 8.18391 7.86805H6.92391C6.94791 7.38805 7.07591 6.96805 7.30791 6.60805C7.53991 6.24805 7.85591 5.96805 8.25591 5.76805C8.65591 5.56005 9.11991 5.45605 9.64791 5.45605C10.2239 5.45605 10.7039 5.55605 11.0879 5.75605C11.4719 5.94805 11.7599 6.20805 11.9519 6.53605C12.1439 6.86405 12.2399 7.23205 12.2399 7.64005C12.2399 8.05605 12.1159 8.41605 11.8679 8.72005C11.6279 9.01605 11.3359 9.23205 10.9919 9.36805V9.44005C11.4559 9.56805 11.8359 9.80805 12.1319 10.1601C12.4359 10.5041 12.5879 10.9681 12.5879 11.5521C12.5879 12.0241 12.4719 12.4601 12.2399 12.8601C12.0159 13.2521 11.6839 13.5641 11.2439 13.7961C10.8119 14.0281 10.2839 14.1441 9.65991 14.1441Z" fill="#F9F6EC"/>
</svg>
