<svg width="787" height="1381" viewBox="0 0 787 1381" fill="none" xmlns="http://www.w3.org/2000/svg">
<g clip-path="url(#clip0_1244_710)">
<path d="M242.154 545.089C241.53 550.861 241.686 554.294 240.906 557.414C229.36 599.849 246.523 633.392 273.827 663.502C283.969 674.735 294.111 672.707 298.323 658.041C301.6 646.653 301.6 634.172 301.6 622.315C301.6 615.138 298.948 607.806 300.508 598.757C303.16 601.721 306.593 604.061 308.465 607.494C320.011 629.023 322.196 651.489 313.77 674.735C312.054 679.571 309.869 684.563 307.217 688.932C254.636 772.554 268.366 858.361 298.635 944.635C301.132 951.968 306.593 958.208 313.302 964.917C319.075 935.743 316.891 904.384 343.883 882.387C343.103 888.471 342.791 894.711 341.543 900.796C333.898 938.083 331.245 975.526 339.515 1012.97C349.968 1060.08 374.621 1099.71 405.67 1135.59C417.684 1149.48 427.046 1146.83 432.663 1128.73C441.244 1101.11 440.464 1073.66 425.953 1047.92C418.932 1035.28 410.351 1023.58 402.237 1011.56C380.55 980.05 377.897 945.415 383.358 909.377C384.606 908.753 385.855 908.284 387.103 907.66C389.287 910.937 392.564 914.057 393.344 917.645C395.528 926.538 397.557 935.743 398.025 944.947C398.805 956.024 401.925 962.421 414.095 965.853C420.805 967.725 427.358 976.93 430.166 984.418C437.187 1002.67 442.024 1022.02 448.109 1040.74C450.138 1046.98 453.258 1052.91 455.755 1058.84C457.315 1058.68 458.719 1058.68 460.279 1058.52C461.84 1052.91 464.18 1047.29 465.116 1041.52C471.201 997.991 469.017 954.776 458.095 912.185C453.258 893.151 447.641 874.118 441.556 855.396C420.18 789.872 399.273 724.034 376.649 658.977C366.039 628.399 353.089 598.601 338.578 569.583C323.288 538.848 298.948 515.603 269.458 497.817C257.444 490.485 245.43 485.024 230.296 486.428C223.899 487.052 215.629 483.152 210.48 478.784C202.523 472.075 202.991 460.218 209.544 453.822C217.033 446.489 224.367 447.893 232.948 453.198C252.296 465.367 272.267 476.6 292.082 488.145C293.487 487.052 294.735 485.804 296.139 484.712C294.735 478.94 293.643 473.011 291.926 467.395C282.097 434.633 271.643 402.182 262.281 369.264C258.537 356.159 251.359 347.578 238.565 344.302C223.43 340.245 208.14 337.125 192.849 333.381C172.566 328.388 154.467 319.808 143.545 300.774C140.112 294.69 138.24 287.669 137.148 279.557C172.098 298.59 207.048 314.815 245.586 320.9C246.679 319.652 247.615 318.56 248.707 317.312C246.366 311.851 244.182 306.079 241.53 300.774C220.934 260.835 194.253 225.265 163.204 192.658C152.75 181.581 142.921 169.724 132.935 158.336C134.027 156.619 135.119 155.059 136.055 153.343C142.14 154.903 148.694 155.527 154.311 158.336C178.027 169.724 195.19 188.29 208.452 210.755C211.729 216.372 215.785 221.676 221.558 226.045C222.65 196.09 205.331 172.065 195.034 142.89C212.977 147.415 219.842 159.896 226.551 171.285C233.884 183.765 239.657 197.026 244.806 210.6C249.643 223.548 252.764 237.121 257.288 252.411C266.026 239.462 266.494 222.924 283.657 216.06C284.437 220.428 285.685 223.861 285.529 227.293C285.373 230.725 284.437 234.313 282.877 237.278C264.466 274.408 268.99 311.383 283.345 348.358C289.43 363.959 293.799 380.34 299.416 396.098C301.912 402.962 305.501 409.359 308.621 416.067C310.181 415.911 311.742 415.755 313.302 415.599C313.614 408.735 314.394 401.87 314.238 394.849C314.082 380.184 318.763 367.391 329.529 357.407C332.181 354.91 337.642 352.258 339.983 353.35C343.259 355.066 347.004 360.371 346.848 363.803C346.224 372.696 345.6 382.837 341.075 390.169C330.777 407.018 328.125 424.804 330.309 443.525C334.522 479.72 347.628 513.106 364.167 545.245C365.259 547.585 367.599 549.301 369.316 551.329C370.564 550.861 371.812 550.549 373.06 550.081C371.5 543.217 370.252 536.352 368.536 529.8C362.607 507.958 355.741 486.428 350.749 464.431C348.252 453.198 346.224 440.561 359.174 426.832C362.919 434.164 365.883 440.405 369.004 446.489C370.876 445.709 372.904 444.929 374.777 443.993C376.961 437.285 379.926 430.732 381.33 423.712C387.103 397.19 391.784 370.356 398.025 343.834C400.209 334.941 405.67 326.672 411.911 318.872C429.23 353.974 410.351 387.673 409.103 426.676C420.024 417.783 427.826 411.543 435.627 405.302C436.719 405.926 437.968 406.394 439.06 407.018C437.187 414.351 435.939 421.996 433.131 429.016C420.18 460.686 408.947 492.825 403.798 526.991C397.401 569.739 408.791 608.43 428.606 645.56C430.01 648.213 430.946 650.865 432.195 653.673C433.911 652.893 435.627 652.113 437.343 651.489C440.308 643.532 444.521 635.888 445.925 627.775C452.01 592.36 459.655 557.102 462.308 521.531C465.584 478.316 465.272 434.633 465.116 391.261C464.804 348.202 449.982 309.667 425.017 274.72C414.251 259.587 403.33 244.454 394.124 228.541C387.883 217.62 383.826 205.295 379.926 193.282C378.365 188.602 380.082 182.829 380.394 175.653C406.918 185.014 431.726 191.566 439.216 220.896C441.556 229.789 444.521 238.682 448.265 247.262C452.634 257.403 457.003 267.7 463.088 276.592C475.57 294.846 488.208 294.066 495.229 273.628C513.797 220.428 519.102 165.824 501.939 111.532C496.166 93.2786 484.932 75.4933 472.293 61.1402C437.656 21.8252 428.138 -23.1062 436.719 -73.186C437.811 -80.0505 441.244 -86.447 446.705 -92.8435C450.606 -65.2294 449.045 -37.1473 463.244 -12.6534C476.818 10.5923 490.705 33.8381 504.435 57.0839C505.839 56.7718 507.087 56.4598 508.492 56.1478C509.272 50.8434 510.364 45.383 510.52 40.0786C511.612 -1.10854 524.562 -39.6435 537.045 -78.1784C538.761 -83.4828 545.782 -87.2271 550.463 -91.5954C555.3 -86.447 563.725 -81.7667 564.193 -76.3063C565.286 -62.7332 563.413 -48.6922 561.541 -35.1191C559.825 -23.1062 556.08 -11.4053 554.364 0.607582C553.583 6.38002 555.3 12.6205 556.08 19.9531C600.86 4.03985 643.299 -11.2493 685.894 -26.3825C686.987 -24.8223 688.235 -23.2622 689.327 -21.7021C685.894 -17.1778 683.398 -10.9373 678.873 -8.4411C660.306 2.01169 641.583 12.3085 622.079 20.8891C610.533 26.0375 597.583 27.5976 585.413 31.3419C569.186 36.4903 557.484 46.7871 549.839 62.3883C537.825 87.0381 539.697 148.507 556.86 186.886C571.371 173.625 581.668 158.96 585.725 140.706C594.619 100.611 621.143 73.9332 652.193 50.3754C653.909 49.1273 656.249 48.8152 662.022 46.4751C659.214 55.9918 658.278 63.3243 654.845 69.2528C643.455 90.0024 632.533 111.376 618.959 130.721C589.002 173.469 566.846 219.804 552.023 269.572C538.761 313.879 526.903 358.811 516.137 403.898C512.392 419.655 513.641 436.817 512.704 452.886C545.782 458.346 551.087 465.679 544.066 496.725C540.633 511.858 534.704 526.523 528.463 540.877C504.903 594.233 489.612 649.929 478.223 707.029C469.485 751.181 477.442 793.616 494.917 834.335C502.563 852.432 514.109 854.46 525.655 837.923C568.562 775.986 602.108 711.398 591.03 631.207C585.413 590.644 587.285 549.145 585.413 507.958C583.853 473.167 582.292 438.533 579.796 403.898C576.207 354.754 580.888 306.703 594.463 259.431C596.179 253.347 598.363 247.106 601.952 241.958C604.604 238.214 610.065 233.533 613.654 234.001C617.398 234.469 622.235 239.93 623.64 244.298C629.257 262.083 627.228 279.557 620.987 297.03C614.434 315.595 607.101 334.161 603.2 353.194C600.392 367.079 602.264 381.901 602.576 396.254C602.732 399.218 605.54 402.026 609.129 408.891C613.966 399.842 618.803 394.225 620.363 387.673C625.98 364.583 630.817 341.337 635.498 318.092C637.37 308.731 639.554 302.022 650.008 297.03C658.122 293.13 665.455 282.209 667.795 273.16C675.597 241.802 683.554 209.975 686.518 177.993C689.951 142.422 687.923 106.228 688.391 70.3449C688.391 65.1965 687.143 59.5801 688.859 54.8997C690.575 49.9073 694.32 43.1988 698.22 42.2627C701.965 41.4827 709.766 46.319 711.171 50.3754C717.256 68.3167 722.093 86.7261 726.617 105.292C729.114 115.744 729.894 126.665 731.298 137.274C749.709 136.338 766.404 118.241 766.872 100.143C767.028 92.6546 765.312 85.166 765.156 77.6774C765 71.749 766.248 65.9765 766.872 58.644C787.936 74.7132 793.865 106.852 781.227 129.317C777.638 135.714 772.957 142.578 767.028 146.479C743.624 161.924 734.575 184.858 730.986 211.068C725.369 252.255 711.327 290.634 693.54 328.076C667.171 383.305 647.356 440.717 641.271 502.03C638.93 525.587 637.682 548.989 641.427 576.915C649.852 572.547 655.937 570.363 660.774 566.618C668.419 560.534 674.972 553.045 682.618 546.649C689.795 540.565 698.064 537.912 706.022 545.557C712.107 551.329 711.951 563.654 705.242 570.987C701.497 575.199 696.66 578.943 691.511 581.44C667.951 592.828 656.405 612.798 650.944 636.98C646.888 655.077 643.299 673.331 640.803 691.584C635.342 731.211 622.235 768.03 602.42 802.664C581.512 839.015 562.633 876.302 555.768 918.113C550.151 952.436 546.25 986.914 541.881 1021.39C541.257 1026.85 542.506 1032.47 543.13 1042.3C552.335 1038.09 559.357 1036.21 564.974 1032.31C587.129 1017.02 601.328 995.183 612.406 971.157C633.469 924.978 638.618 875.366 642.519 825.598C643.923 806.565 646.576 787.531 649.696 768.81C651.256 759.761 654.845 750.089 667.015 750.557C675.441 750.869 683.086 760.541 681.994 772.71C680.901 785.815 677.157 798.764 674.192 811.557C672.008 820.918 669.2 829.966 666.547 839.639C670.448 839.951 672.164 840.575 672.632 840.107C706.334 808.437 733.327 773.646 733.639 723.878C733.795 708.277 739.568 692.364 744.092 677.075C745.653 671.927 751.426 668.026 755.326 663.502C756.731 664.282 758.135 664.906 759.695 665.686C758.447 672.082 756.887 678.323 755.794 684.719C752.83 701.101 748.461 717.482 747.681 734.019C746.745 751.18 755.014 764.91 770.929 773.646C790.276 784.255 790.901 793.616 773.738 807.345C765.156 814.209 755.794 820.138 746.121 825.286C712.887 843.383 690.731 870.53 678.249 905.788C669.824 929.19 661.71 952.748 654.689 976.774C645.015 1010.16 629.569 1040.27 607.725 1067.1C601.328 1075.06 596.023 1083.8 590.25 1092.22C591.186 1093.47 591.966 1094.72 592.902 1095.97C598.987 1094.09 606.009 1093.31 611.157 1089.88C623.952 1081.15 636.278 1071.47 648.292 1061.33C660.306 1051.19 671.072 1039.8 683.242 1029.97C690.419 1024.2 699.625 1013.28 708.674 1021.71C718.036 1030.29 706.958 1039.49 701.965 1047.29C698.533 1052.6 693.852 1057.28 690.263 1062.42C687.455 1066.48 685.426 1071 681.37 1078.49C705.866 1076.93 714.135 1057.74 728.49 1046.98C737.695 1056.81 730.986 1065.08 726.149 1071.94C712.419 1091.6 693.072 1104.24 670.604 1111.88C660.774 1115.31 650.632 1117.65 640.491 1120.3C582.761 1134.97 542.038 1172.72 507.4 1218.28C490.861 1239.97 492.577 1265.55 499.754 1290.05C505.371 1309.39 513.797 1327.96 521.13 1346.83C523.47 1352.76 526.279 1358.53 527.995 1364.62C530.96 1375.38 527.995 1380.38 516.605 1380.69C495.229 1381.31 473.698 1380.84 452.166 1380.69C441.244 1380.69 437.499 1373.36 435.159 1364.15C429.698 1343.4 425.329 1322.18 417.84 1302.37C386.011 1218.28 341.855 1141.05 287.558 1069.44C281.941 1062.11 275.387 1055.56 268.99 1048.85C254.948 1034.03 237.785 1027.17 217.345 1028.41C205.799 1029.19 194.253 1030.29 182.707 1031.38C129.502 1036.21 82.8502 1008.44 55.5455 959.612C53.9852 956.96 53.9852 953.528 53.2051 950.408C54.1413 949.628 55.2335 948.848 56.1696 948.068C60.6944 951.812 64.9071 956.18 69.9 959.456C89.5594 972.561 108.595 986.758 129.346 997.835C146.665 1007.04 166.325 1007.04 185.36 1000.96C191.133 999.083 196.282 995.963 201.275 993.623C200.807 990.347 200.963 988.63 200.339 988.162C173.034 964.917 146.977 939.955 117.8 919.205C103.446 909.065 83.6304 905.788 65.6873 901.264C34.0138 893.307 16.0707 872.714 7.95729 842.604C6.39702 837.143 7.80127 830.903 9.82962 824.038C26.3685 848.844 38.6946 877.238 73.0205 880.358C78.9496 880.826 85.0346 880.358 95.1764 880.358C90.1835 870.53 87.531 864.289 84.0984 858.673C66.6234 829.966 48.5243 801.572 31.6734 772.554C2.8084 724.971 -6.86527 673.955 4.83676 619.975C7.48921 607.65 12.7941 595.793 17.631 584.092C19.3473 579.724 23.2479 576.291 26.0564 572.547C27.4607 573.015 28.8649 573.483 30.4252 573.951C29.9571 579.88 29.645 585.808 28.7089 591.736C26.9926 603.125 24.3401 614.514 22.7799 625.903C17.631 662.878 24.3401 697.668 44.6236 729.183C61.4745 755.549 79.2616 781.291 96.7366 807.189C98.765 810.309 102.354 812.337 107.346 816.862C108.283 810.309 109.687 806.097 109.531 801.884C108.127 771.306 101.261 742.288 83.1623 716.702C66.4674 693.144 58.198 666.934 60.8504 638.072C61.6306 629.647 65.2192 621.535 70.2121 613.422C76.7652 649.617 87.375 682.535 114.836 708.589C119.205 705.625 123.261 702.817 130.126 698.136C131.687 706.717 133.559 712.958 133.715 719.354C134.027 739.636 133.871 759.917 133.559 780.199C132.779 825.598 148.382 865.537 174.594 901.576C205.175 943.543 243.402 978.178 282.721 1011.88C284.281 1013.28 286.621 1013.9 290.522 1013.9C285.997 993.311 276.168 974.901 266.962 956.492C257.6 937.303 247.927 917.957 236.381 900.016C224.835 882.074 212.353 864.289 197.53 849C182.864 833.867 164.92 821.854 146.977 807.189C171.005 797.048 187.232 817.018 208.764 819.67C207.516 813.585 206.736 808.593 205.643 803.913C198.466 774.738 189.417 745.72 184.424 716.078C176.154 666.31 149.474 628.555 113.432 595.793C102.666 586.12 89.7154 578.631 79.8857 568.179C67.7156 555.386 57.2618 540.721 46.964 526.211C43.8435 521.843 44.3116 514.979 45.0917 508.426C63.1908 526.836 75.3609 550.393 102.978 563.81C96.8927 536.04 82.8502 513.106 89.7154 487.677C91.1197 487.052 92.5239 486.428 93.7721 485.648C97.2047 490.329 101.261 494.541 103.758 499.533C110.935 514.667 116.708 530.58 124.197 545.557C133.403 563.654 143.545 581.128 153.842 598.601C156.495 603.281 160.864 607.026 166.793 609.678C163.828 595.481 159.303 581.284 158.211 566.931C157.119 552.421 161.176 538.38 175.374 527.148C175.374 534.012 175.686 540.877 175.374 547.585C174.594 562.718 175.998 575.823 190.821 585.184C196.75 588.928 200.026 598.289 202.679 605.621C209.388 623.563 214.693 641.972 221.402 659.758C230.296 683.471 234.664 707.653 234.196 732.927C233.884 748.528 234.04 764.286 234.82 779.887C235.133 786.283 237.473 792.68 238.877 799.076C240.593 799.232 242.31 799.388 243.87 799.544C245.274 795.332 247.615 791.12 247.927 786.751C252.139 733.239 251.671 680.351 233.104 628.711C225.615 607.962 220.778 586.276 225.927 563.81C227.955 556.166 229.516 548.053 242.154 545.089Z" fill="#F9F8F6"/>
</g>
<defs>
<clipPath id="clip0_1244_710">
<rect width="787" height="1474" fill="white" transform="translate(0 -93)"/>
</clipPath>
</defs>
</svg>
