<svg width="493" height="435" viewBox="0 0 493 435" fill="none" xmlns="http://www.w3.org/2000/svg">
<path opacity="0.7" d="M340 241.5C340 323.845 273.856 390 193 390C112.144 390 46 323.845 46 241.5C46 159.155 112.144 93 193 93C273.856 93 340 159.155 340 241.5Z" stroke="white" stroke-width="90"/>
<path d="M164.672 9.00006V0.600054H167.672C168.544 0.600054 169.204 0.800054 169.652 1.20005C170.1 1.60005 170.324 2.11605 170.324 2.74805C170.324 3.23605 170.196 3.63205 169.94 3.93605C169.684 4.24005 169.388 4.46005 169.052 4.59605V4.68005C169.452 4.82405 169.796 5.06005 170.084 5.38805C170.372 5.70805 170.516 6.13205 170.516 6.66005C170.516 7.09205 170.408 7.48805 170.192 7.84805C169.984 8.20006 169.676 8.48005 169.268 8.68806C168.86 8.89606 168.36 9.00006 167.768 9.00006H164.672ZM165.944 4.10405H167.516C168.004 4.10405 168.376 4.00805 168.632 3.81605C168.888 3.61605 169.016 3.31605 169.016 2.91605C169.016 2.12405 168.508 1.72805 167.492 1.72805H165.944V4.10405ZM165.944 7.82405H167.6C168.12 7.82405 168.52 7.71205 168.8 7.48805C169.08 7.26405 169.22 6.93606 169.22 6.50406C169.22 6.08006 169.072 5.75605 168.776 5.53205C168.48 5.30005 168.08 5.18405 167.576 5.18405H165.944V7.82405Z" fill="black"/>
<path d="M172.335 9.00006V7.87205H174.159V1.72805H172.359V0.600054H177.231V1.72805H175.431V7.87205H177.255V9.00006H172.335Z" fill="black"/>
<path d="M181.99 9.14405C181.31 9.14405 180.722 8.96805 180.227 8.61605C179.731 8.26405 179.351 7.76405 179.087 7.11605C178.823 6.46805 178.691 5.69605 178.691 4.80005C178.691 3.90405 178.823 3.13205 179.087 2.48405C179.351 1.83605 179.731 1.33605 180.227 0.984054C180.722 0.632055 181.31 0.456055 181.99 0.456055C182.678 0.456055 183.266 0.632055 183.754 0.984054C184.25 1.33605 184.631 1.83605 184.895 2.48405C185.159 3.13205 185.291 3.90405 185.291 4.80005C185.291 5.69605 185.159 6.46805 184.895 7.11605C184.631 7.76405 184.25 8.26405 183.754 8.61605C183.266 8.96805 182.678 9.14405 181.99 9.14405ZM181.99 7.94405C182.59 7.94405 183.075 7.67605 183.443 7.14005C183.811 6.59605 183.994 5.81605 183.994 4.80005C183.994 3.78405 183.811 3.00805 183.443 2.47205C183.075 1.92805 182.59 1.65605 181.99 1.65605C181.382 1.65605 180.895 1.92805 180.526 2.47205C180.167 3.00805 179.986 3.78405 179.986 4.80005C179.986 5.81605 180.167 6.59605 180.526 7.14005C180.895 7.67605 181.382 7.94405 181.99 7.94405Z" fill="black"/>
<path d="M193.453 9.00006V0.600054H196.453C197.325 0.600054 197.985 0.800054 198.433 1.20005C198.881 1.60005 199.105 2.11605 199.105 2.74805C199.105 3.23605 198.977 3.63205 198.721 3.93605C198.465 4.24005 198.169 4.46005 197.833 4.59605V4.68005C198.233 4.82405 198.577 5.06005 198.865 5.38805C199.153 5.70805 199.297 6.13205 199.297 6.66005C199.297 7.09205 199.189 7.48805 198.973 7.84805C198.765 8.20006 198.457 8.48005 198.049 8.68806C197.641 8.89606 197.141 9.00006 196.549 9.00006H193.453ZM194.725 4.10405H196.297C196.785 4.10405 197.157 4.00805 197.413 3.81605C197.669 3.61605 197.797 3.31605 197.797 2.91605C197.797 2.12405 197.289 1.72805 196.273 1.72805H194.725V4.10405ZM194.725 7.82405H196.381C196.901 7.82405 197.301 7.71205 197.581 7.48805C197.861 7.26405 198.001 6.93606 198.001 6.50406C198.001 6.08006 197.853 5.75605 197.557 5.53205C197.261 5.30005 196.861 5.18405 196.357 5.18405H194.725V7.82405Z" fill="black"/>
<path d="M200.312 9.00006L202.82 0.600054H204.332L206.84 9.00006H205.46L204.896 6.98405H202.256L201.692 9.00006H200.312ZM203.54 2.40005L202.544 5.96405H204.608L203.612 2.40005H203.54Z" fill="black"/>
<path d="M210.856 9.14405C210.264 9.14405 209.744 9.03605 209.296 8.82006C208.856 8.60406 208.508 8.29605 208.252 7.89605C208.004 7.49605 207.876 7.02005 207.868 6.46805H209.212C209.22 6.89205 209.364 7.25605 209.644 7.56005C209.932 7.85605 210.332 8.00406 210.844 8.00406C211.316 8.00406 211.684 7.89605 211.948 7.68005C212.212 7.45605 212.344 7.16805 212.344 6.81605C212.344 6.52005 212.264 6.27605 212.104 6.08405C211.952 5.88405 211.712 5.70806 211.384 5.55606C211.056 5.39606 210.632 5.23205 210.112 5.06405C209.416 4.84005 208.904 4.53205 208.576 4.14005C208.248 3.74005 208.084 3.25205 208.084 2.67605C208.084 2.01205 208.324 1.47605 208.804 1.06805C209.284 0.660055 209.944 0.456055 210.784 0.456055C211.6 0.456055 212.256 0.668055 212.752 1.09205C213.248 1.50805 213.504 2.08805 213.52 2.83205H212.164C212.164 2.63205 212.108 2.44005 211.996 2.25605C211.884 2.06405 211.724 1.90805 211.516 1.78805C211.308 1.66005 211.052 1.59605 210.748 1.59605C210.372 1.58805 210.056 1.68005 209.8 1.87205C209.544 2.05605 209.416 2.30805 209.416 2.62805C209.416 3.02005 209.572 3.32805 209.884 3.55205C210.196 3.76805 210.704 3.99205 211.408 4.22405C211.848 4.36805 212.236 4.54405 212.572 4.75205C212.916 4.95205 213.184 5.21205 213.376 5.53205C213.576 5.84406 213.676 6.24405 213.676 6.73205C213.676 7.18005 213.564 7.58805 213.34 7.95605C213.116 8.31605 212.792 8.60406 212.368 8.82006C211.952 9.03605 211.448 9.14405 210.856 9.14405Z" fill="black"/>
<path d="M215.327 9.00006V0.600054H220.691V1.74005H216.599V4.18805H220.331V5.31605H216.599V7.86005H220.691V9.00006H215.327Z" fill="black"/>
<path d="M222.246 9.00006V0.600054H224.262C225.614 0.600054 226.618 0.976054 227.274 1.72805C227.93 2.47205 228.258 3.49605 228.258 4.80005C228.258 6.10405 227.93 7.13205 227.274 7.88405C226.618 8.62805 225.614 9.00006 224.262 9.00006H222.246ZM223.518 7.82405H224.214C225.19 7.82405 225.894 7.55205 226.326 7.00805C226.758 6.45605 226.974 5.72005 226.974 4.80005C226.974 3.88005 226.758 3.14805 226.326 2.60405C225.894 2.05205 225.19 1.77605 224.214 1.77605H223.518V7.82405Z" fill="black"/>
<path d="M421.684 246V237.6H423.7C425.052 237.6 426.056 237.976 426.712 238.728C427.368 239.472 427.696 240.496 427.696 241.8C427.696 243.104 427.368 244.132 426.712 244.884C426.056 245.628 425.052 246 423.7 246H421.684ZM422.956 244.824H423.652C424.628 244.824 425.332 244.552 425.764 244.008C426.196 243.456 426.412 242.72 426.412 241.8C426.412 240.88 426.196 240.148 425.764 239.604C425.332 239.052 424.628 238.776 423.652 238.776H422.956V244.824Z" fill="black"/>
<path d="M429.155 246V237.6H434.519V238.74H430.427V241.188H434.159V242.316H430.427V244.86H434.519V246H429.155Z" fill="black"/>
<path d="M438.883 246.144C438.259 246.144 437.71 245.968 437.238 245.616C436.767 245.256 436.398 244.752 436.134 244.104C435.87 243.456 435.738 242.688 435.738 241.8C435.738 240.928 435.87 240.168 436.134 239.52C436.398 238.872 436.775 238.368 437.263 238.008C437.759 237.64 438.351 237.456 439.039 237.456C439.871 237.456 440.539 237.684 441.043 238.14C441.555 238.596 441.866 239.24 441.978 240.072H440.599C440.519 239.64 440.342 239.296 440.07 239.04C439.806 238.784 439.463 238.656 439.039 238.656C438.391 238.656 437.895 238.936 437.551 239.496C437.207 240.056 437.034 240.824 437.034 241.8C437.034 242.816 437.215 243.596 437.574 244.14C437.943 244.676 438.418 244.944 439.003 244.944C439.395 244.944 439.718 244.828 439.974 244.596C440.23 244.364 440.427 244.068 440.562 243.708C440.698 243.34 440.783 242.952 440.815 242.544H439.051V241.488H442.099V246H440.922L440.839 244.872H440.767C440.607 245.24 440.383 245.544 440.095 245.784C439.807 246.024 439.402 246.144 438.883 246.144Z" fill="black"/>
<path d="M443.486 246V237.6H446.234C446.89 237.6 447.43 237.712 447.854 237.936C448.286 238.16 448.606 238.464 448.814 238.848C449.03 239.224 449.138 239.652 449.138 240.132C449.138 240.676 448.998 241.16 448.718 241.584C448.446 242 448.026 242.304 447.458 242.496L449.222 246H447.746L446.138 242.676H444.758V246H443.486ZM444.758 241.524H446.162C446.738 241.524 447.158 241.396 447.422 241.14C447.694 240.884 447.83 240.548 447.83 240.132C447.83 239.708 447.698 239.372 447.434 239.124C447.17 238.868 446.742 238.74 446.15 238.74H444.758V241.524Z" fill="black"/>
<path d="M450.117 246L452.625 237.6H454.137L456.645 246H455.265L454.701 243.984H452.061L451.497 246H450.117ZM453.345 239.4L452.349 242.964H454.413L453.417 239.4H453.345Z" fill="black"/>
<path d="M457.66 246V237.6H459.676C461.028 237.6 462.032 237.976 462.688 238.728C463.344 239.472 463.672 240.496 463.672 241.8C463.672 243.104 463.344 244.132 462.688 244.884C462.032 245.628 461.028 246 459.676 246H457.66ZM458.932 244.824H459.628C460.604 244.824 461.308 244.552 461.74 244.008C462.172 243.456 462.388 242.72 462.388 241.8C462.388 240.88 462.172 240.148 461.74 239.604C461.308 239.052 460.604 238.776 459.628 238.776H458.932V244.824Z" fill="black"/>
<path d="M464.508 246L467.016 237.6H468.528L471.036 246H469.656L469.092 243.984H466.452L465.888 246H464.508ZM467.736 239.4L466.74 242.964H468.804L467.808 239.4H467.736Z" fill="black"/>
<path d="M472.039 246V237.6H475.039C475.911 237.6 476.571 237.8 477.019 238.2C477.467 238.6 477.691 239.116 477.691 239.748C477.691 240.236 477.563 240.632 477.307 240.936C477.051 241.24 476.755 241.46 476.419 241.596V241.68C476.819 241.824 477.163 242.06 477.451 242.388C477.739 242.708 477.883 243.132 477.883 243.66C477.883 244.092 477.775 244.488 477.559 244.848C477.351 245.2 477.043 245.48 476.635 245.688C476.227 245.896 475.727 246 475.135 246H472.039ZM473.311 241.104H474.883C475.371 241.104 475.743 241.008 475.999 240.816C476.255 240.616 476.383 240.316 476.383 239.916C476.383 239.124 475.875 238.728 474.859 238.728H473.311V241.104ZM473.311 244.824H474.967C475.487 244.824 475.887 244.712 476.167 244.488C476.447 244.264 476.587 243.936 476.587 243.504C476.587 243.08 476.439 242.756 476.143 242.532C475.847 242.3 475.447 242.184 474.943 242.184H473.311V244.824Z" fill="black"/>
<path d="M479.534 246V237.6H480.806V244.86H484.946V246H479.534Z" fill="black"/>
<path d="M486.718 246V237.6H492.082V238.74H487.99V241.188H491.722V242.316H487.99V244.86H492.082V246H486.718Z" fill="black"/>
<path d="M394 240C394 128.991 304.009 39 193 39" stroke="black" stroke-dasharray="2 2"/>
<path d="M192.354 21.6465C192.158 21.4512 191.842 21.4512 191.646 21.6465L188.464 24.8284C188.269 25.0237 188.269 25.3403 188.464 25.5355C188.66 25.7308 188.976 25.7308 189.172 25.5355L192 22.7071L194.828 25.5355C195.024 25.7308 195.34 25.7308 195.536 25.5355C195.731 25.3403 195.731 25.0237 195.536 24.8284L192.354 21.6465ZM192.5 435L192.5 433.998L191.5 433.998L191.5 435L192.5 435ZM192.5 431.993L192.5 429.988L191.5 429.988L191.5 431.993L192.5 431.993ZM192.5 427.983L192.5 425.978L191.5 425.978L191.5 427.983L192.5 427.983ZM192.5 423.973L192.5 421.968L191.5 421.968L191.5 423.973L192.5 423.973ZM192.5 419.964L192.5 417.959L191.5 417.959L191.5 419.964L192.5 419.964ZM192.5 415.954L192.5 413.949L191.5 413.949L191.5 415.954L192.5 415.954ZM192.5 411.944L192.5 409.939L191.5 409.939L191.5 411.944L192.5 411.944ZM192.5 407.934L192.5 405.93L191.5 405.93L191.5 407.934L192.5 407.934ZM192.5 403.925L192.5 401.92L191.5 401.92L191.5 403.925L192.5 403.925ZM192.5 399.915L192.5 397.91L191.5 397.91L191.5 399.915L192.5 399.915ZM192.5 395.905L192.5 393.9L191.5 393.9L191.5 395.905L192.5 395.905ZM192.5 391.896L192.5 389.891L191.5 389.891L191.5 391.896L192.5 391.896ZM192.5 387.886L192.5 385.881L191.5 385.881L191.5 387.886L192.5 387.886ZM192.5 383.876L192.5 381.871L191.5 381.871L191.5 383.876L192.5 383.876ZM192.5 379.866L192.5 377.862L191.5 377.862L191.5 379.866L192.5 379.866ZM192.5 375.857L192.5 373.852L191.5 373.852L191.5 375.857L192.5 375.857ZM192.5 371.847L192.5 369.842L191.5 369.842L191.5 371.847L192.5 371.847ZM192.5 367.837L192.5 365.833L191.5 365.833L191.5 367.837L192.5 367.837ZM192.5 363.828L192.5 361.823L191.5 361.823L191.5 363.828L192.5 363.828ZM192.5 359.818L192.5 357.813L191.5 357.813L191.5 359.818L192.5 359.818ZM192.5 355.808L192.5 353.803L191.5 353.803L191.5 355.808L192.5 355.808ZM192.5 351.799L192.5 349.794L191.5 349.794L191.5 351.799L192.5 351.799ZM192.5 347.789L192.5 345.784L191.5 345.784L191.5 347.789L192.5 347.789ZM192.5 343.779L192.5 341.774L191.5 341.774L191.5 343.779L192.5 343.779ZM192.5 339.769L192.5 337.765L191.5 337.765L191.5 339.769L192.5 339.769ZM192.5 335.76L192.5 333.755L191.5 333.755L191.5 335.76L192.5 335.76ZM192.5 331.75L192.5 329.745L191.5 329.745L191.5 331.75L192.5 331.75ZM192.5 327.74L192.5 325.735L191.5 325.735L191.5 327.74L192.5 327.74ZM192.5 323.731L192.5 321.726L191.5 321.726L191.5 323.731L192.5 323.731ZM192.5 319.721L192.5 317.716L191.5 317.716L191.5 319.721L192.5 319.721ZM192.5 315.711L192.5 313.706L191.5 313.706L191.5 315.711L192.5 315.711ZM192.5 311.701L192.5 309.697L191.5 309.697L191.5 311.701L192.5 311.701ZM192.5 307.692L192.5 305.687L191.5 305.687L191.5 307.692L192.5 307.692ZM192.5 303.682L192.5 301.677L191.5 301.677L191.5 303.682L192.5 303.682ZM192.5 299.672L192.5 297.668L191.5 297.668L191.5 299.672L192.5 299.672ZM192.5 295.663L192.5 293.658L191.5 293.658L191.5 295.663L192.5 295.663ZM192.5 291.653L192.5 289.648L191.5 289.648L191.5 291.653L192.5 291.653ZM192.5 287.643L192.5 285.638L191.5 285.638L191.5 287.643L192.5 287.643ZM192.5 283.634L192.5 281.629L191.5 281.629L191.5 283.634L192.5 283.634ZM192.5 279.624L192.5 277.619L191.5 277.619L191.5 279.624L192.5 279.624ZM192.5 275.614L192.5 273.609L191.5 273.609L191.5 275.614L192.5 275.614ZM192.5 271.604L192.5 269.6L191.5 269.6L191.5 271.604L192.5 271.604ZM192.5 267.595L192.5 265.59L191.5 265.59L191.5 267.595L192.5 267.595ZM192.5 263.585L192.5 261.58L191.5 261.58L191.5 263.585L192.5 263.585ZM192.5 259.575L192.5 257.57L191.5 257.57L191.5 259.575L192.5 259.575ZM192.5 255.566L192.5 253.561L191.5 253.561L191.5 255.566L192.5 255.566ZM192.5 251.556L192.5 249.551L191.5 249.551L191.5 251.556L192.5 251.556ZM192.5 247.546L192.5 245.541L191.5 245.541L191.5 247.546L192.5 247.546ZM192.5 243.537L192.5 241.532L191.5 241.532L191.5 243.537L192.5 243.537ZM192.5 239.527L192.5 237.522L191.5 237.522L191.5 239.527L192.5 239.527ZM192.5 235.517L192.5 233.512L191.5 233.512L191.5 235.517L192.5 235.517ZM192.5 231.507L192.5 229.503L191.5 229.503L191.5 231.507L192.5 231.507ZM192.5 227.498L192.5 225.493L191.5 225.493L191.5 227.498L192.5 227.498ZM192.5 223.488L192.5 221.483L191.5 221.483L191.5 223.488L192.5 223.488ZM192.5 219.478L192.5 217.473L191.5 217.473L191.5 219.478L192.5 219.478ZM192.5 215.469L192.5 213.464L191.5 213.464L191.5 215.469L192.5 215.469ZM192.5 211.459L192.5 209.454L191.5 209.454L191.5 211.459L192.5 211.459ZM192.5 207.449L192.5 205.444L191.5 205.444L191.5 207.449L192.5 207.449ZM192.5 203.439L192.5 201.435L191.5 201.435L191.5 203.439L192.5 203.439ZM192.5 199.43L192.5 197.425L191.5 197.425L191.5 199.43L192.5 199.43ZM192.5 195.42L192.5 193.415L191.5 193.415L191.5 195.42L192.5 195.42ZM192.5 191.41L192.5 189.406L191.5 189.406L191.5 191.41L192.5 191.41ZM192.5 187.401L192.5 185.396L191.5 185.396L191.5 187.401L192.5 187.401ZM192.5 183.391L192.5 181.386L191.5 181.386L191.5 183.391L192.5 183.391ZM192.5 179.381L192.5 177.376L191.5 177.376L191.5 179.381L192.5 179.381ZM192.5 175.372L192.5 173.367L191.5 173.367L191.5 175.372L192.5 175.372ZM192.5 171.362L192.5 169.357L191.5 169.357L191.5 171.362L192.5 171.362ZM192.5 167.352L192.5 165.347L191.5 165.347L191.5 167.352L192.5 167.352ZM192.5 163.342L192.5 161.338L191.5 161.338L191.5 163.342L192.5 163.342ZM192.5 159.333L192.5 157.328L191.5 157.328L191.5 159.333L192.5 159.333ZM192.5 155.323L192.5 153.318L191.5 153.318L191.5 155.323L192.5 155.323ZM192.5 151.313L192.5 149.308L191.5 149.308L191.5 151.313L192.5 151.313ZM192.5 147.304L192.5 145.299L191.5 145.299L191.5 147.304L192.5 147.304ZM192.5 143.294L192.5 141.289L191.5 141.289L191.5 143.294L192.5 143.294ZM192.5 139.284L192.5 137.279L191.5 137.279L191.5 139.284L192.5 139.284ZM192.5 135.274L192.5 133.27L191.5 133.27L191.5 135.274L192.5 135.274ZM192.5 131.265L192.5 129.26L191.5 129.26L191.5 131.265L192.5 131.265ZM192.5 127.255L192.5 125.25L191.5 125.25L191.5 127.255L192.5 127.255ZM192.5 123.245L192.5 121.241L191.5 121.241L191.5 123.245L192.5 123.245ZM192.5 119.236L192.5 117.231L191.5 117.231L191.5 119.236L192.5 119.236ZM192.5 115.226L192.5 113.221L191.5 113.221L191.5 115.226L192.5 115.226ZM192.5 111.216L192.5 109.211L191.5 109.211L191.5 111.216L192.5 111.216ZM192.5 107.207L192.5 105.202L191.5 105.202L191.5 107.207L192.5 107.207ZM192.5 103.197L192.5 101.192L191.5 101.192L191.5 103.197L192.5 103.197ZM192.5 99.1871L192.5 97.1823L191.5 97.1823L191.5 99.1871L192.5 99.1871ZM192.5 95.1774L192.5 93.1726L191.5 93.1726L191.5 95.1774L192.5 95.1774ZM192.5 91.1677L192.5 89.1629L191.5 89.1629L191.5 91.1677L192.5 91.1677ZM192.5 87.158L192.5 85.1532L191.5 85.1532L191.5 87.158L192.5 87.158ZM192.5 83.1483L192.5 81.1435L191.5 81.1435L191.5 83.1483L192.5 83.1483ZM192.5 79.1386L192.5 77.1338L191.5 77.1338L191.5 79.1386L192.5 79.1386ZM192.5 75.1289L192.5 73.1241L191.5 73.1241L191.5 75.1289L192.5 75.1289ZM192.5 71.1192L192.5 69.1143L191.5 69.1143L191.5 71.1192L192.5 71.1192ZM192.5 67.1095L192.5 65.1046L191.5 65.1046L191.5 67.1095L192.5 67.1095ZM192.5 63.0998L192.5 61.0949L191.5 61.0949L191.5 63.0998L192.5 63.0998ZM192.5 59.0901L192.5 57.0852L191.5 57.0852L191.5 59.0901L192.5 59.0901ZM192.5 55.0804L192.5 53.0755L191.5 53.0755L191.5 55.0804L192.5 55.0804ZM192.5 51.0707L192.5 49.0658L191.5 49.0658L191.5 51.0707L192.5 51.0707ZM192.5 47.061L192.5 45.0561L191.5 45.0561L191.5 47.061L192.5 47.061ZM192.5 43.0513L192.5 41.0464L191.5 41.0464L191.5 43.0513L192.5 43.0513ZM192.5 39.0416L192.5 37.0367L191.5 37.0367L191.5 39.0416L192.5 39.0416ZM192.5 35.0319L192.5 33.027L191.5 33.027L191.5 35.0319L192.5 35.0319ZM192.5 31.0222L192.5 29.0173L191.5 29.0173L191.5 31.0222L192.5 31.0222ZM192.5 27.0125L192.5 25.0076L191.5 25.0076L191.5 27.0125L192.5 27.0125ZM192.5 23.0027L192.5 22L191.5 22L191.5 23.0027L192.5 23.0027ZM192.354 21.6465C192.158 21.4512 191.842 21.4512 191.646 21.6465L188.464 24.8284C188.269 25.0237 188.269 25.3403 188.464 25.5355C188.66 25.7308 188.976 25.7308 189.172 25.5355L192 22.7071L194.828 25.5355C195.024 25.7308 195.34 25.7308 195.536 25.5355C195.731 25.3403 195.731 25.0237 195.536 24.8284L192.354 21.6465ZM192.5 435L192.5 433.998L191.5 433.998L191.5 435L192.5 435ZM192.5 431.993L192.5 429.988L191.5 429.988L191.5 431.993L192.5 431.993ZM192.5 427.983L192.5 425.978L191.5 425.978L191.5 427.983L192.5 427.983ZM192.5 423.973L192.5 421.968L191.5 421.968L191.5 423.973L192.5 423.973ZM192.5 419.964L192.5 417.959L191.5 417.959L191.5 419.964L192.5 419.964ZM192.5 415.954L192.5 413.949L191.5 413.949L191.5 415.954L192.5 415.954ZM192.5 411.944L192.5 409.939L191.5 409.939L191.5 411.944L192.5 411.944ZM192.5 407.934L192.5 405.93L191.5 405.93L191.5 407.934L192.5 407.934ZM192.5 403.925L192.5 401.92L191.5 401.92L191.5 403.925L192.5 403.925ZM192.5 399.915L192.5 397.91L191.5 397.91L191.5 399.915L192.5 399.915ZM192.5 395.905L192.5 393.9L191.5 393.9L191.5 395.905L192.5 395.905ZM192.5 391.896L192.5 389.891L191.5 389.891L191.5 391.896L192.5 391.896ZM192.5 387.886L192.5 385.881L191.5 385.881L191.5 387.886L192.5 387.886ZM192.5 383.876L192.5 381.871L191.5 381.871L191.5 383.876L192.5 383.876ZM192.5 379.866L192.5 377.862L191.5 377.862L191.5 379.866L192.5 379.866ZM192.5 375.857L192.5 373.852L191.5 373.852L191.5 375.857L192.5 375.857ZM192.5 371.847L192.5 369.842L191.5 369.842L191.5 371.847L192.5 371.847ZM192.5 367.837L192.5 365.833L191.5 365.833L191.5 367.837L192.5 367.837ZM192.5 363.828L192.5 361.823L191.5 361.823L191.5 363.828L192.5 363.828ZM192.5 359.818L192.5 357.813L191.5 357.813L191.5 359.818L192.5 359.818ZM192.5 355.808L192.5 353.803L191.5 353.803L191.5 355.808L192.5 355.808ZM192.5 351.799L192.5 349.794L191.5 349.794L191.5 351.799L192.5 351.799ZM192.5 347.789L192.5 345.784L191.5 345.784L191.5 347.789L192.5 347.789ZM192.5 343.779L192.5 341.774L191.5 341.774L191.5 343.779L192.5 343.779ZM192.5 339.769L192.5 337.765L191.5 337.765L191.5 339.769L192.5 339.769ZM192.5 335.76L192.5 333.755L191.5 333.755L191.5 335.76L192.5 335.76ZM192.5 331.75L192.5 329.745L191.5 329.745L191.5 331.75L192.5 331.75ZM192.5 327.74L192.5 325.735L191.5 325.735L191.5 327.74L192.5 327.74ZM192.5 323.731L192.5 321.726L191.5 321.726L191.5 323.731L192.5 323.731ZM192.5 319.721L192.5 317.716L191.5 317.716L191.5 319.721L192.5 319.721ZM192.5 315.711L192.5 313.706L191.5 313.706L191.5 315.711L192.5 315.711ZM192.5 311.701L192.5 309.697L191.5 309.697L191.5 311.701L192.5 311.701ZM192.5 307.692L192.5 305.687L191.5 305.687L191.5 307.692L192.5 307.692ZM192.5 303.682L192.5 301.677L191.5 301.677L191.5 303.682L192.5 303.682ZM192.5 299.672L192.5 297.668L191.5 297.668L191.5 299.672L192.5 299.672ZM192.5 295.663L192.5 293.658L191.5 293.658L191.5 295.663L192.5 295.663ZM192.5 291.653L192.5 289.648L191.5 289.648L191.5 291.653L192.5 291.653ZM192.5 287.643L192.5 285.638L191.5 285.638L191.5 287.643L192.5 287.643ZM192.5 283.634L192.5 281.629L191.5 281.629L191.5 283.634L192.5 283.634ZM192.5 279.624L192.5 277.619L191.5 277.619L191.5 279.624L192.5 279.624ZM192.5 275.614L192.5 273.609L191.5 273.609L191.5 275.614L192.5 275.614ZM192.5 271.604L192.5 269.6L191.5 269.6L191.5 271.604L192.5 271.604ZM192.5 267.595L192.5 265.59L191.5 265.59L191.5 267.595L192.5 267.595ZM192.5 263.585L192.5 261.58L191.5 261.58L191.5 263.585L192.5 263.585ZM192.5 259.575L192.5 257.57L191.5 257.57L191.5 259.575L192.5 259.575ZM192.5 255.566L192.5 253.561L191.5 253.561L191.5 255.566L192.5 255.566ZM192.5 251.556L192.5 249.551L191.5 249.551L191.5 251.556L192.5 251.556ZM192.5 247.546L192.5 245.541L191.5 245.541L191.5 247.546L192.5 247.546ZM192.5 243.537L192.5 241.532L191.5 241.532L191.5 243.537L192.5 243.537ZM192.5 239.527L192.5 237.522L191.5 237.522L191.5 239.527L192.5 239.527ZM192.5 235.517L192.5 233.512L191.5 233.512L191.5 235.517L192.5 235.517ZM192.5 231.507L192.5 229.503L191.5 229.503L191.5 231.507L192.5 231.507ZM192.5 227.498L192.5 225.493L191.5 225.493L191.5 227.498L192.5 227.498ZM192.5 223.488L192.5 221.483L191.5 221.483L191.5 223.488L192.5 223.488ZM192.5 219.478L192.5 217.473L191.5 217.473L191.5 219.478L192.5 219.478ZM192.5 215.469L192.5 213.464L191.5 213.464L191.5 215.469L192.5 215.469ZM192.5 211.459L192.5 209.454L191.5 209.454L191.5 211.459L192.5 211.459ZM192.5 207.449L192.5 205.444L191.5 205.444L191.5 207.449L192.5 207.449ZM192.5 203.439L192.5 201.435L191.5 201.435L191.5 203.439L192.5 203.439ZM192.5 199.43L192.5 197.425L191.5 197.425L191.5 199.43L192.5 199.43ZM192.5 195.42L192.5 193.415L191.5 193.415L191.5 195.42L192.5 195.42ZM192.5 191.41L192.5 189.406L191.5 189.406L191.5 191.41L192.5 191.41ZM192.5 187.401L192.5 185.396L191.5 185.396L191.5 187.401L192.5 187.401ZM192.5 183.391L192.5 181.386L191.5 181.386L191.5 183.391L192.5 183.391ZM192.5 179.381L192.5 177.376L191.5 177.376L191.5 179.381L192.5 179.381ZM192.5 175.372L192.5 173.367L191.5 173.367L191.5 175.372L192.5 175.372ZM192.5 171.362L192.5 169.357L191.5 169.357L191.5 171.362L192.5 171.362ZM192.5 167.352L192.5 165.347L191.5 165.347L191.5 167.352L192.5 167.352ZM192.5 163.342L192.5 161.338L191.5 161.338L191.5 163.342L192.5 163.342ZM192.5 159.333L192.5 157.328L191.5 157.328L191.5 159.333L192.5 159.333ZM192.5 155.323L192.5 153.318L191.5 153.318L191.5 155.323L192.5 155.323ZM192.5 151.313L192.5 149.308L191.5 149.308L191.5 151.313L192.5 151.313ZM192.5 147.304L192.5 145.299L191.5 145.299L191.5 147.304L192.5 147.304ZM192.5 143.294L192.5 141.289L191.5 141.289L191.5 143.294L192.5 143.294ZM192.5 139.284L192.5 137.279L191.5 137.279L191.5 139.284L192.5 139.284ZM192.5 135.274L192.5 133.27L191.5 133.27L191.5 135.274L192.5 135.274ZM192.5 131.265L192.5 129.26L191.5 129.26L191.5 131.265L192.5 131.265ZM192.5 127.255L192.5 125.25L191.5 125.25L191.5 127.255L192.5 127.255ZM192.5 123.245L192.5 121.241L191.5 121.241L191.5 123.245L192.5 123.245ZM192.5 119.236L192.5 117.231L191.5 117.231L191.5 119.236L192.5 119.236ZM192.5 115.226L192.5 113.221L191.5 113.221L191.5 115.226L192.5 115.226ZM192.5 111.216L192.5 109.211L191.5 109.211L191.5 111.216L192.5 111.216ZM192.5 107.207L192.5 105.202L191.5 105.202L191.5 107.207L192.5 107.207ZM192.5 103.197L192.5 101.192L191.5 101.192L191.5 103.197L192.5 103.197ZM192.5 99.1871L192.5 97.1823L191.5 97.1823L191.5 99.1871L192.5 99.1871ZM192.5 95.1774L192.5 93.1726L191.5 93.1726L191.5 95.1774L192.5 95.1774ZM192.5 91.1677L192.5 89.1629L191.5 89.1629L191.5 91.1677L192.5 91.1677ZM192.5 87.158L192.5 85.1532L191.5 85.1532L191.5 87.158L192.5 87.158ZM192.5 83.1483L192.5 81.1435L191.5 81.1435L191.5 83.1483L192.5 83.1483ZM192.5 79.1386L192.5 77.1338L191.5 77.1338L191.5 79.1386L192.5 79.1386ZM192.5 75.1289L192.5 73.1241L191.5 73.1241L191.5 75.1289L192.5 75.1289ZM192.5 71.1192L192.5 69.1143L191.5 69.1143L191.5 71.1192L192.5 71.1192ZM192.5 67.1095L192.5 65.1046L191.5 65.1046L191.5 67.1095L192.5 67.1095ZM192.5 63.0998L192.5 61.0949L191.5 61.0949L191.5 63.0998L192.5 63.0998ZM192.5 59.0901L192.5 57.0852L191.5 57.0852L191.5 59.0901L192.5 59.0901ZM192.5 55.0804L192.5 53.0755L191.5 53.0755L191.5 55.0804L192.5 55.0804ZM192.5 51.0707L192.5 49.0658L191.5 49.0658L191.5 51.0707L192.5 51.0707ZM192.5 47.061L192.5 45.0561L191.5 45.0561L191.5 47.061L192.5 47.061ZM192.5 43.0513L192.5 41.0464L191.5 41.0464L191.5 43.0513L192.5 43.0513ZM192.5 39.0416L192.5 37.0367L191.5 37.0367L191.5 39.0416L192.5 39.0416ZM192.5 35.0319L192.5 33.027L191.5 33.027L191.5 35.0319L192.5 35.0319ZM192.5 31.0222L192.5 29.0173L191.5 29.0173L191.5 31.0222L192.5 31.0222ZM192.5 27.0125L192.5 25.0076L191.5 25.0076L191.5 27.0125L192.5 27.0125ZM192.5 23.0027L192.5 22L191.5 22L191.5 23.0027L192.5 23.0027Z" fill="black"/>
<path d="M410.354 241.354C410.549 241.158 410.549 240.842 410.354 240.646L407.172 237.465C406.976 237.269 406.66 237.269 406.464 237.465C406.269 237.66 406.269 237.976 406.464 238.172L409.293 241L406.464 243.828C406.269 244.024 406.269 244.34 406.464 244.536C406.66 244.731 406.976 244.731 407.172 244.536L410.354 241.354ZM-4.37114e-08 241.5L0.995146 241.5L0.995146 240.5L4.37114e-08 240.5L-4.37114e-08 241.5ZM2.98544 241.5L4.97573 241.5L4.97573 240.5L2.98544 240.5L2.98544 241.5ZM6.96602 241.5L8.95631 241.5L8.95631 240.5L6.96602 240.5L6.96602 241.5ZM10.9466 241.5L12.9369 241.5L12.9369 240.5L10.9466 240.5L10.9466 241.5ZM14.9272 241.5L16.9175 241.5L16.9175 240.5L14.9272 240.5L14.9272 241.5ZM18.9078 241.5L20.8981 241.5L20.8981 240.5L18.9078 240.5L18.9078 241.5ZM22.8884 241.5L24.8786 241.5L24.8786 240.5L22.8884 240.5L22.8884 241.5ZM26.8689 241.5L28.8592 241.5L28.8592 240.5L26.8689 240.5L26.8689 241.5ZM30.8495 241.5L32.8398 241.5L32.8398 240.5L30.8495 240.5L30.8495 241.5ZM34.8301 241.5L36.8204 241.5L36.8204 240.5L34.8301 240.5L34.8301 241.5ZM38.8107 241.5L40.801 241.5L40.801 240.5L38.8107 240.5L38.8107 241.5ZM42.7913 241.5L44.7816 241.5L44.7816 240.5L42.7913 240.5L42.7913 241.5ZM46.7719 241.5L48.7621 241.5L48.7621 240.5L46.7719 240.5L46.7719 241.5ZM50.7524 241.5L52.7427 241.5L52.7427 240.5L50.7524 240.5L50.7524 241.5ZM54.733 241.5L56.7233 241.5L56.7233 240.5L54.733 240.5L54.733 241.5ZM58.7136 241.5L60.7039 241.5L60.7039 240.5L58.7136 240.5L58.7136 241.5ZM62.6942 241.5L64.6845 241.5L64.6845 240.5L62.6942 240.5L62.6942 241.5ZM66.6748 241.5L68.665 241.5L68.665 240.5L66.6748 240.5L66.6748 241.5ZM70.6553 241.5L72.6456 241.5L72.6456 240.5L70.6553 240.5L70.6553 241.5ZM74.6359 241.5L76.6262 241.5L76.6262 240.5L74.6359 240.5L74.6359 241.5ZM78.6165 241.5L80.6068 241.5L80.6068 240.5L78.6165 240.5L78.6165 241.5ZM82.5971 241.5L84.5873 241.5L84.5873 240.5L82.5971 240.5L82.5971 241.5ZM86.5776 241.5L88.5679 241.5L88.5679 240.5L86.5776 240.5L86.5776 241.5ZM90.5582 241.5L92.5485 241.5L92.5485 240.5L90.5582 240.5L90.5582 241.5ZM94.5388 241.5L96.5291 241.5L96.5291 240.5L94.5388 240.5L94.5388 241.5ZM98.5194 241.5L100.51 241.5L100.51 240.5L98.5194 240.5L98.5194 241.5ZM102.5 241.5L104.49 241.5L104.49 240.5L102.5 240.5L102.5 241.5ZM106.481 241.5L108.471 241.5L108.471 240.5L106.481 240.5L106.481 241.5ZM110.461 241.5L112.451 241.5L112.451 240.5L110.461 240.5L110.461 241.5ZM114.442 241.5L116.432 241.5L116.432 240.5L114.442 240.5L114.442 241.5ZM118.422 241.5L120.413 241.5L120.413 240.5L118.422 240.5L118.422 241.5ZM122.403 241.5L124.393 241.5L124.393 240.5L122.403 240.5L122.403 241.5ZM126.383 241.5L128.374 241.5L128.374 240.5L126.383 240.5L126.383 241.5ZM130.364 241.5L132.354 241.5L132.354 240.5L130.364 240.5L130.364 241.5ZM134.345 241.5L136.335 241.5L136.335 240.5L134.345 240.5L134.345 241.5ZM138.325 241.5L140.315 241.5L140.315 240.5L138.325 240.5L138.325 241.5ZM142.306 241.5L144.296 241.5L144.296 240.5L142.306 240.5L142.306 241.5ZM146.286 241.5L148.277 241.5L148.277 240.5L146.286 240.5L146.286 241.5ZM150.267 241.5L152.257 241.5L152.257 240.5L150.267 240.5L150.267 241.5ZM154.248 241.5L156.238 241.5L156.238 240.5L154.248 240.5L154.248 241.5ZM158.228 241.5L160.218 241.5L160.218 240.5L158.228 240.5L158.228 241.5ZM162.209 241.5L164.199 241.5L164.199 240.5L162.209 240.5L162.209 241.5ZM166.189 241.5L168.18 241.5L168.18 240.5L166.189 240.5L166.189 241.5ZM170.17 241.5L172.16 241.5L172.16 240.5L170.17 240.5L170.17 241.5ZM174.15 241.5L176.141 241.5L176.141 240.5L174.15 240.5L174.15 241.5ZM178.131 241.5L180.121 241.5L180.121 240.5L178.131 240.5L178.131 241.5ZM182.112 241.5L184.102 241.5L184.102 240.5L182.112 240.5L182.112 241.5ZM186.092 241.5L188.083 241.5L188.083 240.5L186.092 240.5L186.092 241.5ZM190.073 241.5L192.063 241.5L192.063 240.5L190.073 240.5L190.073 241.5ZM194.053 241.5L196.044 241.5L196.044 240.5L194.053 240.5L194.053 241.5ZM198.034 241.5L200.024 241.5L200.024 240.5L198.034 240.5L198.034 241.5ZM202.015 241.5L204.005 241.5L204.005 240.5L202.015 240.5L202.015 241.5ZM205.995 241.5L207.986 241.5L207.986 240.5L205.995 240.5L205.995 241.5ZM209.976 241.5L211.966 241.5L211.966 240.5L209.976 240.5L209.976 241.5ZM213.956 241.5L215.947 241.5L215.947 240.5L213.956 240.5L213.956 241.5ZM217.937 241.5L219.927 241.5L219.927 240.5L217.937 240.5L217.937 241.5ZM221.918 241.5L223.908 241.5L223.908 240.5L221.918 240.5L221.918 241.5ZM225.898 241.5L227.888 241.5L227.888 240.5L225.898 240.5L225.898 241.5ZM229.879 241.5L231.869 241.5L231.869 240.5L229.879 240.5L229.879 241.5ZM233.859 241.5L235.85 241.5L235.85 240.5L233.859 240.5L233.859 241.5ZM237.84 241.5L239.83 241.5L239.83 240.5L237.84 240.5L237.84 241.5ZM241.821 241.5L243.811 241.5L243.811 240.5L241.821 240.5L241.821 241.5ZM245.801 241.5L247.791 241.5L247.791 240.5L245.801 240.5L245.801 241.5ZM249.782 241.5L251.772 241.5L251.772 240.5L249.782 240.5L249.782 241.5ZM253.762 241.5L255.753 241.5L255.753 240.5L253.762 240.5L253.762 241.5ZM257.743 241.5L259.733 241.5L259.733 240.5L257.743 240.5L257.743 241.5ZM261.723 241.5L263.714 241.5L263.714 240.5L261.723 240.5L261.723 241.5ZM265.704 241.5L267.694 241.5L267.694 240.5L265.704 240.5L265.704 241.5ZM269.685 241.5L271.675 241.5L271.675 240.5L269.685 240.5L269.685 241.5ZM273.665 241.5L275.656 241.5L275.656 240.5L273.665 240.5L273.665 241.5ZM277.646 241.5L279.636 241.5L279.636 240.5L277.646 240.5L277.646 241.5ZM281.626 241.5L283.617 241.5L283.617 240.5L281.626 240.5L281.626 241.5ZM285.607 241.5L287.597 241.5L287.597 240.5L285.607 240.5L285.607 241.5ZM289.588 241.5L291.578 241.5L291.578 240.5L289.588 240.5L289.588 241.5ZM293.568 241.5L295.559 241.5L295.559 240.5L293.568 240.5L293.568 241.5ZM297.549 241.5L299.539 241.5L299.539 240.5L297.549 240.5L297.549 241.5ZM301.529 241.5L303.52 241.5L303.52 240.5L301.529 240.5L301.529 241.5ZM305.51 241.5L307.5 241.5L307.5 240.5L305.51 240.5L305.51 241.5ZM309.491 241.5L311.481 241.5L311.481 240.5L309.491 240.5L309.491 241.5ZM313.471 241.5L315.461 241.5L315.461 240.5L313.471 240.5L313.471 241.5ZM317.452 241.5L319.442 241.5L319.442 240.5L317.452 240.5L317.452 241.5ZM321.432 241.5L323.423 241.5L323.423 240.5L321.432 240.5L321.432 241.5ZM325.413 241.5L327.403 241.5L327.403 240.5L325.413 240.5L325.413 241.5ZM329.394 241.5L331.384 241.5L331.384 240.5L329.394 240.5L329.394 241.5ZM333.374 241.5L335.364 241.5L335.364 240.5L333.374 240.5L333.374 241.5ZM337.355 241.5L339.345 241.5L339.345 240.5L337.355 240.5L337.355 241.5ZM341.335 241.5L343.326 241.5L343.326 240.5L341.335 240.5L341.335 241.5ZM345.316 241.5L347.306 241.5L347.306 240.5L345.316 240.5L345.316 241.5ZM349.296 241.5L351.287 241.5L351.287 240.5L349.296 240.5L349.296 241.5ZM353.277 241.5L355.267 241.5L355.267 240.5L353.277 240.5L353.277 241.5ZM357.258 241.5L359.248 241.5L359.248 240.5L357.258 240.5L357.258 241.5ZM361.238 241.5L363.229 241.5L363.229 240.5L361.238 240.5L361.238 241.5ZM365.219 241.5L367.209 241.5L367.209 240.5L365.219 240.5L365.219 241.5ZM369.199 241.5L371.19 241.5L371.19 240.5L369.199 240.5L369.199 241.5ZM373.18 241.5L375.17 241.5L375.17 240.5L373.18 240.5L373.18 241.5ZM377.161 241.5L379.151 241.5L379.151 240.5L377.161 240.5L377.161 241.5ZM381.141 241.5L383.132 241.5L383.132 240.5L381.141 240.5L381.141 241.5ZM385.122 241.5L387.112 241.5L387.112 240.5L385.122 240.5L385.122 241.5ZM389.102 241.5L391.093 241.5L391.093 240.5L389.102 240.5L389.102 241.5ZM393.083 241.5L395.073 241.5L395.073 240.5L393.083 240.5L393.083 241.5ZM397.064 241.5L399.054 241.5L399.054 240.5L397.064 240.5L397.064 241.5ZM401.044 241.5L403.034 241.5L403.034 240.5L401.044 240.5L401.044 241.5ZM405.025 241.5L407.015 241.5L407.015 240.5L405.025 240.5L405.025 241.5ZM409.005 241.5L410 241.5L410 240.5L409.005 240.5L409.005 241.5ZM410.354 241.354C410.549 241.158 410.549 240.842 410.354 240.646L407.172 237.465C406.976 237.269 406.66 237.269 406.464 237.465C406.269 237.66 406.269 237.976 406.464 238.172L409.293 241L406.464 243.828C406.269 244.024 406.269 244.34 406.464 244.536C406.66 244.731 406.976 244.731 407.172 244.536L410.354 241.354ZM-4.37114e-08 241.5L0.995146 241.5L0.995146 240.5L4.37114e-08 240.5L-4.37114e-08 241.5ZM2.98544 241.5L4.97573 241.5L4.97573 240.5L2.98544 240.5L2.98544 241.5ZM6.96602 241.5L8.95631 241.5L8.95631 240.5L6.96602 240.5L6.96602 241.5ZM10.9466 241.5L12.9369 241.5L12.9369 240.5L10.9466 240.5L10.9466 241.5ZM14.9272 241.5L16.9175 241.5L16.9175 240.5L14.9272 240.5L14.9272 241.5ZM18.9078 241.5L20.8981 241.5L20.8981 240.5L18.9078 240.5L18.9078 241.5ZM22.8884 241.5L24.8786 241.5L24.8786 240.5L22.8884 240.5L22.8884 241.5ZM26.8689 241.5L28.8592 241.5L28.8592 240.5L26.8689 240.5L26.8689 241.5ZM30.8495 241.5L32.8398 241.5L32.8398 240.5L30.8495 240.5L30.8495 241.5ZM34.8301 241.5L36.8204 241.5L36.8204 240.5L34.8301 240.5L34.8301 241.5ZM38.8107 241.5L40.801 241.5L40.801 240.5L38.8107 240.5L38.8107 241.5ZM42.7913 241.5L44.7816 241.5L44.7816 240.5L42.7913 240.5L42.7913 241.5ZM46.7719 241.5L48.7621 241.5L48.7621 240.5L46.7719 240.5L46.7719 241.5ZM50.7524 241.5L52.7427 241.5L52.7427 240.5L50.7524 240.5L50.7524 241.5ZM54.733 241.5L56.7233 241.5L56.7233 240.5L54.733 240.5L54.733 241.5ZM58.7136 241.5L60.7039 241.5L60.7039 240.5L58.7136 240.5L58.7136 241.5ZM62.6942 241.5L64.6845 241.5L64.6845 240.5L62.6942 240.5L62.6942 241.5ZM66.6748 241.5L68.665 241.5L68.665 240.5L66.6748 240.5L66.6748 241.5ZM70.6553 241.5L72.6456 241.5L72.6456 240.5L70.6553 240.5L70.6553 241.5ZM74.6359 241.5L76.6262 241.5L76.6262 240.5L74.6359 240.5L74.6359 241.5ZM78.6165 241.5L80.6068 241.5L80.6068 240.5L78.6165 240.5L78.6165 241.5ZM82.5971 241.5L84.5873 241.5L84.5873 240.5L82.5971 240.5L82.5971 241.5ZM86.5776 241.5L88.5679 241.5L88.5679 240.5L86.5776 240.5L86.5776 241.5ZM90.5582 241.5L92.5485 241.5L92.5485 240.5L90.5582 240.5L90.5582 241.5ZM94.5388 241.5L96.5291 241.5L96.5291 240.5L94.5388 240.5L94.5388 241.5ZM98.5194 241.5L100.51 241.5L100.51 240.5L98.5194 240.5L98.5194 241.5ZM102.5 241.5L104.49 241.5L104.49 240.5L102.5 240.5L102.5 241.5ZM106.481 241.5L108.471 241.5L108.471 240.5L106.481 240.5L106.481 241.5ZM110.461 241.5L112.451 241.5L112.451 240.5L110.461 240.5L110.461 241.5ZM114.442 241.5L116.432 241.5L116.432 240.5L114.442 240.5L114.442 241.5ZM118.422 241.5L120.413 241.5L120.413 240.5L118.422 240.5L118.422 241.5ZM122.403 241.5L124.393 241.5L124.393 240.5L122.403 240.5L122.403 241.5ZM126.383 241.5L128.374 241.5L128.374 240.5L126.383 240.5L126.383 241.5ZM130.364 241.5L132.354 241.5L132.354 240.5L130.364 240.5L130.364 241.5ZM134.345 241.5L136.335 241.5L136.335 240.5L134.345 240.5L134.345 241.5ZM138.325 241.5L140.315 241.5L140.315 240.5L138.325 240.5L138.325 241.5ZM142.306 241.5L144.296 241.5L144.296 240.5L142.306 240.5L142.306 241.5ZM146.286 241.5L148.277 241.5L148.277 240.5L146.286 240.5L146.286 241.5ZM150.267 241.5L152.257 241.5L152.257 240.5L150.267 240.5L150.267 241.5ZM154.248 241.5L156.238 241.5L156.238 240.5L154.248 240.5L154.248 241.5ZM158.228 241.5L160.218 241.5L160.218 240.5L158.228 240.5L158.228 241.5ZM162.209 241.5L164.199 241.5L164.199 240.5L162.209 240.5L162.209 241.5ZM166.189 241.5L168.18 241.5L168.18 240.5L166.189 240.5L166.189 241.5ZM170.17 241.5L172.16 241.5L172.16 240.5L170.17 240.5L170.17 241.5ZM174.15 241.5L176.141 241.5L176.141 240.5L174.15 240.5L174.15 241.5ZM178.131 241.5L180.121 241.5L180.121 240.5L178.131 240.5L178.131 241.5ZM182.112 241.5L184.102 241.5L184.102 240.5L182.112 240.5L182.112 241.5ZM186.092 241.5L188.083 241.5L188.083 240.5L186.092 240.5L186.092 241.5ZM190.073 241.5L192.063 241.5L192.063 240.5L190.073 240.5L190.073 241.5ZM194.053 241.5L196.044 241.5L196.044 240.5L194.053 240.5L194.053 241.5ZM198.034 241.5L200.024 241.5L200.024 240.5L198.034 240.5L198.034 241.5ZM202.015 241.5L204.005 241.5L204.005 240.5L202.015 240.5L202.015 241.5ZM205.995 241.5L207.986 241.5L207.986 240.5L205.995 240.5L205.995 241.5ZM209.976 241.5L211.966 241.5L211.966 240.5L209.976 240.5L209.976 241.5ZM213.956 241.5L215.947 241.5L215.947 240.5L213.956 240.5L213.956 241.5ZM217.937 241.5L219.927 241.5L219.927 240.5L217.937 240.5L217.937 241.5ZM221.918 241.5L223.908 241.5L223.908 240.5L221.918 240.5L221.918 241.5ZM225.898 241.5L227.888 241.5L227.888 240.5L225.898 240.5L225.898 241.5ZM229.879 241.5L231.869 241.5L231.869 240.5L229.879 240.5L229.879 241.5ZM233.859 241.5L235.85 241.5L235.85 240.5L233.859 240.5L233.859 241.5ZM237.84 241.5L239.83 241.5L239.83 240.5L237.84 240.5L237.84 241.5ZM241.821 241.5L243.811 241.5L243.811 240.5L241.821 240.5L241.821 241.5ZM245.801 241.5L247.791 241.5L247.791 240.5L245.801 240.5L245.801 241.5ZM249.782 241.5L251.772 241.5L251.772 240.5L249.782 240.5L249.782 241.5ZM253.762 241.5L255.753 241.5L255.753 240.5L253.762 240.5L253.762 241.5ZM257.743 241.5L259.733 241.5L259.733 240.5L257.743 240.5L257.743 241.5ZM261.723 241.5L263.714 241.5L263.714 240.5L261.723 240.5L261.723 241.5ZM265.704 241.5L267.694 241.5L267.694 240.5L265.704 240.5L265.704 241.5ZM269.685 241.5L271.675 241.5L271.675 240.5L269.685 240.5L269.685 241.5ZM273.665 241.5L275.656 241.5L275.656 240.5L273.665 240.5L273.665 241.5ZM277.646 241.5L279.636 241.5L279.636 240.5L277.646 240.5L277.646 241.5ZM281.626 241.5L283.617 241.5L283.617 240.5L281.626 240.5L281.626 241.5ZM285.607 241.5L287.597 241.5L287.597 240.5L285.607 240.5L285.607 241.5ZM289.588 241.5L291.578 241.5L291.578 240.5L289.588 240.5L289.588 241.5ZM293.568 241.5L295.559 241.5L295.559 240.5L293.568 240.5L293.568 241.5ZM297.549 241.5L299.539 241.5L299.539 240.5L297.549 240.5L297.549 241.5ZM301.529 241.5L303.52 241.5L303.52 240.5L301.529 240.5L301.529 241.5ZM305.51 241.5L307.5 241.5L307.5 240.5L305.51 240.5L305.51 241.5ZM309.491 241.5L311.481 241.5L311.481 240.5L309.491 240.5L309.491 241.5ZM313.471 241.5L315.461 241.5L315.461 240.5L313.471 240.5L313.471 241.5ZM317.452 241.5L319.442 241.5L319.442 240.5L317.452 240.5L317.452 241.5ZM321.432 241.5L323.423 241.5L323.423 240.5L321.432 240.5L321.432 241.5ZM325.413 241.5L327.403 241.5L327.403 240.5L325.413 240.5L325.413 241.5ZM329.394 241.5L331.384 241.5L331.384 240.5L329.394 240.5L329.394 241.5ZM333.374 241.5L335.364 241.5L335.364 240.5L333.374 240.5L333.374 241.5ZM337.355 241.5L339.345 241.5L339.345 240.5L337.355 240.5L337.355 241.5ZM341.335 241.5L343.326 241.5L343.326 240.5L341.335 240.5L341.335 241.5ZM345.316 241.5L347.306 241.5L347.306 240.5L345.316 240.5L345.316 241.5ZM349.296 241.5L351.287 241.5L351.287 240.5L349.296 240.5L349.296 241.5ZM353.277 241.5L355.267 241.5L355.267 240.5L353.277 240.5L353.277 241.5ZM357.258 241.5L359.248 241.5L359.248 240.5L357.258 240.5L357.258 241.5ZM361.238 241.5L363.229 241.5L363.229 240.5L361.238 240.5L361.238 241.5ZM365.219 241.5L367.209 241.5L367.209 240.5L365.219 240.5L365.219 241.5ZM369.199 241.5L371.19 241.5L371.19 240.5L369.199 240.5L369.199 241.5ZM373.18 241.5L375.17 241.5L375.17 240.5L373.18 240.5L373.18 241.5ZM377.161 241.5L379.151 241.5L379.151 240.5L377.161 240.5L377.161 241.5ZM381.141 241.5L383.132 241.5L383.132 240.5L381.141 240.5L381.141 241.5ZM385.122 241.5L387.112 241.5L387.112 240.5L385.122 240.5L385.122 241.5ZM389.102 241.5L391.093 241.5L391.093 240.5L389.102 240.5L389.102 241.5ZM393.083 241.5L395.073 241.5L395.073 240.5L393.083 240.5L393.083 241.5ZM397.064 241.5L399.054 241.5L399.054 240.5L397.064 240.5L397.064 241.5ZM401.044 241.5L403.034 241.5L403.034 240.5L401.044 240.5L401.044 241.5ZM405.025 241.5L407.015 241.5L407.015 240.5L405.025 240.5L405.025 241.5ZM409.005 241.5L410 241.5L410 240.5L409.005 240.5L409.005 241.5Z" fill="black"/>
<path d="M351.331 103.36C350.767 103.334 350.202 103.324 349.639 103.278C347.652 103.115 345.819 102.531 344.152 101.513C341.827 100.092 340.16 98.1622 339.089 95.7818C338.652 94.8096 338.321 93.8045 338.123 92.7632C337.984 92.0229 337.978 91.2793 338.03 90.5341C338.088 89.6787 338.23 88.8348 338.473 88.0074C339.209 85.5053 340.752 83.5345 343.022 82.0457C344.117 81.3285 345.308 80.7807 346.547 80.3185C347.838 79.8372 349.168 79.4538 350.525 79.1719C351.459 78.9756 352.424 78.9471 353.37 79.088C355.998 79.4811 358.309 80.5011 360.259 82.1971C361.682 83.4358 362.792 84.8769 363.484 86.5828C363.862 87.5106 364.088 88.4696 364.184 89.4583C364.255 90.19 364.279 90.925 364.254 91.6593C364.175 94.0726 363.381 96.2687 361.889 98.2362C360.438 100.153 358.564 101.604 356.23 102.512C354.733 103.096 353.173 103.392 351.545 103.344C351.474 103.341 351.404 103.344 351.333 103.344L351.331 103.36ZM362.506 91.0638H362.503C362.503 90.9322 362.501 90.8006 362.503 90.669C362.517 89.6096 362.372 88.57 362.013 87.5616C361.373 85.7537 360.225 84.2616 358.682 83.0328C357.183 81.8368 355.433 81.1064 353.516 80.7149C352.832 80.5751 352.139 80.5274 351.444 80.6524C349.74 80.9633 348.084 81.419 346.496 82.0786C345.492 82.4948 344.527 82.9735 343.652 83.597C342.336 84.5363 341.316 85.6928 340.659 87.1157C340.42 87.6306 340.236 88.162 340.084 88.7032C339.783 89.7741 339.667 90.8631 339.792 91.9637C339.983 93.6317 340.533 95.1962 341.463 96.6372C342.529 98.2855 343.94 99.6131 345.759 100.544C346.993 101.176 348.303 101.579 349.719 101.648C350.272 101.676 350.824 101.711 351.377 101.73C352.32 101.765 353.264 101.674 354.179 101.46C355.489 101.158 356.67 100.598 357.763 99.873C359.692 98.5915 361.026 96.8889 361.857 94.8359C362.248 93.8736 362.483 92.8832 362.504 91.8535C362.51 91.5902 362.506 91.327 362.506 91.0638Z" fill="black"/>
<path d="M351.079 99.499C350.818 99.5865 350.581 99.5469 350.324 99.5337C350.315 99.4512 350.3 99.3884 350.303 99.3257C350.324 98.8255 350.166 98.3714 349.897 97.9472C349.801 97.7969 349.701 97.6467 349.613 97.4932C349.312 96.9682 349.219 96.4167 349.38 95.834C349.478 95.4856 349.456 95.134 349.382 94.7873C349.333 94.5611 349.258 94.3399 349.191 94.1186C349.111 93.8578 348.915 93.7158 348.64 93.6712C348.456 93.6399 348.27 93.6283 348.085 93.6085C347.325 93.5326 346.634 93.2915 346.021 92.859C345.851 92.7401 345.695 92.608 345.585 92.4347C345.557 92.3901 345.543 92.3389 345.508 92.2613C345.646 92.2696 345.679 92.3654 345.748 92.4099C345.816 92.4545 345.916 92.4363 345.946 92.3555C345.969 92.2987 345.979 92.238 345.976 92.1773C345.974 92.1165 345.958 92.0569 345.93 92.0022C345.866 91.873 345.791 91.7488 345.706 91.6307C345.478 91.3236 345.246 91.0198 345.011 90.7194C344.878 90.5493 344.825 90.3661 344.864 90.1614C344.869 90.1267 344.913 90.0904 344.948 90.0739C344.983 90.0574 345.021 90.0838 345.039 90.1052C345.116 90.201 345.184 90.3033 345.259 90.4007C345.335 90.4982 345.384 90.5658 345.532 90.5394C345.599 90.1449 345.314 89.8691 345.151 89.5604C345.165 89.4399 345.244 89.3788 345.343 89.3359C345.429 89.2994 345.526 89.2929 345.616 89.3177C345.9 89.3871 346.131 89.5373 346.287 89.7635C346.452 90.003 346.598 90.2542 346.723 90.5147C346.793 90.6599 346.865 90.7772 347.019 90.8597C347.287 91.0033 347.483 91.2246 347.67 91.4507C347.835 91.6505 347.992 91.8552 348.162 92.0517C348.227 92.1291 348.303 92.197 348.39 92.2531C348.505 92.3307 348.631 92.3142 348.745 92.2283C348.827 92.1656 348.841 92.0814 348.783 91.9939C348.772 91.9746 348.758 91.9568 348.741 91.9411C348.486 91.7132 348.358 91.4194 348.267 91.109C348.13 90.6434 347.829 90.2852 347.449 89.9847C347.144 89.7443 346.888 89.4527 346.695 89.1246C346.555 88.8835 346.436 88.6326 346.304 88.3866C346.173 88.1406 346.17 87.8781 346.192 87.6123C346.199 87.5248 346.22 87.4357 346.327 87.4027C346.394 87.3812 346.455 87.4439 346.495 87.576C346.536 87.7081 346.574 87.8517 346.677 87.964C346.726 88.0168 346.823 88.0118 346.856 87.9508C346.889 87.8897 346.914 87.8071 346.945 87.7378C346.987 87.642 347.069 87.6189 347.173 87.6602C347.276 87.7015 347.344 87.7725 347.351 87.8814C347.358 87.9904 347.36 88.1456 347.367 88.2776C347.374 88.4097 347.372 88.5649 347.397 88.7052C347.456 89.0288 347.745 89.2137 348.087 89.1625C348.214 89.1427 348.279 89.0651 348.241 88.9529C348.085 88.5038 347.934 88.0531 347.759 87.6107C347.687 87.4363 347.587 87.2736 347.462 87.1286C347.26 86.8892 347.134 86.6234 347.059 86.3312C347.045 86.2784 347.029 86.2255 347.017 86.1711C346.887 85.6362 346.887 85.6362 346.6 85.2746L346.886 85.1326C346.831 85.0303 346.782 84.9461 346.74 84.8569C346.711 84.7983 346.689 84.7368 346.674 84.6737C346.669 84.6505 346.697 84.6076 346.719 84.5961C346.742 84.5845 346.8 84.5878 346.814 84.606C346.873 84.6727 346.926 84.7445 346.971 84.8206C347.024 84.9081 347.087 84.984 347.192 85.022C347.332 85.0699 347.456 85.0154 347.491 84.8817C347.512 84.7958 347.514 84.7067 347.539 84.6225C347.549 84.5862 347.598 84.535 347.628 84.5366C347.683 84.5403 347.735 84.564 347.772 84.6027C347.807 84.6406 347.822 84.7017 347.826 84.7546C347.832 84.842 347.832 84.9297 347.824 85.0171C347.808 85.3027 347.877 85.5718 348.05 85.7996C348.295 86.1232 348.369 86.4781 348.335 86.8628C348.328 86.9619 348.328 87.0609 348.325 87.16C348.318 87.3703 348.377 87.5779 348.493 87.7576C348.547 87.8418 348.601 87.926 348.657 88.0102C348.818 88.2578 348.932 88.5203 348.937 88.8159C348.939 88.8472 348.955 88.8769 348.969 88.9232C349.032 88.9347 349.099 88.9545 349.165 88.9529C349.361 88.9529 349.445 88.8885 349.463 88.7019C349.475 88.5501 349.461 88.3949 349.454 88.2413C349.45 88.1868 349.428 88.134 349.422 88.0795C349.394 87.8517 349.477 87.7229 349.699 87.642C349.974 87.538 349.972 87.538 349.974 87.2706C349.975 86.7409 349.867 86.216 349.655 85.7253C349.478 85.3159 349.524 84.9064 349.564 84.4904C349.571 84.4581 349.583 84.4269 349.599 84.398C349.608 84.3808 349.622 84.3659 349.638 84.3543C349.654 84.3428 349.673 84.3348 349.693 84.3312C349.713 84.3275 349.733 84.3282 349.753 84.3332C349.772 84.3382 349.791 84.3474 349.806 84.36C349.833 84.3809 349.856 84.4054 349.876 84.4326C349.901 84.4701 349.922 84.5093 349.941 84.5498C350.044 84.7793 350.212 84.8998 350.49 84.8454C350.534 84.8355 350.581 84.8437 350.627 84.8437C350.672 84.8437 350.697 84.88 350.713 84.9048C350.819 85.0814 350.968 85.1706 351.194 85.1739C351.376 85.1755 351.453 85.2944 351.373 85.4446C351.156 85.8524 351.142 86.2899 351.126 86.7307C351.119 86.9387 351.089 87.1468 351.059 87.3515C351.033 87.5265 351.059 87.68 351.205 87.8038C351.35 87.9276 351.534 87.9574 351.714 87.8402C352.005 87.6503 352.253 87.4192 352.409 87.1137C352.484 86.9652 352.551 86.8116 352.616 86.6581C352.754 86.3328 352.889 86.0043 353.024 85.6758C353.066 85.5718 353.122 85.4744 353.225 85.4149C353.262 85.3935 353.316 85.3786 353.354 85.3885C353.393 85.3984 353.444 85.443 353.486 85.4711C353.403 85.6114 353.323 85.7319 353.262 85.859C353.242 85.897 353.262 85.9663 353.29 86.0043C353.318 86.0423 353.382 86.034 353.417 86.0175C353.512 85.977 353.602 85.9272 353.685 85.8689C353.761 85.8161 353.818 85.7451 353.892 85.6923C354.032 85.5932 354.177 85.651 354.195 85.8112C354.205 85.9102 354.198 86.0093 354.207 86.1083C354.225 86.2767 354.3 86.3328 354.487 86.3262C354.533 86.3246 354.578 86.3114 354.625 86.3114C354.729 86.3097 354.788 86.4071 354.744 86.4979C354.694 86.598 354.612 86.6809 354.51 86.7357C354.323 86.8463 354.379 87.0675 354.566 87.16C354.697 87.226 354.836 87.221 354.976 87.2078C355.186 87.188 355.394 87.1715 355.604 87.1567C355.662 87.155 355.72 87.1567 355.777 87.1616C355.856 87.1633 355.914 87.1979 355.938 87.2656C355.963 87.3333 355.966 87.4274 355.893 87.4786C355.714 87.6024 355.531 87.7163 355.345 87.8302C355.289 87.8666 355.214 87.8831 355.168 87.9276C355.123 87.9722 355.124 88.0284 355.133 88.0762C355.142 88.1241 355.194 88.1472 355.233 88.1522C355.336 88.1654 355.441 88.1571 355.546 88.1687C355.585 88.1736 355.646 88.2034 355.653 88.2331C355.667 88.2838 355.66 88.3378 355.632 88.3833C355.569 88.4708 355.462 88.5038 355.355 88.5005C355.042 88.4923 354.799 88.6342 354.566 88.8092C354.401 88.9298 354.232 89.047 354.055 89.1543C353.815 89.3029 353.719 89.501 353.747 89.7717C353.766 89.9666 353.776 90.168 353.748 90.3611C353.705 90.65 353.549 90.8993 353.337 91.1123C353.258 91.1932 353.172 91.2675 353.085 91.3418C352.754 91.6191 352.526 91.9576 352.414 92.3637C352.381 92.4809 352.337 92.5948 352.316 92.7137C352.29 92.859 352.353 92.9415 352.5 92.9894C352.768 93.0736 353.006 93.0208 353.214 92.8441C353.256 92.8058 353.295 92.7638 353.328 92.7187C353.664 92.296 354.109 91.9972 354.59 91.7446C354.62 91.7264 354.653 91.7145 354.688 91.7099C354.72 91.7099 354.762 91.7198 354.779 91.7397C354.797 91.7595 354.806 91.8073 354.792 91.8272C354.727 91.918 354.655 92.0038 354.583 92.0897C354.541 92.1425 354.491 92.1904 354.452 92.2432C354.414 92.296 354.422 92.3868 354.478 92.4215C354.534 92.4562 354.617 92.4694 354.673 92.4231C354.729 92.3769 354.816 92.2795 354.89 92.2102C354.963 92.1408 354.993 92.1276 355.047 92.0847C355.074 92.1128 355.096 92.126 355.1 92.1441C355.121 92.2151 355.11 92.3059 355.221 92.3208C355.331 92.3356 355.378 92.2878 355.434 92.2283C355.49 92.1689 355.567 92.0748 355.637 92.0005C355.683 91.9526 355.73 91.8998 355.786 91.8668C355.842 91.8338 355.886 91.8519 355.912 91.8734C355.938 91.8948 355.959 91.9609 355.944 91.9889C355.91 92.0579 355.862 92.1197 355.802 92.1705C355.751 92.2118 355.678 92.2267 355.616 92.258C355.586 92.2743 355.561 92.2971 355.542 92.3245C355.523 92.352 355.511 92.3833 355.507 92.4159C355.504 92.4485 355.508 92.4814 355.521 92.512C355.533 92.5425 355.554 92.5698 355.58 92.5915C355.603 92.6063 355.629 92.6164 355.656 92.6212C355.684 92.626 355.712 92.6255 355.739 92.6196C355.816 92.5965 355.879 92.542 355.954 92.5106C356.016 92.4823 356.083 92.465 356.152 92.4595C356.189 92.4578 356.243 92.4908 356.261 92.5222C356.278 92.5536 356.271 92.6163 356.247 92.6378C356.19 92.6916 356.124 92.7352 356.05 92.7665C355.837 92.8557 355.622 92.9399 355.403 93.0158C354.808 93.2255 354.26 93.5078 353.759 93.8809C353.3 94.2227 352.766 94.4076 352.187 94.4686C351.931 94.4951 351.676 94.5116 351.42 94.5198C351.219 94.5264 351.061 94.5941 350.939 94.7444C350.739 94.9887 350.538 95.2314 350.329 95.4691C350.007 95.8373 349.932 96.25 350.046 96.7073C350.122 97.0183 350.238 97.3194 350.392 97.6038L350.725 98.2212C350.825 98.4127 350.882 98.6174 350.854 98.8288C350.826 99.0401 350.886 99.2398 351.045 99.4049C351.059 99.4198 351.061 99.4462 351.079 99.499ZM351.642 91.3302C351.777 91.634 351.742 91.7264 351.465 91.8255C351.399 91.8486 351.332 91.8651 351.268 91.8882C350.854 92.0335 350.504 92.2663 350.236 92.5965C349.909 93.0043 349.745 93.4632 349.781 93.98C349.794 94.1451 349.83 94.3003 349.948 94.4455C350.161 94.4076 350.308 94.2953 350.436 94.1467C350.674 93.876 350.919 93.6118 351.156 93.3411C351.334 93.138 351.511 92.9349 351.674 92.722C351.837 92.509 351.998 92.2382 352.089 91.9642C352.18 91.6901 352.171 91.3781 352.003 91.1073C351.873 90.8977 351.669 90.8168 351.439 90.9026C351.21 90.9885 351.047 91.1371 350.933 91.3368C350.879 91.4309 350.91 91.5382 350.996 91.6026C351.082 91.667 351.147 91.6505 351.25 91.5779C351.353 91.5052 351.46 91.3731 351.642 91.3302ZM350.583 87.9128C350.56 87.9128 350.545 87.9078 350.539 87.9128C350.504 87.9409 350.464 87.9656 350.438 88.0003C350.235 88.271 350.084 88.5649 350.005 88.8901C349.872 89.4465 349.731 89.9996 349.599 90.5559C349.551 90.7591 349.515 90.9647 349.491 91.1717C349.468 91.3802 349.498 91.5909 349.58 91.7859C349.618 91.8734 349.678 91.9411 349.78 91.951C349.881 91.9609 349.99 91.908 350.032 91.809C350.071 91.7185 350.094 91.6226 350.1 91.525C350.109 91.3401 350.098 91.1536 350.098 90.967C350.1 90.6765 350.156 90.3991 350.324 90.1498C350.389 90.0541 350.42 89.9533 350.396 89.8378C350.347 89.6182 350.382 89.4036 350.441 89.1873C350.536 88.8483 350.598 88.5018 350.627 88.1522C350.634 88.068 350.658 87.9772 350.583 87.9128ZM351.544 89.9864C351.66 89.9467 351.707 89.9385 351.746 89.917C352.167 89.6809 352.567 89.4168 352.92 89.0949C353.274 88.7729 353.521 88.4543 353.72 88.0647C353.817 87.8781 353.908 87.6883 353.999 87.4984C354.046 87.3977 354.03 87.3185 353.957 87.2607C353.883 87.2029 353.769 87.188 353.673 87.264C353.577 87.3399 353.466 87.4406 353.356 87.5199C353.144 87.6767 352.948 87.8501 352.798 88.0614C352.63 88.2975 352.469 88.5385 352.318 88.7861C352.103 89.1378 351.9 89.496 351.632 89.8163C351.606 89.8477 351.593 89.889 351.544 89.9864ZM346.002 91.1272C346.024 91.2411 346.019 91.3005 346.047 91.3401C346.129 91.4573 346.215 91.5779 346.32 91.6786C346.485 91.8354 346.625 92.0071 346.76 92.1871C346.908 92.3837 347.071 92.5691 347.25 92.7418C347.456 92.9432 347.715 93.0703 347.999 93.1496C348.155 93.1925 348.311 93.2321 348.468 93.2734C348.552 93.2948 348.628 93.2552 348.663 93.176C348.679 93.1403 348.683 93.1008 348.675 93.0627C348.667 93.0246 348.647 92.9898 348.617 92.963C348.542 92.8953 348.459 92.8356 348.37 92.7847C348.05 92.5965 347.772 92.3654 347.56 92.0698C347.197 91.568 346.648 91.3434 346.002 91.1272Z" fill="black"/>
<path d="M275.852 358.417V350.017H278.696C279.336 350.017 279.864 350.129 280.28 350.353C280.696 350.569 281.004 350.869 281.204 351.253C281.404 351.637 281.504 352.077 281.504 352.573C281.504 353.069 281.404 353.509 281.204 353.893C281.004 354.277 280.696 354.581 280.28 354.805C279.864 355.021 279.336 355.129 278.696 355.129H277.124V358.417H275.852ZM277.124 353.989H278.636C279.18 353.989 279.576 353.861 279.824 353.605C280.08 353.349 280.208 353.005 280.208 352.573C280.208 352.149 280.08 351.809 279.824 351.553C279.576 351.289 279.18 351.157 278.636 351.157H277.124V353.989Z" fill="black"/>
<path d="M282.867 358.417V350.017H285.867C286.739 350.017 287.399 350.217 287.847 350.617C288.295 351.017 288.519 351.533 288.519 352.165C288.519 352.653 288.391 353.049 288.135 353.353C287.879 353.657 287.583 353.877 287.247 354.013V354.097C287.647 354.241 287.991 354.477 288.279 354.805C288.567 355.125 288.711 355.549 288.711 356.077C288.711 356.509 288.603 356.905 288.387 357.265C288.179 357.617 287.871 357.897 287.463 358.105C287.055 358.313 286.555 358.417 285.963 358.417H282.867ZM284.139 353.521H285.711C286.199 353.521 286.571 353.425 286.827 353.233C287.083 353.033 287.211 352.733 287.211 352.333C287.211 351.541 286.703 351.145 285.687 351.145H284.139V353.521ZM284.139 357.241H285.795C286.315 357.241 286.715 357.129 286.995 356.905C287.275 356.681 287.415 356.353 287.415 355.921C287.415 355.497 287.267 355.173 286.971 354.949C286.675 354.717 286.275 354.601 285.771 354.601H284.139V357.241Z" fill="black"/>
<path d="M289.727 358.417L292.235 350.017H293.747L296.255 358.417H294.875L294.311 356.401H291.671L291.107 358.417H289.727ZM292.955 351.817L291.959 355.381H294.023L293.027 351.817H292.955Z" fill="black"/>
<path d="M304.633 358.417V350.017H307.477C308.117 350.017 308.645 350.129 309.061 350.353C309.477 350.569 309.785 350.869 309.985 351.253C310.185 351.637 310.285 352.077 310.285 352.573C310.285 353.069 310.185 353.509 309.985 353.893C309.785 354.277 309.477 354.581 309.061 354.805C308.645 355.021 308.117 355.129 307.477 355.129H305.905V358.417H304.633ZM305.905 353.989H307.417C307.961 353.989 308.357 353.861 308.605 353.605C308.861 353.349 308.989 353.005 308.989 352.573C308.989 352.149 308.861 351.809 308.605 351.553C308.357 351.289 307.961 351.157 307.417 351.157H305.905V353.989Z" fill="black"/>
<path d="M311.649 358.417V350.017H314.649C315.521 350.017 316.181 350.217 316.629 350.617C317.077 351.017 317.301 351.533 317.301 352.165C317.301 352.653 317.173 353.049 316.917 353.353C316.661 353.657 316.365 353.877 316.029 354.013V354.097C316.429 354.241 316.773 354.477 317.061 354.805C317.349 355.125 317.493 355.549 317.493 356.077C317.493 356.509 317.385 356.905 317.169 357.265C316.961 357.617 316.653 357.897 316.245 358.105C315.837 358.313 315.337 358.417 314.745 358.417H311.649ZM312.921 353.521H314.493C314.981 353.521 315.353 353.425 315.609 353.233C315.865 353.033 315.993 352.733 315.993 352.333C315.993 351.541 315.485 351.145 314.469 351.145H312.921V353.521ZM312.921 357.241H314.577C315.097 357.241 315.497 357.129 315.777 356.905C316.057 356.681 316.197 356.353 316.197 355.921C316.197 355.497 316.049 355.173 315.753 354.949C315.457 354.717 315.057 354.601 314.553 354.601H312.921V357.241Z" fill="black"/>
<path d="M321.856 358.561C321.264 358.561 320.744 358.453 320.296 358.237C319.856 358.021 319.508 357.713 319.252 357.313C319.004 356.913 318.876 356.437 318.868 355.885H320.212C320.22 356.309 320.364 356.673 320.644 356.977C320.932 357.273 321.332 357.421 321.844 357.421C322.316 357.421 322.684 357.313 322.948 357.097C323.212 356.873 323.344 356.585 323.344 356.233C323.344 355.937 323.264 355.693 323.104 355.501C322.952 355.301 322.712 355.125 322.384 354.973C322.056 354.813 321.632 354.649 321.112 354.481C320.416 354.257 319.904 353.949 319.576 353.557C319.248 353.157 319.084 352.669 319.084 352.093C319.084 351.429 319.324 350.893 319.804 350.485C320.284 350.077 320.944 349.873 321.784 349.873C322.6 349.873 323.256 350.085 323.752 350.509C324.248 350.925 324.504 351.505 324.52 352.249H323.164C323.164 352.049 323.108 351.857 322.996 351.673C322.884 351.481 322.724 351.325 322.516 351.205C322.308 351.077 322.052 351.013 321.748 351.013C321.372 351.005 321.056 351.097 320.8 351.289C320.544 351.473 320.416 351.725 320.416 352.045C320.416 352.437 320.572 352.745 320.884 352.969C321.196 353.185 321.704 353.409 322.408 353.641C322.848 353.785 323.236 353.961 323.572 354.169C323.916 354.369 324.184 354.629 324.376 354.949C324.576 355.261 324.676 355.661 324.676 356.149C324.676 356.597 324.564 357.005 324.34 357.373C324.116 357.733 323.792 358.021 323.368 358.237C322.952 358.453 322.448 358.561 321.856 358.561Z" fill="black"/>
<path d="M311.146 330.073C311.146 336.188 306.188 341.146 300.073 341.146C293.958 341.146 289 336.188 289 330.073C289 323.958 293.958 319 300.073 319C306.188 319 311.146 323.958 311.146 330.073Z" fill="#C45D16"/>
<path d="M300.411 333.359C299.859 333.359 299.359 333.255 298.911 333.047C298.463 332.839 298.107 332.535 297.843 332.135C297.579 331.727 297.435 331.235 297.411 330.659H298.683C298.707 331.099 298.867 331.463 299.163 331.751C299.467 332.039 299.883 332.183 300.411 332.183C300.931 332.183 301.339 332.055 301.635 331.799C301.931 331.543 302.079 331.191 302.079 330.743C302.079 330.247 301.899 329.883 301.539 329.651C301.179 329.419 300.739 329.303 300.219 329.303H299.475V328.175H300.111C300.583 328.175 300.971 328.079 301.275 327.887C301.579 327.695 301.731 327.395 301.731 326.987C301.731 326.635 301.615 326.359 301.383 326.159C301.151 325.951 300.823 325.847 300.399 325.847C299.967 325.847 299.623 325.963 299.367 326.195C299.111 326.427 298.967 326.723 298.935 327.083H297.675C297.699 326.603 297.827 326.183 298.059 325.823C298.291 325.463 298.607 325.183 299.007 324.983C299.407 324.775 299.871 324.671 300.399 324.671C300.975 324.671 301.455 324.771 301.839 324.971C302.223 325.163 302.511 325.423 302.703 325.751C302.895 326.079 302.991 326.447 302.991 326.855C302.991 327.271 302.867 327.631 302.619 327.935C302.379 328.231 302.087 328.447 301.743 328.583V328.655C302.207 328.783 302.587 329.023 302.883 329.375C303.187 329.719 303.339 330.183 303.339 330.767C303.339 331.239 303.223 331.675 302.991 332.075C302.767 332.467 302.435 332.779 301.995 333.011C301.563 333.243 301.035 333.359 300.411 333.359Z" fill="white"/>
<path d="M297.852 174.146V165.746H300.696C301.336 165.746 301.864 165.858 302.28 166.082C302.696 166.298 303.004 166.598 303.204 166.982C303.404 167.366 303.504 167.806 303.504 168.302C303.504 168.798 303.404 169.238 303.204 169.622C303.004 170.006 302.696 170.31 302.28 170.534C301.864 170.75 301.336 170.858 300.696 170.858H299.124V174.146H297.852ZM299.124 169.718H300.636C301.18 169.718 301.576 169.59 301.824 169.334C302.08 169.078 302.208 168.734 302.208 168.302C302.208 167.878 302.08 167.538 301.824 167.282C301.576 167.018 301.18 166.886 300.636 166.886H299.124V169.718Z" fill="black"/>
<path d="M305.167 174.146V165.746H306.439V173.006H310.579V174.146H305.167Z" fill="black"/>
<path d="M311.727 174.146L314.235 165.746H315.747L318.255 174.146H316.875L316.311 172.13H313.671L313.107 174.146H311.727ZM314.955 167.546L313.959 171.11H316.023L315.027 167.546H314.955Z" fill="black"/>
<path d="M317.307 145.073C317.307 151.188 312.349 156.146 306.234 156.146C300.118 156.146 295.161 151.188 295.161 145.073C295.161 138.958 300.118 134 306.234 134C312.349 134 317.307 138.958 317.307 145.073Z" fill="#C45D16"/>
<path d="M307.436 148.215V146.403H303.452V145.407L307.208 139.815H308.708V145.251H309.8V146.403H308.708V148.215H307.436ZM304.868 145.251H307.508V141.243L304.868 145.251Z" fill="white"/>
<path d="M61.6719 170.417V162.017H64.6719C65.5439 162.017 66.2039 162.217 66.6519 162.617C67.0999 163.017 67.3239 163.533 67.3239 164.165C67.3239 164.653 67.1959 165.049 66.9399 165.353C66.6839 165.657 66.3879 165.877 66.0519 166.013V166.097C66.4519 166.241 66.7959 166.477 67.0839 166.805C67.3719 167.125 67.5159 167.549 67.5159 168.077C67.5159 168.509 67.4079 168.905 67.1919 169.265C66.9839 169.617 66.6759 169.897 66.2679 170.105C65.8599 170.313 65.3599 170.417 64.7679 170.417H61.6719ZM62.9439 165.521H64.5159C65.0039 165.521 65.3759 165.425 65.6319 165.233C65.8879 165.033 66.0159 164.733 66.0159 164.333C66.0159 163.541 65.5079 163.145 64.4919 163.145H62.9439V165.521ZM62.9439 169.241H64.5999C65.1199 169.241 65.5199 169.129 65.7999 168.905C66.0799 168.681 66.2199 168.353 66.2199 167.921C66.2199 167.497 66.0719 167.173 65.7759 166.949C65.4799 166.717 65.0799 166.601 64.5759 166.601H62.9439V169.241Z" fill="black"/>
<path d="M69.3352 170.417V169.289H71.1592V163.145H69.3592V162.017H74.2312V163.145H72.4312V169.289H74.2552V170.417H69.3352Z" fill="black"/>
<path d="M78.9905 170.561C78.3105 170.561 77.7225 170.385 77.2265 170.033C76.7305 169.681 76.3505 169.181 76.0865 168.533C75.8225 167.885 75.6905 167.113 75.6905 166.217C75.6905 165.321 75.8225 164.549 76.0865 163.901C76.3505 163.253 76.7305 162.753 77.2265 162.401C77.7225 162.049 78.3105 161.873 78.9905 161.873C79.6785 161.873 80.2665 162.049 80.7545 162.401C81.2505 162.753 81.6305 163.253 81.8945 163.901C82.1585 164.549 82.2905 165.321 82.2905 166.217C82.2905 167.113 82.1585 167.885 81.8945 168.533C81.6305 169.181 81.2505 169.681 80.7545 170.033C80.2665 170.385 79.6785 170.561 78.9905 170.561ZM78.9905 169.361C79.5905 169.361 80.0745 169.093 80.4425 168.557C80.8105 168.013 80.9945 167.233 80.9945 166.217C80.9945 165.201 80.8105 164.425 80.4425 163.889C80.0745 163.345 79.5905 163.073 78.9905 163.073C78.3825 163.073 77.8945 163.345 77.5265 163.889C77.1665 164.425 76.9865 165.201 76.9865 166.217C76.9865 167.233 77.1665 168.013 77.5265 168.557C77.8945 169.093 78.3825 169.361 78.9905 169.361Z" fill="black"/>
<path d="M84.1218 166.757V165.677H88.2498V166.757H84.1218Z" fill="black"/>
<path d="M90.6331 170.417V162.017H93.4771C94.1171 162.017 94.6451 162.129 95.0611 162.353C95.4771 162.569 95.7851 162.869 95.9851 163.253C96.1851 163.637 96.2851 164.077 96.2851 164.573C96.2851 165.069 96.1851 165.509 95.9851 165.893C95.7851 166.277 95.4771 166.581 95.0611 166.805C94.6451 167.021 94.1171 167.129 93.4771 167.129H91.9051V170.417H90.6331ZM91.9051 165.989H93.4171C93.9611 165.989 94.3571 165.861 94.6051 165.605C94.8611 165.349 94.9891 165.005 94.9891 164.573C94.9891 164.149 94.8611 163.809 94.6051 163.553C94.3571 163.289 93.9611 163.157 93.4171 163.157H91.9051V165.989Z" fill="black"/>
<path d="M97.9364 170.417V162.017H103.3V163.157H99.2084V165.605H102.94V166.733H99.2084V169.277H103.3V170.417H97.9364Z" fill="black"/>
<path d="M93.8133 142.073C93.8133 148.188 88.8557 153.146 82.7403 153.146C76.6249 153.146 71.6674 148.188 71.6674 142.073C71.6674 135.958 76.6249 131 82.7403 131C88.8557 131 93.8133 135.958 93.8133 142.073Z" fill="#C45D16"/>
<path d="M80.2584 145.215V144.207C81.0824 143.551 81.8024 142.947 82.4184 142.395C83.0424 141.843 83.5304 141.311 83.8824 140.799C84.2344 140.287 84.4104 139.767 84.4104 139.239C84.4104 138.799 84.2864 138.455 84.0384 138.207C83.7904 137.951 83.4544 137.823 83.0304 137.823C82.5424 137.823 82.1664 137.979 81.9024 138.291C81.6384 138.595 81.5064 138.959 81.5064 139.383H80.2704C80.2784 138.791 80.4024 138.295 80.6424 137.895C80.8824 137.495 81.2064 137.191 81.6144 136.983C82.0304 136.775 82.5024 136.671 83.0304 136.671C83.8864 136.671 84.5464 136.903 85.0104 137.367C85.4744 137.823 85.7064 138.435 85.7064 139.203C85.7064 139.691 85.5984 140.163 85.3824 140.619C85.1744 141.067 84.8984 141.495 84.5544 141.903C84.2104 142.311 83.8264 142.699 83.4024 143.067C82.9864 143.435 82.5664 143.787 82.1424 144.123H85.9344V145.215H80.2584Z" fill="white"/>
<path d="M55.8521 356.408V348.008H58.6961C59.3361 348.008 59.8641 348.12 60.2801 348.344C60.6961 348.56 61.0041 348.86 61.2041 349.244C61.4041 349.628 61.5041 350.068 61.5041 350.564C61.5041 351.06 61.4041 351.5 61.2041 351.884C61.0041 352.268 60.6961 352.572 60.2801 352.796C59.8641 353.012 59.3361 353.12 58.6961 353.12H57.1241V356.408H55.8521ZM57.1241 351.98H58.6361C59.1801 351.98 59.5761 351.852 59.8241 351.596C60.0801 351.34 60.2081 350.996 60.2081 350.564C60.2081 350.14 60.0801 349.8 59.8241 349.544C59.5761 349.28 59.1801 349.148 58.6361 349.148H57.1241V351.98Z" fill="black"/>
<path d="M65.8794 356.552C65.2874 356.552 64.7674 356.444 64.3194 356.228C63.8794 356.012 63.5314 355.704 63.2754 355.304C63.0274 354.904 62.8994 354.428 62.8914 353.876H64.2354C64.2434 354.3 64.3874 354.664 64.6674 354.968C64.9554 355.264 65.3554 355.412 65.8674 355.412C66.3394 355.412 66.7074 355.304 66.9714 355.088C67.2354 354.864 67.3674 354.576 67.3674 354.224C67.3674 353.928 67.2874 353.684 67.1274 353.492C66.9754 353.292 66.7354 353.116 66.4074 352.964C66.0794 352.804 65.6554 352.64 65.1354 352.472C64.4394 352.248 63.9274 351.94 63.5994 351.548C63.2714 351.148 63.1074 350.66 63.1074 350.084C63.1074 349.42 63.3474 348.884 63.8274 348.476C64.3074 348.068 64.9674 347.864 65.8074 347.864C66.6234 347.864 67.2794 348.076 67.7754 348.5C68.2714 348.916 68.5274 349.496 68.5434 350.24H67.1874C67.1874 350.04 67.1314 349.848 67.0194 349.664C66.9074 349.472 66.7474 349.316 66.5394 349.196C66.3314 349.068 66.0754 349.004 65.7714 349.004C65.3954 348.996 65.0794 349.088 64.8234 349.28C64.5674 349.464 64.4394 349.716 64.4394 350.036C64.4394 350.428 64.5954 350.736 64.9074 350.96C65.2194 351.176 65.7274 351.4 66.4314 351.632C66.8714 351.776 67.2594 351.952 67.5954 352.16C67.9394 352.36 68.2074 352.62 68.3994 352.94C68.5994 353.252 68.6994 353.652 68.6994 354.14C68.6994 354.588 68.5874 354.996 68.3634 355.364C68.1394 355.724 67.8154 356.012 67.3914 356.228C66.9754 356.444 66.4714 356.552 65.8794 356.552Z" fill="black"/>
<path d="M79.538 356.54C78.746 356.54 78.106 356.312 77.618 355.856C77.138 355.392 76.898 354.76 76.898 353.96C76.898 353.464 77.026 353.012 77.282 352.604C77.538 352.188 77.906 351.84 78.386 351.56C77.994 350.984 77.798 350.436 77.798 349.916C77.798 349.532 77.882 349.188 78.05 348.884C78.226 348.572 78.482 348.324 78.818 348.14C79.154 347.956 79.558 347.864 80.03 347.864C80.734 347.864 81.274 348.056 81.65 348.44C82.034 348.816 82.226 349.288 82.226 349.856H81.002C80.994 349.576 80.894 349.356 80.702 349.196C80.518 349.036 80.29 348.956 80.018 348.956C79.714 348.956 79.474 349.044 79.298 349.22C79.122 349.396 79.034 349.624 79.034 349.904C79.034 350.144 79.098 350.388 79.226 350.636C79.362 350.876 79.55 351.148 79.79 351.452L81.482 353.6L82.19 352.052H83.51L82.382 354.452C82.35 354.516 82.322 354.576 82.298 354.632L83.69 356.408H82.226L81.626 355.652C81.37 355.932 81.074 356.152 80.738 356.312C80.402 356.464 80.002 356.54 79.538 356.54ZM78.17 353.924C78.17 354.348 78.298 354.7 78.554 354.98C78.81 355.26 79.146 355.4 79.562 355.4C79.842 355.4 80.086 355.34 80.294 355.22C80.502 355.1 80.694 354.928 80.87 354.704L79.046 352.436C78.462 352.804 78.17 353.3 78.17 353.924Z" fill="black"/>
<path d="M91.8286 356.408V348.008H94.6726C95.3126 348.008 95.8406 348.12 96.2566 348.344C96.6726 348.56 96.9806 348.86 97.1806 349.244C97.3806 349.628 97.4806 350.068 97.4806 350.564C97.4806 351.06 97.3806 351.5 97.1806 351.884C96.9806 352.268 96.6726 352.572 96.2566 352.796C95.8406 353.012 95.3126 353.12 94.6726 353.12H93.1006V356.408H91.8286ZM93.1006 351.98H94.6126C95.1566 351.98 95.5526 351.852 95.8006 351.596C96.0566 351.34 96.1846 350.996 96.1846 350.564C96.1846 350.14 96.0566 349.8 95.8006 349.544C95.5526 349.28 95.1566 349.148 94.6126 349.148H93.1006V351.98Z" fill="black"/>
<path d="M99.0239 356.408V348.008H101.868C102.508 348.008 103.036 348.12 103.452 348.344C103.868 348.56 104.176 348.86 104.376 349.244C104.576 349.628 104.676 350.068 104.676 350.564C104.676 351.06 104.576 351.5 104.376 351.884C104.176 352.268 103.868 352.572 103.452 352.796C103.036 353.012 102.508 353.12 101.868 353.12H100.296V356.408H99.0239ZM100.296 351.98H101.808C102.352 351.98 102.748 351.852 102.996 351.596C103.252 351.34 103.38 350.996 103.38 350.564C103.38 350.14 103.252 349.8 102.996 349.544C102.748 349.28 102.352 349.148 101.808 349.148H100.296V351.98Z" fill="black"/>
<path d="M92.1459 330.073C92.1459 336.188 87.1884 341.146 81.073 341.146C74.9576 341.146 70.0001 336.188 70.0001 330.073C70.0001 323.958 74.9576 319 81.073 319C87.1884 319 92.1459 323.958 92.1459 330.073Z" fill="#C45D16"/>
<path d="M78.5431 333.215V332.075H80.6191V326.315L78.6391 326.675V325.643L81.1111 324.815H81.8911V332.075H84.1231V333.215H78.5431Z" fill="white"/>
</svg>
