<svg width="21" height="20" viewBox="0 0 21 20" fill="none" xmlns="http://www.w3.org/2000/svg">
<path d="M10.6595 19.4783C10.2086 19.4572 9.75622 19.4493 9.3067 19.4125C7.71785 19.2823 6.25197 18.8153 4.91898 18.0011C3.06013 16.8647 1.72714 15.3218 0.870514 13.4185C0.521363 12.6411 0.257024 11.8374 0.0987046 11.0048C-0.0129674 10.4129 -0.0172079 9.81836 0.0237856 9.22251C0.0704334 8.53853 0.18352 7.86376 0.378592 7.20214C0.966637 5.2015 2.20068 3.62572 4.01571 2.43533C4.89071 1.86184 5.84345 1.42383 6.83437 1.05422C7.86629 0.66944 8.92992 0.362845 10.0149 0.137421C10.7615 -0.0194988 11.5335 -0.0422676 12.2893 0.0703382C14.3913 0.384706 16.2388 1.20022 17.798 2.55634C18.9359 3.5468 19.8237 4.69904 20.3764 6.06305C20.6789 6.80491 20.8598 7.57175 20.9361 8.36228C20.9931 8.94732 21.012 9.53504 20.9927 10.1222C20.9291 12.0518 20.2944 13.8078 19.1013 15.381C17.9408 16.9133 16.4424 18.0735 14.5765 18.7995C13.3792 19.2665 12.1324 19.5033 10.8305 19.4651C10.774 19.4625 10.7174 19.4651 10.6609 19.4651L10.6595 19.4783ZM19.5947 9.64605H19.5918C19.5918 9.54082 19.5904 9.4356 19.5918 9.33037C19.6031 8.48329 19.4872 7.65199 19.2003 6.84568C18.6886 5.40012 17.7712 4.2071 16.5371 3.22454C15.3384 2.26828 13.939 1.68427 12.4067 1.37121C11.8596 1.25941 11.3055 1.22127 10.75 1.32123C9.38727 1.56983 8.06276 1.93418 6.79337 2.46164C5.99046 2.79442 5.21866 3.17718 4.51894 3.6757C3.46724 4.42676 2.65161 5.35145 2.12576 6.48922C1.93493 6.90093 1.78792 7.32578 1.66635 7.75853C1.42605 8.61482 1.33275 9.48558 1.43312 10.3655C1.58578 11.6993 2.0254 12.9502 2.76894 14.1024C3.62132 15.4204 4.74935 16.4819 6.20391 17.2264C7.19059 17.7315 8.23804 18.0537 9.37031 18.109C9.81276 18.1313 10.2538 18.159 10.6962 18.1748C11.4503 18.2025 12.2048 18.1298 12.9367 17.959C13.9842 17.717 14.9285 17.2698 15.8021 16.6897C17.3443 15.6651 18.4115 14.3037 19.0759 12.6621C19.3883 11.8927 19.5763 11.1008 19.5932 10.2774C19.5975 10.067 19.5947 9.85651 19.5947 9.64605Z" fill="black"/>
<path d="M10.4575 16.3907C10.2489 16.4607 10.0599 16.429 9.85415 16.4184C9.84715 16.3524 9.83455 16.3023 9.83735 16.2521C9.85415 15.8521 9.72817 15.4891 9.5126 15.1498C9.43561 15.0297 9.35582 14.9096 9.28583 14.7868C9.04506 14.367 8.97087 13.9261 9.09965 13.4602C9.17804 13.1816 9.15984 12.9005 9.10105 12.6233C9.06186 12.4424 9.00166 12.2655 8.94847 12.0886C8.88408 11.8801 8.7273 11.7665 8.50753 11.7309C8.36055 11.7058 8.21217 11.6966 8.06379 11.6807C7.45627 11.62 6.90334 11.4273 6.4134 11.0814C6.27762 10.9864 6.15304 10.8808 6.06485 10.7422C6.04245 10.7065 6.03125 10.6656 6.00326 10.6036C6.11384 10.6102 6.14044 10.6867 6.19503 10.7224C6.24962 10.758 6.32941 10.7435 6.35321 10.6788C6.37166 10.6334 6.38005 10.5849 6.37789 10.5363C6.37572 10.4877 6.36304 10.4401 6.34061 10.3963C6.2892 10.293 6.22929 10.1937 6.16144 10.0993C5.97946 9.85377 5.79422 9.61087 5.60571 9.37062C5.49932 9.23466 5.45733 9.08813 5.48812 8.92444C5.49232 8.89672 5.52732 8.86768 5.55532 8.85448C5.58331 8.84128 5.61411 8.8624 5.62811 8.87956C5.6897 8.95612 5.74429 9.03797 5.80448 9.11585C5.86467 9.19374 5.90387 9.24786 6.02285 9.22674C6.07605 8.91124 5.84788 8.69079 5.71769 8.44394C5.72889 8.34758 5.79188 8.29873 5.87167 8.26441C5.94031 8.23522 6.01774 8.23007 6.09005 8.24989C6.31682 8.30534 6.50159 8.42546 6.62618 8.60631C6.75841 8.79786 6.87493 8.99865 6.97473 9.20694C7.03072 9.3231 7.08811 9.41683 7.2113 9.48283C7.42547 9.59767 7.58225 9.77456 7.73203 9.95541C7.86361 10.1151 7.9896 10.2788 8.12538 10.4359C8.17723 10.4978 8.23856 10.5521 8.30736 10.597C8.39974 10.659 8.50053 10.6458 8.59152 10.5772C8.65731 10.527 8.66851 10.4597 8.62231 10.3897C8.61318 10.3743 8.60188 10.3601 8.58872 10.3475C8.38434 10.1653 8.28216 9.93033 8.20937 9.68216C8.10018 9.3099 7.85941 9.02345 7.55565 8.7832C7.31131 8.59097 7.10677 8.3578 6.95233 8.09545C6.84035 7.90272 6.74516 7.70207 6.64017 7.50538C6.53519 7.30869 6.53239 7.0988 6.55059 6.88627C6.55618 6.81631 6.57298 6.74502 6.65837 6.71862C6.71156 6.70146 6.76056 6.75162 6.79275 6.85723C6.82495 6.96283 6.85574 7.07768 6.93833 7.16744C6.97753 7.20969 7.05452 7.20572 7.08112 7.15688C7.10771 7.10804 7.12731 7.04204 7.15251 6.9866C7.1861 6.91003 7.25189 6.89155 7.33448 6.92455C7.41707 6.95755 7.47166 7.01432 7.47726 7.10144C7.48286 7.18856 7.48426 7.31265 7.48986 7.41825C7.49546 7.52386 7.49406 7.64794 7.51366 7.76015C7.56125 8.01888 7.79222 8.16673 8.06519 8.12581C8.16737 8.10997 8.21917 8.04792 8.18837 7.95816C8.06379 7.5991 7.9434 7.23873 7.80342 6.88495C7.74597 6.74552 7.66567 6.61545 7.56545 6.49949C7.40447 6.30808 7.30369 6.09555 7.24349 5.8619C7.2323 5.81966 7.2197 5.77742 7.2099 5.73386C7.10631 5.30616 7.10631 5.30616 6.87674 5.01707L7.10491 4.90354C7.06152 4.8217 7.02232 4.75437 6.98873 4.68309C6.9654 4.63622 6.94756 4.58709 6.93553 4.53656C6.93134 4.51808 6.95373 4.48376 6.97193 4.47452C6.99013 4.46528 7.03632 4.46792 7.04752 4.48244C7.09517 4.53576 7.13735 4.59322 7.1735 4.65405C7.2155 4.72401 7.26589 4.78474 7.34988 4.8151C7.46187 4.85338 7.56125 4.80982 7.58925 4.70289C7.60605 4.63425 7.60745 4.56296 7.62704 4.49564C7.63544 4.4666 7.67464 4.42568 7.69844 4.427C7.7425 4.42994 7.78364 4.44886 7.81322 4.4798C7.84122 4.51016 7.85381 4.559 7.85661 4.60125C7.86174 4.67114 7.86127 4.74131 7.85521 4.81114C7.84262 5.03951 7.89721 5.25468 8.03579 5.43684C8.23177 5.69558 8.29056 5.97939 8.26396 6.28696C8.25836 6.36617 8.25836 6.44537 8.25556 6.52457C8.25033 6.69277 8.29701 6.85879 8.38994 7.00244C8.43334 7.06976 8.47673 7.13708 8.52153 7.20441C8.65031 7.40241 8.7413 7.6123 8.7455 7.84859C8.7469 7.87368 8.7595 7.89744 8.77069 7.9344C8.82109 7.94364 8.87428 7.95948 8.92747 7.95816C9.08425 7.95816 9.15144 7.90668 9.16544 7.75751C9.17524 7.63606 9.16404 7.51198 9.15844 7.38921C9.15564 7.34565 9.13745 7.30341 9.13325 7.25985C9.11085 7.07768 9.17664 6.97471 9.35442 6.91003C9.57419 6.82687 9.57279 6.82687 9.57419 6.61302C9.57507 6.18947 9.48854 5.76982 9.31942 5.37744C9.17804 5.05007 9.21444 4.72269 9.24663 4.39004C9.25196 4.36421 9.2614 4.33929 9.27463 4.31611C9.28193 4.30243 9.29245 4.2905 9.3054 4.28124C9.31835 4.27199 9.33337 4.26565 9.34932 4.26272C9.36526 4.25979 9.38171 4.26034 9.3974 4.26433C9.41308 4.26832 9.42759 4.27565 9.43981 4.28575C9.4613 4.30251 9.48015 4.32207 9.4958 4.34383C9.51555 4.3738 9.53286 4.40513 9.54759 4.43756C9.63018 4.62105 9.76456 4.71741 9.98714 4.67385C10.0221 4.66593 10.0599 4.67253 10.0963 4.67253C10.1327 4.67253 10.1523 4.70157 10.1649 4.72137C10.2503 4.86262 10.3693 4.9339 10.5499 4.93654C10.6954 4.93786 10.757 5.03291 10.6926 5.15303C10.5191 5.47909 10.5079 5.8289 10.4953 6.18136C10.4897 6.34769 10.4659 6.51401 10.4421 6.6777C10.4211 6.81763 10.4421 6.94039 10.5583 7.0394C10.6744 7.1384 10.8214 7.16216 10.9656 7.06844C11.198 6.91663 11.3968 6.73182 11.5213 6.48761C11.5815 6.36881 11.6347 6.24604 11.6865 6.12328C11.7971 5.86322 11.9049 5.60053 12.0127 5.33784C12.0463 5.25468 12.0911 5.17679 12.1736 5.12927C12.203 5.11211 12.2464 5.10023 12.2772 5.10815C12.308 5.11607 12.3486 5.15171 12.3822 5.17415C12.3164 5.28636 12.252 5.38272 12.203 5.48437C12.1876 5.51473 12.203 5.57017 12.2254 5.60053C12.2478 5.63089 12.2996 5.62429 12.3276 5.61109C12.4033 5.57873 12.4751 5.5389 12.5418 5.49229C12.602 5.45005 12.6482 5.39328 12.707 5.35104C12.819 5.27184 12.9351 5.31804 12.9491 5.44608C12.9575 5.52529 12.9519 5.60449 12.9589 5.6837C12.9729 5.81834 13.0331 5.86322 13.1829 5.85794C13.2193 5.85662 13.2557 5.84606 13.2935 5.84606C13.3761 5.84474 13.4237 5.92263 13.3887 5.99523C13.3483 6.0752 13.2828 6.14154 13.2011 6.18532C13.0513 6.27376 13.0961 6.45065 13.2459 6.52457C13.3509 6.57738 13.4615 6.57342 13.5735 6.56286C13.7414 6.54701 13.908 6.53381 14.076 6.52193C14.1222 6.52062 14.1685 6.52194 14.2146 6.52589C14.2776 6.52721 14.3238 6.55493 14.3434 6.60906C14.363 6.66318 14.3658 6.73842 14.307 6.77935C14.1642 6.87835 14.0172 6.96943 13.8688 7.06052C13.824 7.08956 13.7638 7.10276 13.7274 7.1384C13.691 7.17404 13.6924 7.21893 13.6994 7.25721C13.7064 7.29549 13.7484 7.31397 13.7792 7.31793C13.8618 7.32849 13.9458 7.32189 14.0298 7.33113C14.0606 7.33509 14.1096 7.35885 14.1152 7.38261C14.1267 7.42317 14.1207 7.46638 14.0984 7.50274C14.048 7.5727 13.9626 7.5991 13.8772 7.59646C13.6267 7.58986 13.4321 7.70339 13.2459 7.84331C13.1143 7.93968 12.9785 8.0334 12.8372 8.11921C12.6454 8.23801 12.5684 8.39642 12.5908 8.61291C12.6062 8.76868 12.6146 8.92972 12.5922 9.08417C12.5572 9.31518 12.4326 9.51451 12.2632 9.6848C12.2002 9.74948 12.1317 9.80888 12.0617 9.86829C11.7971 10.0901 11.6151 10.3607 11.5255 10.6854C11.4989 10.7791 11.4639 10.8702 11.4471 10.9653C11.4261 11.0814 11.4765 11.1474 11.5941 11.1857C11.8083 11.253 11.9987 11.2108 12.1652 11.0695C12.1989 11.0389 12.2293 11.0053 12.2562 10.9692C12.525 10.6313 12.8806 10.3924 13.2655 10.1904C13.2892 10.1758 13.3159 10.1663 13.3439 10.1627C13.3691 10.1627 13.4027 10.1706 13.4167 10.1864C13.4307 10.2023 13.4377 10.2405 13.4265 10.2564C13.3747 10.329 13.3173 10.3976 13.2599 10.4663C13.2263 10.5085 13.1857 10.5468 13.1549 10.589C13.1241 10.6313 13.1311 10.7039 13.1759 10.7316C13.2207 10.7593 13.2865 10.7699 13.3313 10.7329C13.3761 10.696 13.4461 10.6181 13.5049 10.5626C13.5637 10.5072 13.5875 10.4966 13.6309 10.4623C13.6519 10.4848 13.6701 10.4953 13.6729 10.5098C13.6896 10.5666 13.6813 10.6392 13.7694 10.6511C13.8576 10.663 13.8954 10.6247 13.9402 10.5772C13.985 10.5296 14.0466 10.4544 14.1026 10.395C14.139 10.3567 14.1768 10.3145 14.2216 10.2881C14.2664 10.2617 14.3014 10.2762 14.3224 10.2933C14.3434 10.3105 14.3602 10.3633 14.3476 10.3857C14.3206 10.4409 14.2821 10.4903 14.2342 10.531C14.1936 10.564 14.1348 10.5758 14.0858 10.6009C14.0617 10.6139 14.0412 10.6321 14.026 10.6541C14.0108 10.676 14.0014 10.7011 13.9986 10.7271C13.9957 10.7532 13.9994 10.7795 14.0095 10.8039C14.0195 10.8284 14.0356 10.8502 14.0564 10.8676C14.0749 10.8794 14.0957 10.8874 14.1176 10.8913C14.1395 10.8952 14.1621 10.8947 14.1838 10.89C14.2454 10.8715 14.2958 10.828 14.356 10.8029C14.4056 10.7803 14.4592 10.7664 14.5141 10.762C14.5435 10.7606 14.5869 10.787 14.6009 10.8121C14.6149 10.8372 14.6093 10.8874 14.5897 10.9045C14.5446 10.9476 14.4914 10.9825 14.433 11.0075C14.2622 11.0788 14.09 11.1461 13.915 11.2068C13.4391 11.3745 13.0009 11.6002 12.6006 11.8985C12.2338 12.1718 11.8069 12.3196 11.3436 12.3685C11.1392 12.3896 10.9348 12.4028 10.7304 12.4094C10.5695 12.4147 10.4435 12.4688 10.3455 12.5889C10.1859 12.7843 10.0249 12.9783 9.85835 13.1684C9.60079 13.4628 9.54059 13.7928 9.63158 14.1585C9.69261 14.4072 9.78569 14.6479 9.90875 14.8753L10.1747 15.369C10.2545 15.5221 10.3007 15.6858 10.2783 15.8548C10.2559 16.0237 10.3035 16.1835 10.4309 16.3155C10.4421 16.3273 10.4435 16.3485 10.4575 16.3907ZM10.9082 9.85905C11.016 10.1019 10.988 10.1759 10.7668 10.2551C10.7136 10.2735 10.6604 10.2867 10.6087 10.3052C10.2783 10.4214 9.99833 10.6075 9.78416 10.8715C9.5224 11.1976 9.39081 11.5646 9.42021 11.9777C9.43001 12.1097 9.4594 12.2338 9.55319 12.35C9.72397 12.3196 9.84155 12.2299 9.94374 12.1111C10.1341 11.8946 10.3301 11.6834 10.5191 11.4669C10.6618 11.3045 10.8032 11.1421 10.9334 10.9719C11.0636 10.8016 11.1924 10.5851 11.2652 10.3659C11.338 10.1468 11.331 9.89733 11.1966 9.68084C11.093 9.51319 10.9292 9.44851 10.7458 9.51715C10.5625 9.58579 10.4323 9.7046 10.3413 9.86433C10.2979 9.93957 10.3231 10.0254 10.3917 10.0769C10.4603 10.1283 10.5121 10.1151 10.5947 10.0571C10.6772 9.99897 10.7626 9.89337 10.9082 9.85905ZM10.0613 7.12652C10.0431 7.12652 10.0305 7.12256 10.0263 7.12652C9.99833 7.14896 9.96614 7.16876 9.94514 7.19648C9.78276 7.41297 9.66238 7.64794 9.59939 7.908C9.493 8.35286 9.37961 8.79508 9.27463 9.23994C9.23596 9.40241 9.20698 9.56679 9.18784 9.73232C9.16939 9.89904 9.19388 10.0675 9.25923 10.2234C9.29003 10.2933 9.33762 10.3475 9.41881 10.3554C9.5 10.3633 9.58679 10.3211 9.62038 10.2419C9.6517 10.1695 9.67015 10.0928 9.67498 10.0148C9.68197 9.86697 9.67358 9.7178 9.67358 9.56863C9.67498 9.3363 9.71977 9.11453 9.85415 8.9152C9.90595 8.83864 9.93114 8.75812 9.91155 8.66571C9.87235 8.49014 9.90035 8.31854 9.94794 8.14561C10.0238 7.87452 10.0735 7.59749 10.0963 7.31793C10.1019 7.25061 10.1215 7.178 10.0613 7.12652ZM10.8298 8.78452C10.9222 8.75284 10.96 8.74623 10.9908 8.72907C11.3282 8.54031 11.6473 8.3291 11.9301 8.07168C12.2128 7.81427 12.4102 7.5595 12.5698 7.24797C12.6468 7.0988 12.7196 6.94699 12.7924 6.79519C12.8302 6.71466 12.8176 6.6513 12.7588 6.6051C12.7 6.5589 12.609 6.54701 12.532 6.60774C12.455 6.66846 12.3668 6.74898 12.2786 6.81235C12.1093 6.93775 11.9525 7.07636 11.8321 7.24533C11.6977 7.4341 11.5689 7.62682 11.4485 7.82483C11.2764 8.10601 11.114 8.39246 10.8998 8.64855C10.8788 8.67363 10.869 8.70663 10.8298 8.78452ZM6.39801 9.69668C6.4162 9.78776 6.412 9.83528 6.4344 9.86697C6.50019 9.96069 6.56878 10.0571 6.65277 10.1376C6.78435 10.263 6.89634 10.4003 7.00413 10.5442C7.12239 10.7014 7.25344 10.8496 7.39608 10.9877C7.56125 11.1487 7.76843 11.2504 7.9952 11.3138C8.11978 11.3481 8.24436 11.3798 8.37035 11.4128C8.43754 11.4299 8.49773 11.3982 8.52573 11.3349C8.53886 11.3064 8.54242 11.2748 8.53591 11.2443C8.5294 11.2139 8.51314 11.186 8.48933 11.1646C8.42918 11.1105 8.363 11.0627 8.29196 11.022C8.03579 10.8715 7.81322 10.6867 7.64384 10.4504C7.35408 10.0491 6.91454 9.86961 6.39801 9.69668Z" fill="black"/>
</svg>
