<svg width="19" height="20" viewBox="0 0 19 20" fill="none" xmlns="http://www.w3.org/2000/svg">
<path fill-rule="evenodd" clip-rule="evenodd" d="M0 7H1.4902V18.4706H17.5098V7H19V20H0V7Z" fill="#F9F6EC"/>
<path d="M10.0894 18.3434C9.79247 18.4492 9.5234 18.4012 9.23042 18.3853C9.22046 18.2855 9.20252 18.2096 9.2065 18.1337C9.23042 17.5289 9.05104 16.9799 8.74411 16.4669C8.63449 16.2852 8.52089 16.1035 8.42123 15.9179C8.07843 15.2831 7.97279 14.6163 8.15615 13.9117C8.26777 13.4904 8.24186 13.0652 8.15815 12.646C8.10234 12.3725 8.01664 12.105 7.9409 11.8375C7.84922 11.5221 7.626 11.3505 7.31308 11.2966C7.10381 11.2586 6.89255 11.2446 6.68128 11.2207C5.81629 11.1289 5.02902 10.8374 4.33145 10.3144C4.13812 10.1707 3.96074 10.011 3.83517 9.80135C3.80328 9.74745 3.78734 9.68557 3.74748 9.59174C3.90493 9.60173 3.9428 9.71751 4.02053 9.77141C4.09826 9.82531 4.21187 9.80335 4.24575 9.70553C4.27201 9.63686 4.28397 9.56354 4.28088 9.49007C4.2778 9.4166 4.25974 9.34455 4.22781 9.27833C4.15461 9.12217 4.06931 8.97199 3.9727 8.82917C3.7136 8.45787 3.44985 8.09056 3.18145 7.72724C3.02997 7.52162 2.97018 7.30004 3.01403 7.0525C3.02001 7.01058 3.06984 6.96666 3.1097 6.9467C3.14956 6.92674 3.1934 6.95867 3.21334 6.98463C3.30103 7.10041 3.37876 7.22418 3.46446 7.34196C3.55016 7.45974 3.60597 7.54158 3.77538 7.50964C3.85112 7.03254 3.52625 6.69916 3.34089 6.32586C3.35684 6.18013 3.44653 6.10627 3.56013 6.05437C3.65786 6.01022 3.7681 6.00244 3.87105 6.03241C4.19393 6.11625 4.45701 6.29791 4.6344 6.5714C4.82267 6.86107 4.98858 7.16472 5.13067 7.4797C5.21039 7.65537 5.29211 7.7971 5.4675 7.89692C5.77244 8.07059 5.99567 8.33809 6.20892 8.61158C6.39627 8.85313 6.57565 9.10066 6.76898 9.33822C6.8428 9.43183 6.93012 9.51391 7.02808 9.58176C7.15962 9.67559 7.30312 9.65562 7.43267 9.55182C7.52634 9.47596 7.54229 9.37415 7.47652 9.26835C7.46351 9.245 7.44742 9.22351 7.42868 9.20447C7.13769 8.92899 6.9922 8.57365 6.88856 8.19835C6.7331 7.63541 6.39029 7.20222 5.9578 6.8389C5.6099 6.54821 5.31867 6.1956 5.09878 5.79885C4.93934 5.50739 4.80381 5.20396 4.65433 4.90652C4.50485 4.60908 4.50086 4.29167 4.52677 3.97027C4.53474 3.86447 4.55866 3.75667 4.68024 3.71675C4.75597 3.6908 4.82573 3.76665 4.87157 3.92635C4.91741 4.08606 4.96126 4.25973 5.07885 4.39548C5.13466 4.45936 5.24428 4.45337 5.28215 4.37951C5.32001 4.30564 5.34792 4.20583 5.38379 4.12199C5.43163 4.00621 5.5253 3.97826 5.64289 4.02816C5.76048 4.07807 5.83821 4.16391 5.84618 4.29566C5.85416 4.42742 5.85615 4.61507 5.86412 4.77477C5.87209 4.93447 5.8701 5.12211 5.898 5.2918C5.96577 5.68306 6.29462 5.90665 6.68327 5.84476C6.82877 5.82081 6.90251 5.72698 6.85867 5.59124C6.68128 5.04825 6.50988 4.50327 6.31057 3.96828C6.22877 3.75741 6.11444 3.56072 5.97175 3.38537C5.74254 3.09591 5.59904 2.77451 5.51334 2.42117C5.4974 2.35729 5.47946 2.29341 5.46551 2.22754C5.31802 1.58075 5.31802 1.58075 4.99116 1.14357L5.31603 0.971888C5.25424 0.84812 5.19843 0.74631 5.1506 0.638512C5.11738 0.56763 5.09199 0.493329 5.07487 0.416927C5.06889 0.388979 5.10078 0.337076 5.12668 0.323102C5.15259 0.309128 5.21837 0.313121 5.23431 0.33508C5.30215 0.415714 5.36222 0.502607 5.41369 0.594594C5.47348 0.700396 5.54523 0.792224 5.66481 0.838138C5.82426 0.89603 5.96577 0.830153 6.00563 0.668456C6.02955 0.56465 6.03154 0.456852 6.05944 0.355042C6.0714 0.311125 6.12721 0.24924 6.16109 0.251237C6.22383 0.255681 6.2824 0.284302 6.32452 0.331087C6.36438 0.377001 6.38232 0.450863 6.38631 0.514743C6.39361 0.620445 6.39294 0.726548 6.38431 0.832149C6.36638 1.1775 6.44411 1.50289 6.64142 1.77838C6.92045 2.16964 7.00416 2.59884 6.96629 3.06397C6.95832 3.18375 6.95832 3.30352 6.95433 3.4233C6.94688 3.67766 7.01335 3.92871 7.14567 4.14594C7.20745 4.24775 7.26924 4.34956 7.33301 4.45137C7.51638 4.75081 7.64593 5.06822 7.65191 5.42555C7.6539 5.46348 7.67184 5.49941 7.68778 5.5553C7.75953 5.56928 7.83527 5.59323 7.91101 5.59124C8.13423 5.59124 8.2299 5.51338 8.24983 5.2878C8.26378 5.10415 8.24784 4.9165 8.23986 4.73085C8.23588 4.66497 8.20997 4.60109 8.20399 4.53521C8.1721 4.25973 8.26577 4.10402 8.51889 4.00621C8.83181 3.88044 8.82981 3.88044 8.83181 3.55705C8.83306 2.91654 8.70985 2.28191 8.46907 1.68854C8.26777 1.19347 8.31959 0.698399 8.36543 0.195342C8.37302 0.156281 8.38646 0.118592 8.40529 0.0835508C8.41568 0.0628516 8.43067 0.0448116 8.4491 0.0308145C8.46754 0.0168174 8.48893 0.00723503 8.51163 0.00280237C8.53434 -0.00163028 8.55776 -0.000795405 8.58009 0.00524287C8.60242 0.0112811 8.62308 0.0223626 8.64047 0.037637C8.67107 0.0629798 8.69792 0.0925546 8.7202 0.125472C8.74832 0.170784 8.77297 0.218164 8.79394 0.267207C8.91153 0.544687 9.10286 0.690414 9.41976 0.624538C9.46959 0.61256 9.5234 0.622541 9.57522 0.622541C9.62704 0.622541 9.65494 0.666459 9.67288 0.696403C9.79446 0.910003 9.96387 1.0178 10.221 1.02179C10.4283 1.02379 10.516 1.16752 10.4243 1.34918C10.1771 1.84226 10.1612 2.37127 10.1432 2.90427C10.1353 3.1558 10.1014 3.40733 10.0675 3.65486C10.0376 3.86647 10.0675 4.05212 10.2329 4.20184C10.3984 4.35156 10.6076 4.38749 10.8129 4.24576C11.1438 4.01619 11.4268 3.73671 11.6042 3.3674C11.6899 3.18774 11.7656 3.00208 11.8394 2.81643C11.9968 2.42317 12.1503 2.02591 12.3037 1.62866C12.3516 1.50289 12.4153 1.38511 12.5329 1.31325C12.5748 1.2873 12.6366 1.26933 12.6804 1.28131C12.7243 1.29329 12.7821 1.34718 12.8299 1.38112C12.7362 1.5508 12.6446 1.69653 12.5748 1.85024C12.5529 1.89616 12.5748 1.98 12.6067 2.02591C12.6386 2.07183 12.7123 2.06185 12.7522 2.04188C12.8599 1.99294 12.9621 1.93271 13.0571 1.86222C13.1428 1.79834 13.2086 1.7125 13.2923 1.64862C13.4517 1.52884 13.6172 1.59871 13.6371 1.79235C13.6491 1.91213 13.6411 2.0319 13.6511 2.15168C13.671 2.3553 13.7567 2.42317 13.9699 2.41518C14.0218 2.41319 14.0736 2.39722 14.1274 2.39722C14.245 2.39522 14.3128 2.513 14.2629 2.6228C14.2054 2.74373 14.1121 2.84406 13.9959 2.91026C13.7826 3.04401 13.8464 3.31151 14.0596 3.4233C14.2091 3.50315 14.3666 3.49716 14.526 3.48119C14.7652 3.45723 15.0024 3.43727 15.2415 3.4193C15.3074 3.41731 15.3733 3.41931 15.4388 3.42529C15.5285 3.42729 15.5943 3.46921 15.6222 3.55106C15.6501 3.6329 15.6541 3.74669 15.5704 3.80857C15.3671 3.95829 15.1578 4.09604 14.9466 4.23378C14.8828 4.2777 14.7971 4.29766 14.7453 4.35156C14.6934 4.40546 14.6954 4.47333 14.7054 4.53122C14.7154 4.58911 14.7751 4.61706 14.819 4.62305C14.9366 4.63902 15.0562 4.62904 15.1758 4.64301C15.2196 4.649 15.2894 4.68493 15.2973 4.72087C15.3137 4.7822 15.3051 4.84754 15.2734 4.90253C15.2017 5.00833 15.0801 5.04825 14.9585 5.04426C14.6018 5.03428 14.3247 5.20596 14.0596 5.41756C13.8723 5.56329 13.679 5.70502 13.4777 5.83478C13.2046 6.01444 13.095 6.254 13.1269 6.58138C13.1488 6.81694 13.1608 7.06048 13.1289 7.29405C13.079 7.64339 12.9017 7.94483 12.6605 8.20235C12.5708 8.30016 12.4731 8.38999 12.3735 8.47983C11.9968 8.8152 11.7377 9.22443 11.6101 9.71551C11.5723 9.85725 11.5225 9.99499 11.4985 10.1387C11.4686 10.3144 11.5404 10.4142 11.7078 10.4721C12.0127 10.5739 12.2838 10.51 12.521 10.2964C12.5688 10.25 12.6122 10.1993 12.6505 10.1447C13.0332 9.63367 13.5394 9.27234 14.0875 8.96692C14.1212 8.94488 14.1593 8.93056 14.1991 8.92499C14.235 8.92499 14.2829 8.93697 14.3028 8.96093C14.3227 8.98488 14.3327 9.04277 14.3167 9.06673C14.243 9.17652 14.1613 9.28033 14.0796 9.38413C14.0317 9.44801 13.9739 9.5059 13.9301 9.56979C13.8862 9.63367 13.8962 9.74346 13.96 9.78538C14.0238 9.8273 14.1174 9.84327 14.1812 9.78738C14.245 9.73148 14.3446 9.6137 14.4284 9.52986C14.5121 9.44602 14.5459 9.43005 14.6077 9.37814C14.6376 9.41208 14.6635 9.42805 14.6675 9.45001C14.6914 9.53585 14.6795 9.64564 14.805 9.66361C14.9306 9.68158 14.9844 9.62368 15.0482 9.55182C15.112 9.47995 15.1997 9.36617 15.2794 9.27634C15.3312 9.21844 15.385 9.15456 15.4488 9.11464C15.5126 9.07471 15.5624 9.09667 15.5923 9.12262C15.6222 9.14857 15.6461 9.22843 15.6282 9.26236C15.5899 9.3458 15.5349 9.42052 15.4667 9.48195C15.4089 9.53186 15.3252 9.54982 15.2555 9.58775C15.2211 9.6074 15.192 9.63497 15.1704 9.66816C15.1487 9.70135 15.1354 9.73921 15.1313 9.77862C15.1272 9.81803 15.1325 9.85784 15.1468 9.89477C15.1612 9.9317 15.184 9.96469 15.2136 9.991C15.2399 10.0088 15.2696 10.021 15.3008 10.0269C15.332 10.0327 15.3641 10.0321 15.395 10.0249C15.4827 9.99699 15.5544 9.93111 15.6401 9.89318C15.7108 9.85897 15.7871 9.838 15.8654 9.8313C15.9072 9.8293 15.969 9.86922 15.9889 9.90715C16.0089 9.94508 16.0009 10.0209 15.973 10.0469C15.9087 10.112 15.833 10.1648 15.7498 10.2026C15.5066 10.3104 15.2615 10.4122 15.0123 10.504C14.3347 10.7576 13.7108 11.0989 13.1408 11.5501C12.6186 11.9633 12.0108 12.1869 11.3511 12.2607C11.0601 12.2927 10.7691 12.3126 10.4781 12.3226C10.2489 12.3306 10.0695 12.4125 9.92999 12.5941C9.70278 12.8896 9.47357 13.183 9.2364 13.4705C8.86967 13.9156 8.78397 14.4147 8.91352 14.9677C9.00042 15.3438 9.13295 15.7078 9.30815 16.0516L9.68684 16.7982C9.80044 17.0298 9.86621 17.2774 9.83432 17.5329C9.80243 17.7884 9.8702 18.0299 10.0516 18.2296C10.0675 18.2475 10.0695 18.2795 10.0894 18.3434ZM10.7312 8.46585C10.8847 8.83316 10.8448 8.94495 10.5299 9.06473C10.4542 9.09268 10.3784 9.11264 10.3047 9.14059C9.83432 9.31626 9.43571 9.59773 9.13077 9.99699C8.75806 10.4901 8.57071 11.045 8.61257 11.6699C8.62652 11.8695 8.66837 12.0571 8.80191 12.2328C9.04507 12.1869 9.21248 12.0511 9.35798 11.8715C9.62904 11.5441 9.90807 11.2247 10.1771 10.8973C10.3804 10.6518 10.5817 10.4062 10.7671 10.1487C10.9524 9.89118 11.1358 9.5638 11.2394 9.23242C11.3431 8.90104 11.3331 8.52374 11.1418 8.19636C10.9943 7.94283 10.7611 7.84502 10.5 7.94882C10.2389 8.05263 10.0536 8.23229 9.92401 8.47384C9.86222 8.58762 9.8981 8.71738 9.99576 8.79524C10.0934 8.87309 10.1672 8.85313 10.2848 8.76529C10.4023 8.67746 10.5239 8.51776 10.7312 8.46585ZM9.52539 4.33359C9.49948 4.33359 9.48155 4.3276 9.47557 4.33359C9.43571 4.36753 9.38987 4.39747 9.35997 4.43939C9.12877 4.76678 8.95737 5.12211 8.86768 5.51538C8.71621 6.18812 8.55477 6.85687 8.40529 7.52961C8.35023 7.7753 8.30898 8.02389 8.28172 8.27421C8.25544 8.52633 8.29031 8.78108 8.38337 9.01682C8.42721 9.12262 8.49498 9.20447 8.61058 9.21645C8.72617 9.22843 8.84974 9.16454 8.89758 9.04477C8.94217 8.93538 8.96843 8.81937 8.97531 8.70141C8.98527 8.47783 8.97331 8.25225 8.97331 8.02668C8.97531 7.67533 9.03909 7.33996 9.23042 7.03853C9.30416 6.92274 9.34004 6.80097 9.31214 6.66123C9.25633 6.39573 9.29619 6.13622 9.36396 5.87471C9.47203 5.46475 9.54274 5.04581 9.57522 4.62305C9.58319 4.52124 9.6111 4.41145 9.52539 4.33359ZM10.6196 6.8409C10.7511 6.79299 10.8049 6.783 10.8488 6.75705C11.3291 6.47159 11.7835 6.15219 12.1861 5.76292C12.5887 5.37364 12.8698 4.98837 13.097 4.51725C13.2066 4.29167 13.3102 4.0621 13.4139 3.83253C13.4677 3.71076 13.4498 3.61494 13.366 3.54507C13.2823 3.4752 13.1528 3.45723 13.0432 3.54906C12.9335 3.64089 12.808 3.76266 12.6824 3.85848C12.4413 4.04813 12.218 4.25773 12.0466 4.51325C11.8553 4.79872 11.6719 5.09017 11.5005 5.38961C11.2554 5.81482 11.0242 6.24801 10.7192 6.63528C10.6893 6.67321 10.6754 6.72312 10.6196 6.8409ZM4.30953 8.22031C4.33544 8.35805 4.32946 8.42992 4.36134 8.47783C4.45502 8.61957 4.55268 8.76529 4.67226 8.88706C4.85961 9.07671 5.01906 9.28432 5.17253 9.50191C5.34092 9.73964 5.5275 9.96389 5.73059 10.1727C5.96577 10.4162 6.26074 10.5699 6.58362 10.6657C6.761 10.7176 6.93839 10.7655 7.11776 10.8155C7.21343 10.8414 7.29913 10.7935 7.33899 10.6977C7.3577 10.6546 7.36276 10.6068 7.3535 10.5608C7.34423 10.5147 7.32108 10.4726 7.28718 10.4402C7.20153 10.3584 7.10731 10.2861 7.00615 10.2246C6.64142 9.99699 6.32452 9.71751 6.08336 9.36018C5.67079 8.75331 5.04497 8.48182 4.30953 8.22031Z" fill="#F9F6EC"/>
</svg>
